<svg width="374" height="127" viewBox="0 0 374 127" fill="none" xmlns="http://www.w3.org/2000/svg">
<g clip-path="url(#clip0_2518_855)">
<rect width="373.5" height="127" transform="translate(0.5)" fill="#228BE6"/>
<circle opacity="0.1" cx="322" cy="120" r="104" fill="white"/>
<g clip-path="url(#clip1_2518_855)">
<path d="M331.511 34.27V93.7295C331.511 94.4338 330.941 95.0031 330.237 95.0031H291.274C290.571 95.003 290 94.4338 290 93.7295V34.27C290 33.5656 290.571 32.9965 291.274 32.9965H330.238C330.941 32.9965 331.511 33.5656 331.511 34.27Z" fill="#F8F3F1"/>
<path d="M331.511 57.8047V93.7298C331.511 94.4341 330.941 95.0034 330.237 95.0034H326.036C319.363 91.869 314.742 85.0866 314.742 77.2262C314.742 67.3571 322.026 59.189 331.511 57.8047Z" fill="#E5E1E5"/>
<path d="M331.51 34.2698V93.7303C331.51 94.4333 330.941 95.0038 330.237 95.0038H325.495C326.198 95.0038 326.769 94.4333 326.769 93.7303V34.2698C326.769 33.5668 326.198 32.9963 325.495 32.9963H330.237C330.941 32.9962 331.51 33.5668 331.51 34.2698Z" fill="#E5E1E5"/>
<path d="M301.785 46.6532H296.857C296.097 46.6532 295.481 46.037 295.481 45.277V40.3489C295.481 39.5889 296.097 38.9728 296.857 38.9728H301.785C302.545 38.9728 303.161 39.5889 303.161 40.3489V45.2769C303.161 46.037 302.545 46.6532 301.785 46.6532Z" fill="#35BCC7"/>
<path d="M303.161 40.3491V45.2769C303.161 46.0365 302.545 46.653 301.785 46.653H298.239C298.999 46.653 299.615 46.0365 299.615 45.2769V40.3491C299.615 39.5895 298.999 38.973 298.239 38.973H301.785C302.545 38.973 303.161 39.5895 303.161 40.3491Z" fill="#20ABB9"/>
<path d="M299.281 44.6674C299.034 44.6674 298.787 44.573 298.598 44.3845L297.556 43.3425C297.179 42.9654 297.179 42.3539 297.556 41.9767C297.933 41.5995 298.545 41.5995 298.922 41.9767L299.281 42.3358L303.352 38.2643C303.73 37.8872 304.341 37.8872 304.718 38.2643C305.096 38.6414 305.096 39.2529 304.718 39.6302L299.964 44.3845C299.775 44.5732 299.528 44.6674 299.281 44.6674Z" fill="#FDD330"/>
<path d="M311.774 44.0307H308.728C308.194 44.0307 307.762 43.5983 307.762 43.0649C307.762 42.5316 308.195 42.0992 308.728 42.0992H311.774C312.308 42.0992 312.74 42.5316 312.74 43.0649C312.74 43.5983 312.308 44.0307 311.774 44.0307Z" fill="#C9C0C7"/>
<path d="M326.03 47.6189H308.728C308.194 47.6189 307.762 47.1866 307.762 46.6532C307.762 46.1198 308.195 45.6874 308.728 45.6874H326.03C326.564 45.6874 326.996 46.1198 326.996 46.6532C326.996 47.1864 326.564 47.6189 326.03 47.6189Z" fill="#C9C0C7"/>
<path d="M301.785 59.1707H296.857C296.097 59.1707 295.481 58.5546 295.481 57.7946V52.8666C295.481 52.1066 296.097 51.4905 296.857 51.4905H301.785C302.545 51.4905 303.161 52.1066 303.161 52.8666V57.7946C303.161 58.5546 302.545 59.1707 301.785 59.1707Z" fill="#35BCC7"/>
<path d="M303.161 52.8667V57.7945C303.161 58.5541 302.545 59.1706 301.785 59.1706H298.239C298.999 59.1706 299.615 58.5541 299.615 57.7945V52.8667C299.615 52.1071 298.999 51.4906 298.239 51.4906H301.785C302.545 51.4906 303.161 52.1071 303.161 52.8667Z" fill="#20ABB9"/>
<path d="M299.281 57.185C299.034 57.185 298.787 57.0907 298.598 56.9021L297.556 55.8601C297.179 55.483 297.179 54.8715 297.556 54.4942C297.933 54.1171 298.545 54.117 298.922 54.4942L299.281 54.8532L303.352 50.7817C303.73 50.4046 304.341 50.4046 304.718 50.7817C305.096 51.1589 305.096 51.7704 304.718 52.1476L299.964 56.902C299.775 57.0907 299.528 57.185 299.281 57.185Z" fill="#FDD330"/>
<path d="M311.774 56.5483H308.728C308.194 56.5483 307.762 56.1159 307.762 55.5825C307.762 55.0491 308.195 54.6168 308.728 54.6168H311.774C312.308 54.6168 312.74 55.0491 312.74 55.5825C312.74 56.1159 312.308 56.5483 311.774 56.5483Z" fill="#C9C0C7"/>
<path d="M326.03 60.1366H308.728C308.194 60.1366 307.762 59.7043 307.762 59.1709C307.762 58.6375 308.195 58.2051 308.728 58.2051H326.03C326.564 58.2051 326.996 58.6375 326.996 59.1709C326.996 59.7043 326.564 60.1366 326.03 60.1366Z" fill="#C9C0C7"/>
<path d="M301.785 71.6884H296.857C296.097 71.6884 295.481 71.0723 295.481 70.3123V65.3843C295.481 64.6243 296.097 64.0082 296.857 64.0082H301.785C302.545 64.0082 303.161 64.6243 303.161 65.3843V70.3123C303.161 71.0724 302.545 71.6884 301.785 71.6884Z" fill="#FCA62F"/>
<path d="M303.161 65.3845V70.3123C303.161 71.0719 302.545 71.6884 301.785 71.6884H298.239C298.999 71.6884 299.615 71.0719 299.615 70.3123V65.3845C299.615 64.6249 298.999 64.0084 298.239 64.0084H301.785C302.545 64.0084 303.161 64.6249 303.161 65.3845Z" fill="#F98824"/>
<path d="M311.774 69.066H308.728C308.194 69.066 307.762 68.6336 307.762 68.1003C307.762 67.5669 308.195 67.1345 308.728 67.1345H311.774C312.308 67.1345 312.74 67.5669 312.74 68.1003C312.74 68.6335 312.308 69.066 311.774 69.066Z" fill="#C9C0C7"/>
<path d="M326.03 72.6543H308.728C308.194 72.6543 307.762 72.2219 307.762 71.6885C307.762 71.1552 308.195 70.7228 308.728 70.7228H326.03C326.564 70.7228 326.996 71.1552 326.996 71.6885C326.996 72.2219 326.564 72.6543 326.03 72.6543Z" fill="#C9C0C7"/>
<path d="M301.785 84.2061H296.857C296.097 84.2061 295.481 83.59 295.481 82.83V77.902C295.481 77.142 296.097 76.5259 296.857 76.5259H301.785C302.545 76.5259 303.161 77.142 303.161 77.902V82.83C303.161 83.59 302.545 84.2061 301.785 84.2061Z" fill="#FEE265"/>
<path d="M303.161 77.9021V82.8299C303.161 83.5895 302.545 84.206 301.785 84.206H298.239C298.999 84.206 299.615 83.5895 299.615 82.8299V77.9021C299.615 77.1425 298.999 76.526 298.239 76.526H301.785C302.545 76.526 303.161 77.1425 303.161 77.9021Z" fill="#FDD330"/>
<path d="M311.774 81.5837H308.728C308.194 81.5837 307.762 81.1513 307.762 80.618C307.762 80.0846 308.195 79.6522 308.728 79.6522H311.774C312.308 79.6522 312.74 80.0846 312.74 80.618C312.74 81.1512 312.308 81.5837 311.774 81.5837Z" fill="#C9C0C7"/>
<path d="M326.03 85.1719H308.728C308.194 85.1719 307.762 84.7395 307.762 84.2061C307.762 83.6727 308.195 83.2404 308.728 83.2404H326.03C326.564 83.2404 326.996 83.6727 326.996 84.2061C326.996 84.7395 326.564 85.1719 326.03 85.1719Z" fill="#C9C0C7"/>
<path d="M334.371 91.3178C345.212 91.3178 354 82.5295 354 71.6886C354 60.8478 345.212 52.0595 334.371 52.0595C323.53 52.0595 314.742 60.8478 314.742 71.6886C314.742 82.5295 323.53 91.3178 334.371 91.3178Z" fill="#5591D6"/>
<path d="M354 71.6884C354.001 82.5291 345.212 91.3175 334.372 91.3175C333.646 91.3175 332.931 91.2778 332.226 91.2015C342.057 90.1325 349.709 81.8039 349.709 71.6884C349.709 61.5729 342.056 53.2443 332.225 52.1753C332.929 52.099 333.645 52.0593 334.37 52.0593C345.211 52.0593 354 60.8476 354 71.6884Z" fill="#1475CB"/>
<path d="M334.371 86.7277C342.677 86.7277 349.41 79.9944 349.41 71.6885C349.41 63.3827 342.677 56.6494 334.371 56.6494C326.065 56.6494 319.332 63.3827 319.332 71.6885C319.332 79.9944 326.065 86.7277 334.371 86.7277Z" fill="#F8F3F1"/>
<path d="M349.41 71.6884C349.41 79.9939 342.677 86.7272 334.371 86.7272C333.758 86.7272 333.152 86.6904 332.558 86.619C340.01 85.7243 345.785 79.3809 345.785 71.6884C345.785 63.9959 340.01 57.6525 332.558 56.7578C333.152 56.6864 333.757 56.6497 334.37 56.6497C342.677 56.6497 349.41 63.3829 349.41 71.6884Z" fill="#E5E1E5"/>
<path d="M336.328 77.9059L333.166 72.6328L335.784 71.0623L338.947 76.3354C339.145 76.6669 339.038 77.0968 338.706 77.2955L337.288 78.146C336.957 78.3449 336.527 78.2374 336.328 77.9059Z" fill="#FEE265"/>
<path d="M334.403 71.1336C333.87 71.1336 333.437 70.7013 333.437 70.1679V64.1575C333.437 63.6241 333.87 63.1918 334.403 63.1918C334.937 63.1918 335.369 63.6241 335.369 64.1575V70.1679C335.369 70.7013 334.937 71.1336 334.403 71.1336Z" fill="#5591D6"/>
<path d="M334.371 73.8528C335.566 73.8528 336.535 72.8838 336.535 71.6885C336.535 70.4933 335.566 69.5243 334.371 69.5243C333.176 69.5243 332.207 70.4933 332.207 71.6885C332.207 72.8838 333.176 73.8528 334.371 73.8528Z" fill="#FB9927"/>
<path d="M345.619 72.6288C345.618 72.6288 345.616 72.6288 345.615 72.6288H345.6C345.067 72.6264 344.637 72.1921 344.639 71.6588C344.641 71.1268 345.073 70.6971 345.605 70.6971H345.609L345.623 70.6973C346.157 70.6996 346.587 71.1339 346.585 71.6673C346.582 72.1991 346.15 72.6288 345.619 72.6288Z" fill="#B9AFB9"/>
<path d="M323.137 72.6289H323.123C322.589 72.6289 322.157 72.1965 322.157 71.6631C322.157 71.1298 322.59 70.6974 323.123 70.6974H323.137C323.671 70.6974 324.103 71.1298 324.103 71.6631C324.103 72.1964 323.671 72.6289 323.137 72.6289Z" fill="#B9AFB9"/>
<path d="M334.339 61.395C333.805 61.395 333.373 60.9627 333.373 60.4293V60.4149C333.373 59.8815 333.805 59.4492 334.339 59.4492C334.872 59.4492 335.305 59.8815 335.305 60.4149V60.4293C335.305 60.9627 334.872 61.395 334.339 61.395Z" fill="#B9AFB9"/>
<path d="M334.403 83.8768C333.87 83.8768 333.437 83.4444 333.437 82.911V82.8967C333.437 82.3633 333.87 81.9309 334.403 81.9309C334.937 81.9309 335.369 82.3633 335.369 82.8967V82.911C335.369 83.4443 334.937 83.8768 334.403 83.8768Z" fill="#B9AFB9"/>
<path d="M328.727 62.9164C328.393 62.9164 328.068 62.7428 327.889 62.4323L327.882 62.4198C327.616 61.9575 327.775 61.367 328.237 61.1009C328.699 60.8349 329.29 60.9937 329.556 61.456L329.563 61.4685C329.829 61.9308 329.67 62.5213 329.208 62.7874C329.056 62.8748 328.891 62.9164 328.727 62.9164Z" fill="#B9AFB9"/>
<path d="M324.625 67.0401C324.462 67.0401 324.297 66.9986 324.145 66.9113L324.132 66.9041C323.67 66.6382 323.511 66.0478 323.776 65.5853C324.042 65.1228 324.633 64.9638 325.095 65.2294L325.108 65.2367C325.57 65.5026 325.729 66.0929 325.464 66.5554C325.285 66.8662 324.96 67.0401 324.625 67.0401Z" fill="#B9AFB9"/>
<path d="M344.127 78.225C343.964 78.225 343.798 78.1835 343.646 78.096L343.634 78.0889C343.172 77.8228 343.013 77.2323 343.279 76.77C343.545 76.3078 344.136 76.1489 344.598 76.4149L344.61 76.422C345.072 76.6882 345.231 77.2787 344.965 77.7409C344.786 78.0513 344.461 78.225 344.127 78.225Z" fill="#B9AFB9"/>
<path d="M340.015 62.9164C339.852 62.9164 339.687 62.8752 339.536 62.7884C339.073 62.5233 338.913 61.9332 339.178 61.4703L339.185 61.4578C339.45 60.9949 340.04 60.8349 340.503 61.0998C340.966 61.3649 341.126 61.955 340.861 62.4179L340.854 62.4304C340.675 62.7419 340.35 62.9164 340.015 62.9164Z" fill="#B9AFB9"/>
<path d="M328.718 82.3539C328.555 82.3539 328.389 82.3124 328.237 82.2249C327.775 81.9588 327.616 81.3683 327.882 80.906L327.889 80.8935C328.156 80.4312 328.746 80.2724 329.208 80.5384C329.67 80.8045 329.829 81.395 329.563 81.8573L329.556 81.8698C329.377 82.1803 329.052 82.3539 328.718 82.3539Z" fill="#B9AFB9"/>
<path d="M344.117 67.0399C343.782 67.0399 343.457 66.866 343.278 66.5554C343.013 66.0929 343.172 65.5025 343.634 65.2366L343.647 65.2294C344.109 64.9635 344.7 65.1229 344.966 65.5853C345.231 66.0478 345.072 66.6381 344.61 66.904L344.597 66.9113C344.445 66.9984 344.28 67.0399 344.117 67.0399Z" fill="#B9AFB9"/>
<path d="M324.615 78.225C324.282 78.225 323.958 78.0527 323.779 77.744C323.511 77.2827 323.668 76.6916 324.129 76.4239L324.141 76.4166C324.603 76.1489 325.194 76.3055 325.462 76.7667C325.729 77.228 325.573 77.8191 325.111 78.0869L325.099 78.0941C324.946 78.1829 324.779 78.225 324.615 78.225Z" fill="#B9AFB9"/>
<path d="M340.024 82.3539C339.689 82.3539 339.365 82.1803 339.186 81.8698L339.179 81.8573C338.913 81.395 339.072 80.8045 339.534 80.5384C339.996 80.2723 340.587 80.4312 340.853 80.8935L340.86 80.906C341.126 81.3683 340.967 81.9588 340.505 82.2249C340.353 82.3123 340.187 82.3539 340.024 82.3539Z" fill="#B9AFB9"/>
</g>
</g>
<defs>
<clipPath id="clip0_2518_855">
<rect width="373.5" height="127" fill="white" transform="translate(0.5)"/>
</clipPath>
<clipPath id="clip1_2518_855">
<rect width="64" height="64" fill="white" transform="translate(290 32)"/>
</clipPath>
</defs>
</svg>
