<svg width="374" height="127" viewBox="0 0 374 127" fill="none" xmlns="http://www.w3.org/2000/svg">
<g clip-path="url(#clip0_2518_835)">
<rect width="373.5" height="127" fill="#2A2A86"/>
<circle opacity="0.1" cx="321" cy="120" r="104" fill="white"/>
<g clip-path="url(#clip1_2518_835)">
<path d="M351.084 83.0578H290.916V46.4378C290.916 45.7462 291.169 45.0828 291.619 44.5937C292.069 44.1047 292.68 43.8299 293.317 43.8298H348.683C348.998 43.8298 349.31 43.8973 349.602 44.0284C349.893 44.1594 350.158 44.3515 350.38 44.5937C350.603 44.8359 350.78 45.1234 350.901 45.4398C351.022 45.7562 351.084 46.0953 351.084 46.4378L351.084 83.0578Z" fill="#393939"/>
<path d="M292.864 46.4377V83.0578H290.916V46.4377C290.916 45.746 291.169 45.0827 291.619 44.5937C292.069 44.1046 292.68 43.8298 293.317 43.8298H295.265C294.628 43.8298 294.018 44.1046 293.567 44.5936C293.117 45.0827 292.864 45.746 292.864 46.4377Z" fill="#343434"/>
<path d="M293.882 79.8358V47.0518H348.118V79.8358H293.882Z" fill="#66CCFF"/>
<path d="M293.882 79.8358V47.0518H295.265V79.8358H293.882Z" fill="#4DA6FF"/>
<path d="M289.237 88.2108H352.763V92.6918C352.761 93.4633 352.478 94.2027 351.976 94.7483C351.473 95.2938 350.793 95.6013 350.082 95.6034H291.918C291.207 95.6013 290.527 95.2938 290.024 94.7482C289.522 94.2027 289.239 93.4633 289.237 92.6918V88.2108Z" fill="#393939"/>
<path d="M295.068 95.6034H291.918C291.207 95.6013 290.527 95.2938 290.024 94.7482C289.522 94.2027 289.239 93.4633 289.237 92.6918V88.2108H292.388V92.6918C292.39 93.4633 292.673 94.2026 293.175 94.7481C293.677 95.2937 294.358 95.6012 295.068 95.6034Z" fill="#343434"/>
<path d="M351.084 83.0577L352.763 88.2108H289.237L290.916 83.0577H351.084Z" fill="#BFBFBF"/>
<path d="M292.864 83.0577L292.387 88.2108H289.237L290.916 83.0577H292.864Z" fill="#8C8C8C"/>
<path d="M328.205 88.2108V91.907H313.795V88.2108H328.205Z" fill="#F5F5F5"/>
<path d="M342.298 65.8196C342.298 65.8196 332.759 63.9312 322.576 71.5184C322.117 71.8768 321.565 72.0695 321 72.0695C320.434 72.0695 319.883 71.8768 319.424 71.5184C309.241 63.9312 299.702 65.8196 299.702 65.8196L301.139 34.778L303.37 32.3965L302.185 62.7252C308.664 63.0911 314.917 65.481 321 69.4C327.083 65.481 333.336 63.0911 339.815 62.7252L338.63 32.3965L340.861 34.778L342.298 65.8196Z" fill="#52CC7B"/>
<path d="M321 72.069C320.436 72.056 319.889 71.8645 319.424 71.5179C309.241 63.9306 299.702 65.819 299.702 65.819L301.139 34.778L302.177 33.6713L300.749 64.5163C300.749 64.5163 312.877 63.958 321 72.069Z" fill="#3D997A"/>
<path d="M302.185 62.7252L303.37 32.3965C310.628 32.7801 321 39.0488 321 39.0488C321 39.0488 331.372 32.7801 338.63 32.3965L339.815 62.7252C333.336 63.0911 327.083 65.481 321 69.4C314.917 65.4803 308.664 63.0904 302.185 62.7252Z" fill="#F5F5F5"/>
<path d="M303.558 61.6359C310.038 62.0018 315.925 64.787 321 69.3993C314.917 65.4803 308.664 63.0904 302.185 62.7245L303.37 32.3965C303.802 32.4194 304.245 32.4636 304.696 32.5254L303.558 61.6359Z" fill="#E6E6E6"/>
</g>
</g>
<defs>
<clipPath id="clip0_2518_835">
<rect width="373.5" height="127" fill="white"/>
</clipPath>
<clipPath id="clip1_2518_835">
<rect width="64" height="64" fill="white" transform="translate(289 32)"/>
</clipPath>
</defs>
</svg>
