<svg width="180" height="180" viewBox="0 0 180 180" fill="none" xmlns="http://www.w3.org/2000/svg">
<g id="party 1">
<g id="Group">
<g id="_4.-flat--EXP-">
<g id="Group_2">
<g id="Group_3">
<path id="Vector" fill-rule="evenodd" clip-rule="evenodd" d="M68.34 49.0126L131.301 111.973C124.299 118.273 78.2596 133.683 38.8835 147.571C37.1303 148.197 35.1756 147.759 33.8587 146.446C32.5403 145.131 32.0962 143.176 32.7193 141.423C45.9081 103.9 62.3025 57.0238 68.34 49.0126Z" fill="#6DABFB"/>
</g>
<g id="Group_4">
<path id="Vector_2" d="M131.3 111.973C137.018 106.256 127.558 87.5269 110.172 70.1408C92.7861 52.7547 74.057 43.2953 68.3396 49.0127C62.6222 54.7301 72.0816 73.4592 89.4677 90.8454C106.854 108.232 125.583 117.691 131.3 111.973Z" fill="#5678CD"/>
</g>
<g id="Group_5">
<path id="Vector_3" fill-rule="evenodd" clip-rule="evenodd" d="M56.8303 74.3177C69.1258 101.957 97.7784 118.283 116.317 119.428C108.777 122.55 99.0458 126.187 88.2606 130.068C73.0833 120.674 58.5157 104.583 51.8037 87.6294C53.5437 82.9283 55.2275 78.4553 56.8303 74.3177Z" fill="#F86394"/>
</g>
<g id="Group_6">
<path id="Vector_4" fill-rule="evenodd" clip-rule="evenodd" d="M43.4468 110.695C50.1457 122.804 61.1325 131.494 71.4484 136.04C66.4334 137.803 61.3291 139.589 56.2232 141.374C49.6268 135.706 43.7244 128.538 39.8182 120.914C41.0244 117.503 42.2373 114.086 43.4468 110.695Z" fill="#F86394"/>
</g>
<g id="Group_7">
<path id="Vector_5" fill-rule="evenodd" clip-rule="evenodd" d="M47.0823 122.173L66.2485 77.4012C66.5431 76.7165 66.2242 75.9226 65.5395 75.6297C64.8548 75.3367 64.0609 75.6539 63.768 76.3386L44.6 121.111C44.3071 121.795 44.626 122.589 45.3107 122.882C45.9954 123.177 46.7893 122.858 47.0823 122.173Z" fill="white"/>
</g>
<g id="Group_8">
<path id="Vector_6" fill-rule="evenodd" clip-rule="evenodd" d="M138.133 80.8741C138.404 80.1715 139.079 79.7032 139.833 79.7032C140.587 79.7032 141.261 80.1715 141.528 80.8741C142.859 84.368 144.479 88.6395 144.479 88.6395C144.774 89.417 145.233 90.1195 145.819 90.7096C146.404 91.2951 147.111 91.7494 147.889 92.0445C147.889 92.0445 152.16 93.6697 155.654 94.9998C156.357 95.2668 156.825 95.9412 156.825 96.6953C156.825 97.4493 156.357 98.1238 155.654 98.3907C152.16 99.7209 147.889 101.346 147.889 101.346C147.111 101.641 146.404 102.095 145.819 102.681C145.233 103.271 144.774 103.974 144.479 104.751C144.479 104.751 142.859 109.023 141.528 112.516C141.261 113.219 140.587 113.687 139.833 113.687C139.079 113.687 138.404 113.219 138.133 112.516C136.807 109.023 135.182 104.751 135.182 104.751C134.887 103.974 134.433 103.271 133.843 102.681C133.257 102.095 132.555 101.641 131.777 101.346C131.777 101.346 127.506 99.7209 124.012 98.3907C123.304 98.1238 122.841 97.4493 122.841 96.6953C122.841 95.9412 123.304 95.2668 124.012 94.9998C127.506 93.6697 131.777 92.0445 131.777 92.0445C132.555 91.7494 133.257 91.2951 133.843 90.7096C134.433 90.1195 134.887 89.417 135.182 88.6395C135.182 88.6395 136.807 84.368 138.133 80.8741Z" fill="#FDBE00"/>
</g>
<g id="Group_9">
<path id="Vector_7" fill-rule="evenodd" clip-rule="evenodd" d="M41.557 71.4179C41.7428 70.9322 42.209 70.6094 42.7305 70.6094C43.2521 70.6094 43.7183 70.9322 43.9041 71.4179C44.8299 73.8562 45.9643 76.8454 45.9643 76.8454C46.1696 77.3866 46.4891 77.8755 46.8966 78.2863C47.304 78.6937 47.7963 79.0099 48.3374 79.2153C48.3374 79.2153 51.3266 80.353 53.765 81.2788C54.2507 81.4646 54.5734 81.9307 54.5734 82.4523C54.5734 82.9739 54.2507 83.44 53.765 83.6258C51.3266 84.5516 48.3374 85.6893 48.3374 85.6893C47.7963 85.8946 47.304 86.2108 46.8966 86.6183C46.4891 87.029 46.1696 87.518 45.9643 88.0591C45.9643 88.0591 44.8299 91.0484 43.9041 93.4867C43.7183 93.9724 43.2521 94.2951 42.7305 94.2951C42.209 94.2951 41.7428 93.9724 41.557 93.4867C40.6312 91.0484 39.4936 88.0591 39.4936 88.0591C39.2882 87.518 38.972 87.029 38.5613 86.6183C38.1538 86.2108 37.6648 85.8946 37.1237 85.6893C37.1237 85.6893 34.1312 84.5516 31.6961 83.6258C31.2104 83.44 30.8877 82.9739 30.8877 82.4523C30.8877 81.9307 31.2104 81.4646 31.6961 81.2788C34.1312 80.353 37.1237 79.2153 37.1237 79.2153C37.6648 79.0099 38.1538 78.6937 38.5613 78.2863C38.972 77.8755 39.2882 77.3866 39.4936 76.8454C39.4936 76.8454 40.6312 73.8562 41.557 71.4179Z" fill="#FDBE00"/>
</g>
<g id="Group_10">
<path id="Vector_8" fill-rule="evenodd" clip-rule="evenodd" d="M80.2088 27.9039C80.3427 27.5539 80.6786 27.3214 81.0544 27.3214C81.4303 27.3214 81.7662 27.5539 81.9001 27.9039C82.5672 29.661 83.3846 31.815 83.3846 31.815C83.5326 32.2049 83.7628 32.5573 84.0564 32.8533C84.3501 33.1469 84.7048 33.3748 85.0947 33.5227C85.0947 33.5227 87.2487 34.3425 89.0058 35.0097C89.3558 35.1435 89.5883 35.4795 89.5883 35.8553C89.5883 36.2311 89.3558 36.567 89.0058 36.7009C87.2487 37.3681 85.0947 38.1879 85.0947 38.1879C84.7048 38.3358 84.3501 38.5637 84.0564 38.8573C83.7628 39.1533 83.5326 39.5056 83.3846 39.8956C83.3846 39.8956 82.5672 42.0496 81.9001 43.8067C81.7662 44.1567 81.4303 44.3892 81.0544 44.3892C80.6786 44.3892 80.3427 44.1567 80.2088 43.8067C79.5417 42.0496 78.7219 39.8956 78.7219 39.8956C78.5739 39.5056 78.346 39.1533 78.0501 38.8573C77.7564 38.5637 77.4041 38.3358 77.0141 38.1879C77.0141 38.1879 74.8578 37.3681 73.1031 36.7009C72.7531 36.567 72.5205 36.2311 72.5205 35.8553C72.5205 35.4795 72.7531 35.1435 73.1031 35.0097C74.8578 34.3425 77.0141 33.5227 77.0141 33.5227C77.4041 33.3748 77.7564 33.1469 78.0501 32.8533C78.346 32.5573 78.5739 32.2049 78.7219 31.815C78.7219 31.815 79.5417 29.661 80.2088 27.9039Z" fill="#F86394"/>
</g>
<g id="Group_11">
<path id="Vector_9" fill-rule="evenodd" clip-rule="evenodd" d="M106.287 96.3288C107.353 92.6799 110.331 82.8143 115.964 76.2828C116.45 75.7194 116.387 74.8657 115.823 74.3806C115.26 73.8938 114.408 73.9566 113.92 74.5217C107.999 81.3874 104.818 91.7361 103.696 95.5731C103.488 96.2877 103.898 97.038 104.612 97.2471C105.327 97.4545 106.077 97.0435 106.287 96.3288Z" fill="#FDBE00"/>
</g>
<g id="Group_12">
<path id="Vector_10" fill-rule="evenodd" clip-rule="evenodd" d="M123.843 68.0661C119.939 68.9339 116.646 71.3618 113.92 74.5217C113.434 75.0851 113.496 75.9373 114.061 76.4239C114.625 76.9106 115.478 76.8462 115.964 76.2828C117.857 74.0878 120.055 72.2713 122.602 71.2662C122.376 72.3937 122.407 73.4734 122.732 74.4653C123.235 75.9951 124.398 76.8699 125.904 77.2015C127.124 77.4703 128.603 77.3533 130.033 76.9488C131.691 76.4782 133.279 75.628 134.302 74.6768C135.203 73.84 135.687 72.891 135.721 72.0145C135.756 71.1331 135.409 70.2339 134.38 69.4735C133.397 68.7457 131.57 68.0896 128.542 67.7926C128.118 67.7513 127.698 67.7271 127.285 67.7199C127.532 67.3844 127.798 67.0473 128.076 66.7108C131.545 62.5237 137.121 58.4583 140.74 56.4756C141.393 56.1177 141.633 55.2967 141.275 54.6439C140.917 53.991 140.097 53.7514 139.444 54.1092C134.941 56.5751 127.616 62.0944 124.309 67.2861C124.144 67.5459 123.989 67.8064 123.843 68.0661ZM125.648 70.4984L125.59 70.6325C125.166 71.6975 124.996 72.7101 125.296 73.6214C125.478 74.1763 125.939 74.4456 126.486 74.5655C127.319 74.7499 128.323 74.6278 129.298 74.3519C130.523 74.005 131.709 73.4033 132.466 72.7001C132.755 72.4327 133.013 72.1919 133.025 71.9103C133.028 71.8368 132.952 71.7923 132.879 71.7269C132.765 71.6268 132.62 71.5325 132.448 71.4407C131.609 70.9969 130.262 70.6722 128.278 70.4776C127.368 70.3891 126.491 70.3998 125.648 70.4984Z" fill="#7B5885"/>
</g>
<g id="Group_13">
<path id="Vector_11" fill-rule="evenodd" clip-rule="evenodd" d="M96.3731 54.5271C95.8581 52.817 95.0727 51.4951 94.2157 50.7082C93.1368 49.7161 91.9163 49.4381 90.7471 49.8671C89.7938 50.2153 88.7752 51.1355 87.9893 52.9274C87.0262 55.1239 86.7113 56.778 86.7945 57.9346C86.877 59.0366 87.2925 59.8068 87.8725 60.3209C88.7504 61.1004 90.1565 61.3445 91.8487 60.838C92.6098 60.61 93.4452 60.2286 94.3091 59.7101C94.1549 63.7858 92.4113 68.7924 87.769 73.1224C87.2242 73.6312 87.1968 74.4862 87.705 75.0295C88.2137 75.5743 89.0696 75.6039 89.6128 75.0973C95.6846 69.4308 97.3343 62.7262 96.9548 57.7409C97.3633 57.3769 97.7646 56.9864 98.1592 56.5707C101.228 53.3271 103.706 48.6027 103.35 43.4462C103.299 42.7014 102.653 42.1407 101.91 42.1906C101.166 42.2427 100.604 42.8864 100.657 43.6304C100.907 47.258 99.4508 50.6133 97.4671 53.2198C97.1166 53.6797 96.7505 54.1159 96.3731 54.5271ZM94.1053 56.6044C93.9245 55.5959 93.6379 54.7058 93.2781 53.9723C93.0153 53.4371 92.7188 52.9981 92.3885 52.6946C92.2053 52.5253 92.0258 52.3924 91.8274 52.3777C91.6149 52.3629 91.4352 52.5182 91.2354 52.7355C90.9582 53.0387 90.7036 53.4642 90.4644 54.0111C89.8461 55.4172 89.5313 56.5209 89.4865 57.3667C89.4638 57.8018 89.4647 58.1255 89.6647 58.3025C89.7884 58.4108 89.9688 58.4148 90.1679 58.412C90.4441 58.4074 90.7483 58.3499 91.0735 58.2524C91.9979 57.9745 93.0461 57.4054 94.1053 56.6044Z" fill="#FDBE00"/>
</g>
<g id="Group_14">
<path id="Vector_12" fill-rule="evenodd" clip-rule="evenodd" d="M137.154 46.4673C130.822 46.8016 124.752 50.6077 120.971 56.3464C120.561 56.9689 120.734 57.8063 121.356 58.2166C121.979 58.6264 122.817 58.4544 123.227 57.8319C126.52 52.8304 131.777 49.4565 137.296 49.1649C138.04 49.1266 138.613 48.4893 138.573 47.7445C138.535 47.0011 137.899 46.429 137.154 46.4673Z" fill="#FDBE00"/>
</g>
<g id="Group_15">
<path id="Vector_13" fill-rule="evenodd" clip-rule="evenodd" d="M110.502 61.298C115.954 52.5073 118.225 41.9285 111.031 32.2342C110.588 31.635 109.742 31.509 109.143 31.9536C108.545 32.3959 108.42 33.2424 108.863 33.8416C115.306 42.5277 113.091 51.9984 108.207 59.8761C107.816 60.5086 108.01 61.3408 108.644 61.7332C109.276 62.1255 110.111 61.9305 110.502 61.298Z" fill="#7B5885"/>
</g>
<g id="Group_16">
<path id="Vector_14" d="M134.964 43.2199C137.422 43.2199 139.415 41.2269 139.415 38.7686C139.415 36.3102 137.422 34.3173 134.964 34.3173C132.506 34.3173 130.513 36.3102 130.513 38.7686C130.513 41.2269 132.506 43.2199 134.964 43.2199Z" fill="#FDBE00"/>
</g>
<g id="Group_17">
<path id="Vector_15" d="M49.9298 53.5987C52.3882 53.5987 54.3811 51.6058 54.3811 49.1474C54.3811 46.689 52.3882 44.6961 49.9298 44.6961C47.4714 44.6961 45.4785 46.689 45.4785 49.1474C45.4785 51.6058 47.4714 53.5987 49.9298 53.5987Z" fill="#FDBE00"/>
</g>
<g id="Group_18">
<path id="Vector_16" d="M120.085 136.894C122.543 136.894 124.536 134.901 124.536 132.442C124.536 129.984 122.543 127.991 120.085 127.991C117.627 127.991 115.634 129.984 115.634 132.442C115.634 134.901 117.627 136.894 120.085 136.894Z" fill="#F86394"/>
</g>
</g>
</g>
</g>
</g>
</svg>
