<svg width="150" height="180" viewBox="0 0 150 180" fill="none" xmlns="http://www.w3.org/2000/svg">
<g id="Frame" clip-path="url(#clip0_1969_1889)">
<path id="Vector" d="M43.5154 29.3081C23.5154 23.5581 13.0987 27.5581 8.59874 30.3915C5.43207 32.3915 3.43207 35.1415 3.0154 37.8081C2.68207 40.2248 3.43207 42.6415 5.2654 44.8081C9.59874 49.8915 18.8487 52.8915 30.7654 53.0581C58.7654 53.4748 67.6821 65.8915 68.7654 67.5581C73.1821 66.7248 76.9321 66.3915 79.4321 66.2248C77.0987 59.8915 66.6821 35.9748 43.5154 29.3081Z" fill="white"/>
<path id="Vector_2" d="M142.598 15.3916C139.681 11.7249 135.098 12.8082 131.765 14.3916C130.765 14.8916 129.598 14.8082 128.681 14.3082C127.681 13.8082 127.015 12.8082 126.848 11.7249C126.181 7.47488 123.515 4.22488 119.848 3.30821C114.515 1.97488 108.098 5.64154 102.348 13.3082C91.2646 28.0582 85.0146 60.3082 84.0146 66.1416C84.5146 66.1416 85.1813 66.1416 85.848 66.2249C87.7646 62.0582 91.848 59.0582 96.598 58.7249C101.765 41.9749 109.265 33.5582 112.015 30.8916C110.515 26.7249 109.848 22.0582 110.015 18.3082C110.015 17.6416 110.598 17.0582 111.348 17.1416C112.015 17.1416 112.598 17.7249 112.515 18.4749C112.265 26.1416 115.598 38.3082 123.598 40.2249C127.598 41.2249 134.848 35.6416 139.848 27.8082C143.098 22.3082 144.265 17.4749 142.598 15.3916Z" fill="white"/>
<path id="Vector_3" d="M140.598 119.392C137.598 114.475 136.265 109.892 135.015 105.392C132.848 97.8917 130.848 90.725 121.348 81.8082C118.015 78.6415 114.098 76.2248 110.098 74.3915C108.765 80.1415 103.681 84.475 97.5145 84.475C90.3479 84.475 84.5979 78.6415 84.5979 71.5582C84.5979 70.5582 84.6812 69.6415 84.9312 68.6415C83.8479 68.5582 83.0146 68.5582 82.5146 68.5582C72.5146 68.5582 52.4313 71.8082 40.9313 84.0583C34.5146 90.8917 33.2646 95.975 31.7646 101.892C30.5146 106.808 29.1813 112.392 24.3479 119.392C14.9313 133.142 16.6813 144.225 19.7646 151.142C29.5146 172.892 63.0979 176.642 82.3479 176.892H82.4313C101.681 176.642 135.348 172.892 145.098 151.142C149.348 141.892 147.765 131.225 140.598 119.392Z" fill="white"/>
<path id="Vector_4" d="M113.015 29.8916C113.015 29.8916 100.265 39.9749 94.3486 67.3916L98.5153 58.8083C98.5153 58.8083 110.015 42.6416 116.015 37.8083L113.015 29.8916Z" fill="#F04438"/>
<path id="Vector_5" d="M70.7646 62.3082C70.7646 62.3082 64.8479 46.9748 54.5979 39.3915C44.3479 31.8082 36.0146 30.5582 33.2646 35.4748C30.5979 40.3915 42.5979 42.8082 42.5979 42.8082C42.5979 42.8082 33.9313 42.7248 34.1813 46.6415C34.5979 53.8915 48.9313 43.6415 70.7646 62.3082Z" fill="#F04438"/>
<path id="Vector_6" d="M82.4321 178.225H82.5155M82.4321 178.225C66.8488 177.975 29.4321 175.558 18.7655 151.725C14.9321 143.142 14.5988 131.642 23.4321 118.725C33.5988 103.808 27.8488 96.225 40.0988 83.2249C52.0988 70.3916 72.6821 67.3916 82.5155 67.3916C91.6819 67.3916 110.349 69.7249 122.182 80.8916C137.765 95.5583 133.849 106.058 141.599 118.725C149.765 132.058 150.099 143.142 146.265 151.725C135.599 175.642 97.9319 177.975 82.4321 178.225Z" stroke="#151560" stroke-width="3" stroke-miterlimit="10" stroke-linecap="round" stroke-linejoin="round"/>
<path id="Vector_7" d="M81.1822 67.3082C81.1822 67.3082 71.5155 35.9749 43.8488 28.0582C16.1822 20.1415 2.93218 29.7249 1.76551 37.5582C0.598846 45.3915 9.76549 53.9749 30.7655 54.2249C59.7655 54.6415 67.7655 68.2249 67.7655 68.2249" stroke="#151560" stroke-width="3" stroke-miterlimit="10" stroke-linecap="round" stroke-linejoin="round"/>
<path id="Vector_8" d="M82.5156 66.8082C82.5156 66.8082 88.8487 29.0582 101.265 12.4749C114.099 -4.60844 126.515 1.30823 128.015 11.3915C128.265 12.8915 129.849 13.8082 131.182 13.1415C134.599 11.5582 140.015 10.1415 143.515 14.5582C148.932 21.3915 131.849 43.3915 123.099 41.2249C114.432 39.1415 110.765 26.5582 111.099 18.2249" stroke="#151560" stroke-width="3" stroke-miterlimit="10" stroke-linecap="round" stroke-linejoin="round"/>
<path id="Vector_9" d="M94.2646 67.7248C94.2646 67.7248 101.765 47.0581 116.765 37.1415" stroke="#151560" stroke-width="3" stroke-miterlimit="10" stroke-linecap="round" stroke-linejoin="round"/>
<path id="Vector_10" d="M97.5983 83.2249C104.042 83.2249 109.265 78.0016 109.265 71.5583C109.265 65.1149 104.042 59.8916 97.5983 59.8916C91.155 59.8916 85.9316 65.1149 85.9316 71.5583C85.9316 78.0016 91.155 83.2249 97.5983 83.2249Z" fill="#FDB022" stroke="#151560" stroke-width="3" stroke-miterlimit="10" stroke-linecap="round" stroke-linejoin="round"/>
<path id="Vector_11" d="M96.0146 68.3917L97.2646 66.0583" stroke="#151560" stroke-width="3" stroke-miterlimit="10" stroke-linecap="round" stroke-linejoin="round"/>
<path id="Vector_12" d="M101.682 71.1416L102.848 68.8916" stroke="#151560" stroke-width="3" stroke-miterlimit="10" stroke-linecap="round" stroke-linejoin="round"/>
<path id="Vector_13" d="M102.515 75.9749C101.515 77.0582 100.181 77.8082 98.6814 77.9749C95.098 78.4749 91.7647 75.9749 91.2647 72.3916C91.1814 71.6416 91.1814 70.9749 91.348 70.3082" stroke="#151560" stroke-width="3" stroke-miterlimit="10" stroke-linecap="round" stroke-linejoin="round"/>
<path id="Vector_14" d="M43.5154 29.3081C23.5154 23.5581 13.0987 27.5581 8.59874 30.3915C5.43207 32.3915 3.43207 35.1415 3.0154 37.8081C2.68207 40.2248 3.43207 42.6415 5.2654 44.8081C9.59874 49.8915 18.8487 52.8915 30.7654 53.0581C58.7654 53.4748 67.6821 65.8915 68.7654 67.5581C73.1821 66.7248 76.9321 66.3915 79.4321 66.2248C77.0987 59.8915 66.6821 35.9748 43.5154 29.3081Z" fill="white"/>
<path id="Vector_15" d="M142.598 15.3916C139.681 11.7249 135.098 12.8082 131.765 14.3916C130.765 14.8916 129.598 14.8082 128.681 14.3082C127.681 13.8082 127.015 12.8082 126.848 11.7249C126.181 7.47488 123.515 4.22488 119.848 3.30821C114.515 1.97488 108.098 5.64154 102.348 13.3082C91.2646 28.0582 85.0146 60.3082 84.0146 66.1416C84.5146 66.1416 85.1813 66.1416 85.848 66.2249C87.7646 62.0582 91.848 59.0582 96.598 58.7249C101.765 41.9749 109.265 33.5582 112.015 30.8916C110.515 26.7249 109.848 22.0582 110.015 18.3082C110.015 17.6416 110.598 17.0582 111.348 17.1416C112.015 17.1416 112.598 17.7249 112.515 18.4749C112.265 26.1416 115.598 38.3082 123.598 40.2249C127.598 41.2249 134.848 35.6416 139.848 27.8082C143.098 22.3082 144.265 17.4749 142.598 15.3916Z" fill="white"/>
<path id="Vector_16" d="M140.598 119.392C137.598 114.475 136.265 109.892 135.015 105.392C132.848 97.8917 130.848 90.725 121.348 81.8082C118.015 78.6415 114.098 76.2248 110.098 74.3915C108.765 80.1415 103.681 84.475 97.5145 84.475C90.3479 84.475 84.5979 78.6415 84.5979 71.5582C84.5979 70.5582 84.6812 69.6415 84.9312 68.6415C83.8479 68.5582 83.0146 68.5582 82.5146 68.5582C72.5146 68.5582 52.4313 71.8082 40.9313 84.0583C34.5146 90.8917 33.2646 95.975 31.7646 101.892C30.5146 106.808 29.1813 112.392 24.3479 119.392C14.9313 133.142 16.6813 144.225 19.7646 151.142C29.5146 172.892 63.0979 176.642 82.3479 176.892H82.4313C101.681 176.642 135.348 172.892 145.098 151.142C149.348 141.892 147.765 131.225 140.598 119.392Z" fill="white"/>
<path id="Vector_17" d="M113.015 29.8916C113.015 29.8916 100.265 39.9749 94.3486 67.3916L98.5153 58.8083C98.5153 58.8083 110.015 42.6416 116.015 37.8083L113.015 29.8916Z" fill="#F04438"/>
<path id="Vector_18" d="M70.7646 62.3082C70.7646 62.3082 64.8479 46.9748 54.5979 39.3915C44.3479 31.8082 36.0146 30.5582 33.2646 35.4748C30.5979 40.3915 42.5979 42.8082 42.5979 42.8082C42.5979 42.8082 33.9313 42.7248 34.1813 46.6415C34.5979 53.8915 48.9313 43.6415 70.7646 62.3082Z" fill="#F04438"/>
<path id="Vector_19" d="M82.4321 178.225H82.5155M82.4321 178.225C66.8488 177.975 29.4321 175.558 18.7655 151.725C14.9321 143.142 14.5988 131.642 23.4321 118.725C33.5988 103.808 27.8488 96.225 40.0988 83.2249C52.0988 70.3916 72.6821 67.3916 82.5155 67.3916C91.6819 67.3916 110.349 69.7249 122.182 80.8916C137.765 95.5583 133.849 106.058 141.599 118.725C149.765 132.058 150.099 143.142 146.265 151.725C135.599 175.642 97.9319 177.975 82.4321 178.225Z" stroke="#151560" stroke-width="3" stroke-miterlimit="10" stroke-linecap="round" stroke-linejoin="round"/>
<path id="Vector_20" d="M81.1822 67.3082C81.1822 67.3082 71.5155 35.9749 43.8488 28.0582C16.1822 20.1415 2.93218 29.7249 1.76551 37.5582C0.598846 45.3915 9.76549 53.9749 30.7655 54.2249C59.7655 54.6415 67.7655 68.2249 67.7655 68.2249" stroke="#151560" stroke-width="3" stroke-miterlimit="10" stroke-linecap="round" stroke-linejoin="round"/>
<path id="Vector_21" d="M82.5156 66.8082C82.5156 66.8082 88.8487 29.0582 101.265 12.4749C114.099 -4.60844 126.515 1.30823 128.015 11.3915C128.265 12.8915 129.849 13.8082 131.182 13.1415C134.599 11.5582 140.015 10.1415 143.515 14.5582C148.932 21.3915 131.849 43.3915 123.099 41.2249C114.432 39.1415 110.765 26.5582 111.099 18.2249" stroke="#151560" stroke-width="3" stroke-miterlimit="10" stroke-linecap="round" stroke-linejoin="round"/>
<path id="Vector_22" d="M94.2646 67.7248C94.2646 67.7248 101.765 47.0581 116.765 37.1415" stroke="#151560" stroke-width="3" stroke-miterlimit="10" stroke-linecap="round" stroke-linejoin="round"/>
<path id="Vector_23" d="M97.5983 83.2249C104.042 83.2249 109.265 78.0016 109.265 71.5583C109.265 65.1149 104.042 59.8916 97.5983 59.8916C91.155 59.8916 85.9316 65.1149 85.9316 71.5583C85.9316 78.0016 91.155 83.2249 97.5983 83.2249Z" fill="#FDB022" stroke="#151560" stroke-width="3" stroke-miterlimit="10" stroke-linecap="round" stroke-linejoin="round"/>
<path id="Vector_24" d="M96.0146 68.3917L97.2646 66.0583" stroke="#151560" stroke-width="3" stroke-miterlimit="10" stroke-linecap="round" stroke-linejoin="round"/>
<path id="Vector_25" d="M101.682 71.1416L102.848 68.8916" stroke="#151560" stroke-width="3" stroke-miterlimit="10" stroke-linecap="round" stroke-linejoin="round"/>
<path id="Vector_26" d="M102.515 75.9749C101.515 77.0582 100.181 77.8082 98.6814 77.9749C95.098 78.4749 91.7647 75.9749 91.2647 72.3916C91.1814 71.6416 91.1814 70.9749 91.348 70.3082" stroke="#151560" stroke-width="3" stroke-miterlimit="10" stroke-linecap="round" stroke-linejoin="round"/>
<path id="Vector_27" d="M92.0837 143.922C86.8337 140.505 78.2503 143.505 76.667 150.172" stroke="#151560" stroke-width="3" stroke-miterlimit="10" stroke-linecap="round" stroke-linejoin="round"/>
<path id="Vector_28" d="M112.5 114.167C113.5 118.083 119 120.333 122.667 117.833" stroke="#151560" stroke-width="3" stroke-miterlimit="10" stroke-linecap="round" stroke-linejoin="round"/>
<path id="Vector_29" d="M53.4997 114.167C52.4997 118.083 46.9997 120.333 43.333 117.833" stroke="#151560" stroke-width="3" stroke-miterlimit="10" stroke-linecap="round" stroke-linejoin="round"/>
<path id="Vector_30" d="M85.6669 136.167L83.7502 138.333C83.5002 138.583 83.0835 138.583 82.8335 138.417L80.6668 136.5C80.1668 136 80.0002 135.167 80.4168 134.583C80.9168 133.917 81.8335 133.833 82.5002 134.333L83.0835 134.833L83.5836 134.25C84.1669 133.667 85.0836 133.667 85.6669 134.25C86.2502 134.75 86.1669 135.667 85.6669 136.167Z" fill="#F04438"/>
<path id="Vector_31" d="M75.0828 132.333C77.8328 132.167 84.9996 131.75 91.2496 132.25C91.6662 132.25 91.9162 132.083 91.6662 132C90.8329 131.583 88.6662 129.833 83.1661 129.833C78.6661 129.833 75.9162 131.667 74.6662 132.083C74.4162 132.167 74.6662 132.417 75.0828 132.333Z" fill="#EAECF0"/>
<g id="Group" filter="url(#filter0_f_1969_1889)">
<path id="Vector_32" d="M43.333 152.167C48.8559 152.167 53.333 147.69 53.333 142.167C53.333 136.644 48.8559 132.167 43.333 132.167C37.8102 132.167 33.333 136.644 33.333 142.167C33.333 147.69 37.8102 152.167 43.333 152.167Z" fill="#FDA29B"/>
</g>
<g id="Group_2" filter="url(#filter1_f_1969_1889)">
<path id="Vector_33" d="M123.333 152.167C128.856 152.167 133.333 147.69 133.333 142.167C133.333 136.644 128.856 132.167 123.333 132.167C117.81 132.167 113.333 136.644 113.333 142.167C113.333 147.69 117.81 152.167 123.333 152.167Z" fill="#FDA29B"/>
</g>
<path id="Vector_34" d="M53.9996 137.667C58.648 137.667 62.4163 133.898 62.4163 129.25C62.4163 124.602 58.648 120.833 53.9996 120.833C49.3513 120.833 45.583 124.602 45.583 129.25C45.583 133.898 49.3513 137.667 53.9996 137.667Z" fill="#151560"/>
<path id="Vector_35" d="M57.6667 128.333C58.8632 128.333 59.8333 127.363 59.8333 126.167C59.8333 124.97 58.8632 124 57.6667 124C56.47 124 55.5 124.97 55.5 126.167C55.5 127.363 56.47 128.333 57.6667 128.333Z" fill="white"/>
<path id="Vector_36" d="M53.9167 129.917C54.2848 129.917 54.5833 129.618 54.5833 129.25C54.5833 128.882 54.2848 128.583 53.9167 128.583C53.5485 128.583 53.25 128.882 53.25 129.25C53.25 129.618 53.5485 129.917 53.9167 129.917Z" fill="white"/>
<path id="Vector_37" d="M111.667 137.667C116.315 137.667 120.083 133.898 120.083 129.25C120.083 124.602 116.315 120.833 111.667 120.833C107.018 120.833 103.25 124.602 103.25 129.25C103.25 133.898 107.018 137.667 111.667 137.667Z" fill="#151560"/>
<path id="Vector_38" d="M115.25 128.333C116.446 128.333 117.416 127.363 117.416 126.167C117.416 124.97 116.446 124 115.25 124C114.053 124 113.083 124.97 113.083 126.167C113.083 127.363 114.053 128.333 115.25 128.333Z" fill="white"/>
<path id="Vector_39" d="M111 130.833C111.368 130.833 111.666 130.535 111.666 130.167C111.666 129.798 111.368 129.5 111 129.5C110.631 129.5 110.333 129.798 110.333 130.167C110.333 130.535 110.631 130.833 111 130.833Z" fill="white"/>
</g>
<defs>
<filter id="filter0_f_1969_1889" x="26.733" y="125.567" width="33.2" height="33.2" filterUnits="userSpaceOnUse" color-interpolation-filters="sRGB">
<feFlood flood-opacity="0" result="BackgroundImageFix"/>
<feBlend mode="normal" in="SourceGraphic" in2="BackgroundImageFix" result="shape"/>
<feGaussianBlur stdDeviation="3.3" result="effect1_foregroundBlur_1969_1889"/>
</filter>
<filter id="filter1_f_1969_1889" x="106.733" y="125.567" width="33.2" height="33.2" filterUnits="userSpaceOnUse" color-interpolation-filters="sRGB">
<feFlood flood-opacity="0" result="BackgroundImageFix"/>
<feBlend mode="normal" in="SourceGraphic" in2="BackgroundImageFix" result="shape"/>
<feGaussianBlur stdDeviation="3.3" result="effect1_foregroundBlur_1969_1889"/>
</filter>
<clipPath id="clip0_1969_1889">
<rect width="150" height="180" fill="white"/>
</clipPath>
</defs>
</svg>
