<svg xmlns="http://www.w3.org/2000/svg" width="80" height="80" viewBox="0 0 80 80" fill="none">
  <path d="M40 59C59.2264 59 74.8125 56.8454 74.8125 54.1875C74.8125 51.5296 59.2264 49.375 40 49.375C20.7736 49.375 5.1875 51.5296 5.1875 54.1875C5.1875 56.8454 20.7736 59 40 59Z" fill="#7BCCFF"/>
  <path d="M28 61.8125C39.1492 61.8125 48.1875 60.5533 48.1875 59C48.1875 57.4467 39.1492 56.1875 28 56.1875C16.8507 56.1875 7.8125 57.4467 7.8125 59C7.8125 60.5533 16.8507 61.8125 28 61.8125Z" fill="#7BCCFF"/>
  <path d="M57.5625 63C63.8447 63 68.9375 62.3004 68.9375 61.4375C68.9375 60.5746 63.8447 59.875 57.5625 59.875C51.2803 59.875 46.1875 60.5746 46.1875 61.4375C46.1875 62.3004 51.2803 63 57.5625 63Z" fill="#7BCCFF"/>
  <path d="M14.2502 46.5626L14.4377 49.6251L17.5002 51.3751L17.5627 51.8751C19.8127 51.5001 22.2502 51.6876 24.5002 51.9376C27.1877 52.2501 29.4377 53.1876 31.9377 54.0626C34.3752 54.8751 36.8127 54.8126 39.3752 54.8126C45.0627 54.7501 50.1877 53.0001 55.8127 52.4376C58.0627 52.2501 60.3752 52.1251 62.6877 52.3126L64.6877 46.0626L66.6877 45.7501L67.9377 44.2501L71.0002 41.6876L72.3127 34.1876L72.1877 33.0001C72.1877 33.0001 71.9377 32.0001 71.5627 31.4376C71.1877 30.8126 70.3127 29.9376 70.3127 29.9376L69.1252 28.8126L67.0002 27.3126C67.0002 27.3126 66.1252 26.7501 64.4377 26.0626C62.7502 25.3751 62.0627 25.3751 62.0627 25.3751H60.7502L58.6877 25.4376L57.1877 25.5001L54.4377 25.3126L53.3752 25.0001C53.3752 25.0001 53.0627 24.7501 52.7502 24.3126C52.4377 23.8751 51.6252 23.6251 51.6252 23.6251L49.9377 23.2501C45.9377 22.3751 41.6877 21.5626 37.5627 22.3126C35.5627 22.6876 33.5627 23.1876 31.5627 22.9376C29.8127 22.7501 29.2502 23.1876 27.6877 23.6251C26.7502 23.8751 25.9377 24.4376 25.9377 24.4376L22.8127 24.6251C22.8127 24.6251 21.7502 24.6251 19.6877 24.7501C17.5627 24.8751 16.6252 25.5626 16.6252 25.5626L14.8127 26.7501L14.0627 26.9376L12.0627 28.5626L9.62516 30.5001L7.93767 32.6251C7.93767 32.6251 7.00016 34.3126 6.56266 35.3751C6.12516 36.4376 6.18766 37.6251 6.18766 37.6251L8.62515 39.6876L8.81266 42.1876L12.2502 45.4376L14.2502 46.5626Z" fill="#5F2069"/>
  <path d="M60 51L60.125 52.1875C61 52.1875 61.875 52.1875 62.75 52.25L64.75 46C64.75 46 63.25 45 62.75 44.0625C62.25 43.1875 61.8125 42.75 61.8125 42.75L59.8125 43.1875L57.875 49.375L58.3125 50.8125L60 51Z" fill="#4B1454"/>
  <path d="M40.875 54.125L39.875 54.4375L35.4375 53.6875L36.5 54.75C37.5 54.8125 38.5 54.8125 39.5 54.75C42.5 54.75 45.375 54.1875 48.25 53.625L49.875 52.6875L49.75 52.0625L49.1875 51.4375L50.875 48.9375L48.3125 48.4375L45.75 47.5L45 45.0625L41.875 45.1875L39.625 46.75L40.625 48.6875L42.75 51.25L41.4375 51.375L40.875 54.125Z" fill="#8A4582"/>
  <path d="M14.25 46.5625L14.4375 49.625C14.4375 49.625 17.5625 51.375 17.75 51.4375C17.8125 51.4375 18.1875 51.625 18.625 51.8125C18.9375 51.8125 19.25 51.75 19.5625 51.75L17.625 47.6875L16.75 45.125L13.0625 43.875L12.5625 41.8125L11.6875 41.4375L10.375 42.4375L9.75 42.8125L12.4375 45.625L14.25 46.5625Z" fill="#4B1454"/>
  <path d="M11.625 39C12.4375 39.1875 13.1875 39.4375 13.9375 39.75C16 40.625 17.8125 42.125 20.0625 42.4375C20.625 42.5 21.25 42.5 21.8125 42.75C22.5 43.0625 22.875 43.75 23.1875 44.375C23.4375 44.8125 23.6875 45.3125 23.6875 45.8125C23.75 46.6875 23.25 47.5625 22.8125 48.3125C22.3125 48.375 21.8125 48.5 21.25 48.5625C20.875 49.3125 20.5 50.0625 20.0625 50.75C19.9375 50.9375 19.875 51.125 19.8125 51.3125C19.8125 51.4375 19.875 51.5625 19.875 51.625C21.4375 51.5625 22.9375 51.6875 24.4375 51.875C26 52.0625 27.375 52.4375 28.75 52.9375C28.5 50.6875 27.75 48.375 28.125 46.125C27.5625 46 27 45.875 26.375 45.75C26.125 44.9375 25.8125 44.125 25.5625 43.3125C25.5 43.125 25.4375 42.9375 25.3125 42.8125C25.1875 42.6875 24.9375 42.5625 24.75 42.5C23.0625 41.8125 21.3125 41.125 19.4375 41.1875C18.6875 41.1875 17.8125 41.3125 17.3125 40.875C17.125 40.6875 16.9375 40.4375 16.6875 40.3125C16.4375 40.1875 16.0625 40.1875 15.8125 40.0625C15.625 39.9375 15.5625 39.75 15.4375 39.625C15.1875 39.375 14.75 39.25 14.375 39.1875C13.375 38.9375 12.4375 38.4375 11.6875 37.8125C11.4375 38.25 11.3125 38.75 11.25 39.1875C11.3125 39.0625 11.375 38.875 11.375 38.75L11.625 39Z" fill="#8A4582"/>
  <path d="M29.1252 53C30.0627 53.3125 31.0002 53.6875 32.0002 54C32.8127 54.25 33.6252 54.4375 34.4377 54.5625C34.2502 54.3125 34.1252 54.0625 33.9377 53.8125C32.6877 51.5625 31.8127 49.1875 31.3752 46.75L31.3127 46.6875C30.3752 46.3125 29.3127 46.0625 28.3127 46.0625C28.1877 48.4375 28.4377 50.75 29.1252 53Z" fill="#4B1454"/>
  <path d="M59.5 44.0625C59.1875 44.0625 58.875 44.125 58.5 44.125C58.375 44.125 58.3125 44.125 58.1875 44.1875C58.125 44.25 58.0625 44.3125 58 44.3125C57.375 44.875 56.75 45.4375 56.125 46C56.4375 45.375 56.6875 44.75 56.875 44.125C56.875 44 56.9375 43.9375 57 43.8125C57.125 43.6875 57.25 43.625 57.4375 43.5625C58.25 43.25 59.125 43.0625 60.0625 43C59.875 43.4375 59.6875 43.75 59.5 44.0625Z" fill="#27002E"/>
  <path d="M28.9999 53C29.0624 51.8125 29.2499 50.5625 29.6249 49.4375C29.6874 49.1875 29.8124 48.9375 29.9999 48.875C30.4374 48.6875 30.8124 49.125 31.0624 49.5C31.9374 51.0625 32.8749 52.5625 33.7499 54.125L34.0624 54.4375C32.9374 52.0625 31.9999 49.625 31.3124 47.125C31.2499 47 31.2499 46.8125 31.0624 46.75C30.9999 46.6875 30.8749 46.6875 30.8124 46.6875C29.9999 46.625 29.1874 46.5 28.3749 46.4375C28.2499 48.625 28.4374 50.8125 28.8749 53C28.9374 52.9375 28.9374 53 28.9999 53Z" fill="#27002E"/>
  <path d="M55.375 47C54.3125 47.75 53.25 48.5625 52.1875 49.3125C51.8125 49.5625 51.5 49.8125 51.1875 50.1875C50.9375 50.5 50.75 50.875 50.625 51.1875C50.375 51.75 50.125 52.3125 49.9375 52.875C49.75 52.5625 49.5625 52.1875 49.375 51.875C49.3125 51.75 49.25 51.625 49.1875 51.4375C49.125 51.0625 49.4375 50.6875 49.6875 50.375C48.375 49.4375 47.0625 48.4375 45.8125 47.4375C47.375 48.375 49.3125 48.625 51.1875 48.875C51.5 48.9375 51.8125 48.9375 52.125 48.875C52.375 48.8125 52.625 48.625 52.875 48.5C53.625 48 54.4375 47.4375 55.1875 46.9375L55.375 47Z" fill="#4B1454"/>
  <path d="M39.5625 47C38.625 49.25 37.6875 51.4375 36.75 53.6875C37.6875 54 38.8125 54.25 39.625 53.75C40.5 53.125 40.5625 51.75 41.6875 51.4375C42.1875 51.3125 42.75 51.5 43.25 51.3125C41.5625 50.1875 40.25 48.625 39.5625 46.875C39.5625 46.8125 39.5 46.75 39.4375 46.8125C39.375 46.8125 39.4375 46.875 39.4375 46.875L39.5625 47Z" fill="#27002E"/>
  <path d="M41.3125 51.4375C40.4375 52.3125 39.625 53.1875 38.8125 54.125C39.4375 54.3125 40.1875 54.375 40.875 54.3125C40.9375 54.3125 41 54.3125 41 54.25C41.0625 54.1875 41.0625 54.125 41.0625 54.0625C41.125 53.1875 41.1875 52.3125 41.375 51.4375H41.3125Z" fill="#4B1454"/>
  <path d="M46.8125 44.0625L47.8125 45.9375L45.6875 47.5625L45.1875 46L45 45.125L46.8125 44.0625Z" fill="#4B1454"/>
  <path d="M46.8125 43.75L51.25 43.6875L55.375 42.8125L57 43.9375L56.0625 45.6875L52.625 46.4375L49.9375 46.125L47.8125 45.9375L46.8125 43.75Z" fill="#8A4582"/>
  <path d="M18.125 42.5625L16.75 45.0625C16.75 45.0625 12.8125 43.9375 13.0625 43.8125C13.25 43.6875 12.5625 41.75 12.5625 41.75L13.625 39.875C13.625 39.875 17.6875 41.3125 18.125 42.5625Z" fill="#8A4582"/>
  <path d="M11.8125 37.375L8.8125 39.5625L6.375 37.5C6.375 37.5 6.81249 36.375 8.12499 35.8125C9.43749 35.25 9.5 35.0625 9.5 35.0625C9.5 35.0625 9.93749 36.4375 11.8125 37.375Z" fill="#4B1454"/>
  <path d="M35.1875 43.375L26.5625 42.6875L27.1875 45.375L36.0625 46.3125L37 44.5C37 44.5 35.8125 44.375 35.5 44.0625C35.125 43.6875 35.1875 43.375 35.1875 43.375Z" fill="#8A4582"/>
  <path d="M58.4375 39.875C57.875 41 56.8125 42 55.5 42.5C55.9375 42.9375 56.5 43.3125 57.0625 43.5625C57.125 43.5625 57.125 43.625 57.1875 43.625C57.25 43.625 57.375 43.5625 57.4375 43.5625C58.125 43.125 59 42.9375 59.8125 42.9375C59.875 42.3125 60 41.6875 60.25 41.125C59.5625 40.8125 58.9375 40.375 58.4375 39.875C58.4375 39.9375 58.375 40 58.375 40.0625L58.4375 39.875Z" fill="#4B1454"/>
  <path d="M56.5 39.625C55.75 40.375 55.25 41.375 55.0625 42.4375C55.0625 42.5 55.0625 42.625 55 42.6875C55 42.75 54.9375 42.75 54.875 42.8125C54.5625 43 54.1875 43 53.8125 42.875C53.5 42.75 53.1875 42.5625 53 42.3125C52.875 42.1875 52.8125 42.0625 52.8125 41.875C52.8125 41.75 52.9375 41.625 53.0625 41.5C53.6875 40.875 54.4375 40.375 55.1875 39.9375C55.6875 39.6875 56.25 39.4375 56.8125 39.625H56.5Z" fill="#8A4582"/>
  <path d="M36.8124 43.5624C37.1249 42.9374 37.4999 43.1249 37.9999 42.8124C38.1249 42.7499 38.1874 42.6249 38.3749 42.6249C38.4999 42.5624 38.6249 42.6249 38.7499 42.6249C39.2499 42.7499 40.1249 43.2499 40.1249 43.8124C40.1249 43.9999 39.9374 44.1249 39.7499 44.2499C38.9374 44.6249 37.9999 44.4374 37.1249 44.1874C37.0624 44.1874 36.9999 44.1249 36.9374 44.1249C36.6249 43.9374 36.6874 43.6874 36.8124 43.5624Z" fill="#8A4582"/>
  <path d="M10.1873 35.2496C9.49976 34.4371 10.0623 33.5621 11.1248 33.9996C11.9373 34.3121 12.5623 34.8746 12.9373 35.5621C13.1248 35.9371 13.2498 36.4371 12.8748 36.6246C12.5623 36.8121 12.1248 36.6871 11.8123 36.4996C11.1873 36.2496 10.6248 35.8121 10.1873 35.2496Z" fill="#8A4582"/>
  <path d="M23.25 44.875C23 44.125 22.625 43.25 21.8125 42.875C21.5625 42.75 21.3125 42.6875 21 42.625C20.375 42.5 19.8125 42.3125 19.1875 42.1875C18.875 42.125 18.5625 42.0625 18.3125 42.25C18.1875 42.3125 18.125 42.4375 18.0625 42.5625C17.625 43.3125 17.25 44.125 16.8125 44.875C16.75 45 16.6875 45.0625 16.6875 45.1875C16.6875 45.25 16.75 45.3125 16.75 45.4375C17 45.875 17.25 46.3125 17.5 46.75C19.5 46.0625 21.4375 45.4375 23.25 44.875Z" fill="#4B1454"/>
  <path d="M36.0625 46.4375C35.3125 47.25 34.5625 48 33.8125 48.8125C33.6875 48.9375 33.5625 49.0625 33.5 49.25C33.4375 49.4375 33.4375 49.625 33.4375 49.875C33.4375 50.75 33.4375 51.6875 33.4375 52.5625C32.5 50.6875 31.75 48.75 31.3125 46.75C32.75 46.75 34.25 46.6875 35.6875 46.4375C35.875 46.4375 36.125 46.375 36.3125 46.375L36.0625 46.4375Z" fill="#4B1454"/>
  <path d="M64.6875 46.125C63.5 45.8125 62.375 45.5625 61.1875 45.3125C61.0625 45.3125 61 45.25 60.875 45.3125C60.75 45.3125 60.6875 45.375 60.625 45.4375C59.875 46.125 59.1875 46.8125 58.4375 47.5C59 46.125 59.4375 44.625 59.6875 43.1875C60.5625 43.0625 61.375 42.875 62.1875 42.5625C62.8125 43.875 63.6875 45.0625 64.6875 46.125Z" fill="#27002E"/>
  <path d="M68.8125 43.375C68.75 42.0625 68.6875 40.6875 68.625 39.375C68.625 39.0625 68.625 38.8125 68.6875 38.5C68.75 38.3125 68.875 38.125 69 37.9375C70 36.5625 71.125 35.25 72.375 34.0625C72.5625 34.4375 72.4375 34.875 72.375 35.25C71.9375 37.25 71.5 39.3125 71.0625 41.3125C71 41.5 71 41.6875 70.875 41.8125C70.75 42 70.5625 42.125 70.375 42.25C69.6875 42.6875 69.125 43.25 68.6875 43.875L68.8125 43.375Z" fill="#8A4582"/>
  <path d="M9.4375 34.9375C8.625 35.1875 7.875 35.5625 7.25 36.125C7.375 35 7.49999 33.8125 8.06249 32.8125C8.43749 32.125 8.99999 31.5 9.56249 30.875C9.62499 31.3125 9.625 31.75 9.6875 32.1875C9.6875 32.25 9.6875 32.3125 9.6875 32.4375C9.6875 32.5625 9.5625 32.625 9.5 32.6875C9.25 33.0625 9.31249 33.625 9.62499 33.9375C9.24999 34.25 9.12499 34.75 9.24999 35.1875C9.31249 35.1875 9.375 35.1875 9.5 35.1875L9.4375 34.9375Z" fill="#8A4582"/>
  <path d="M57.25 49.75L54.875 48.875L56.125 45.6875L58.25 44.1875L59.5 44.0625C59.5 44.0625 58.25 48.1875 57.25 49.75Z" fill="#8A4582"/>
  <path d="M55.9375 52.4375C57.3125 52.3125 58.6875 52.25 60.0625 52.25C59.9375 51.875 59.875 51.4375 59.75 51.0625L59.8125 51C58.75 50.875 57.6875 50.6875 56.625 50.375C56.9375 50.75 57.125 51.25 57.25 51.6875C56.875 51.9375 56.4375 52.1875 55.9375 52.4375Z" fill="#8A4582"/>
  <path d="M11.5625 30.1875C12.75 28.8125 14.4375 27.75 16.1875 26.9375C19.875 25.125 24 26.1875 27.9375 25.25C34.5 23.6875 41.625 22.5625 48.4375 23.6875C50.3125 24 51.625 25.0625 53.375 25.625C54.6875 26 56.0625 26.0625 57.4375 25.8125C58.0625 25.6875 58.8125 25.5 59.375 25.8125C59.5625 25.9375 59.6875 26.0625 59.8125 26.125C60.5 26.625 61.5 26.375 62.375 26.375C65.125 26.25 67.5 28 69.1875 29.9375C70 30.875 70.6875 31.9375 70.6875 33.125C70.625 34.8125 69.0625 36.1875 67.5625 37.25C67.25 36.875 66.625 36.8125 66.1875 37C65.6875 37.1875 65.375 37.5 65 37.8125C64.8125 38 64.6875 38.1875 64.6875 38.375C64.6875 38.625 64.9375 38.8125 65.1875 38.75C64.125 40 62.6875 41 61.0625 41.625C60.3125 40.8125 59.4375 40.125 58.4375 39.5C58.125 39.3125 57.75 39.125 57.375 39.0625C56.25 38.9375 55.4375 39.8125 54.625 40.5C52.625 42.125 49.6875 42.4375 47 42.6875C45.375 42.875 43.6875 43.1875 42.125 42.75C40.5 42.3125 39.1875 42 37.4375 42.1875C34.75 42.4375 32.375 42.5 29.6875 42.25C27.625 42.0625 25.75 41.6875 23.75 41.3125C23.1875 41.1875 22.5625 41.0625 22.125 40.6875C21.1875 39.875 19.9375 39.8125 18.6875 39.5C18.25 39.375 17.8125 39.3125 17.4375 39.1875C16.125 38.875 14.8125 38.5 13.5 38.125C13.3125 38.0625 13.0625 38 13 37.8125C12.875 37.5625 13.125 37.3125 13.3125 37.0625C13.75 36.375 13.25 35.4375 12.8125 34.75C12.3125 33.9375 11.875 33.625 10.75 33.6875C11.1875 33.375 11.25 32.75 11 32.3125C10.875 32.125 10.6875 32 10.6875 31.75C10.6875 31.625 10.75 31.5 10.8125 31.4375C10.9375 31 11.1875 30.625 11.5625 30.1875Z" fill="#C1789C"/>
  <path d="M72.4372 33.0625C72.7497 35.8125 71.7497 38.875 71.1872 41.5625C71.1247 41.75 70.7497 41.6875 70.8122 41.5C71.1247 40.125 71.3747 38.6875 71.6247 37.3125C71.8747 35.875 71.9372 34.4375 72.4372 33.0625Z" fill="#C1789C"/>
  <path d="M71.1249 41.75C69.6874 43 68.4374 44.3125 67.0624 45.625C66.9374 45.75 66.6874 45.5625 66.8124 45.4375C67.9374 44 69.4374 42.6875 70.9999 41.625C71.0624 41.5 71.2499 41.625 71.1249 41.75Z" fill="#C1789C"/>
  <path d="M66.9372 45.6874C65.3747 45.0624 64.3747 43.2499 63.9372 41.8749C63.8747 41.6874 64.2497 41.5624 64.3122 41.8124C64.5622 42.5624 64.9372 43.3124 65.4372 43.9999C65.8747 44.5624 66.4997 45.0624 66.9372 45.6874Z" fill="#17001D"/>
  <path d="M63 52.3124C63.6875 50.2499 64.375 48.1874 65.0625 46.0624C65.125 45.8749 64.8125 45.8124 64.75 45.9999C64.0625 48.1249 63.375 50.1874 62.6875 52.3124C62.75 52.3124 62.875 52.3124 63 52.3124Z" fill="#8A4582"/>
  <path d="M34.125 54.5625C34.25 54.5625 34.375 54.625 34.4375 54.625C34.0625 53.4375 33.3125 52.3125 32.8125 51.1875C32.25 49.75 31.75 48.25 31.5625 46.75C31.5 46.4375 30.9375 46.4375 31 46.75C31.25 48.3125 31.6875 49.8125 32.3125 51.3125C32.8125 52.375 33.3125 53.5625 34.125 54.5625Z" fill="#17001D"/>
  <path d="M37.3128 44.375C37.2503 44.6875 37.0003 45 36.8753 45.25C36.6878 45.5625 36.5003 45.875 36.3128 46.25C36.1878 46.4375 35.8128 46.25 35.9378 46.0625C36.2503 45.5 36.6253 44.6875 37.3128 44.375Z" fill="#17001D"/>
  <path d="M36.25 46.625C33 47.0625 29.75 47 26.5625 46.25C26.1875 46.1875 26.375 45.6875 26.6875 45.75C29.8125 46.375 32.9375 46.5625 36.125 46.25C36.4375 46.1875 36.5 46.5625 36.25 46.625Z" fill="#17001D"/>
  <path d="M26.5627 45.9375C25.8127 45.25 25.5627 43.9375 25.3127 43C25.2502 42.75 25.6877 42.625 25.7502 42.875C25.9377 43.4375 26.0627 43.9375 26.2502 44.5C26.4377 44.9375 26.6252 45.4375 26.5627 45.9375Z" fill="#17001D"/>
  <path d="M29.1879 53.0625C28.6879 50.9375 28.5629 48.8125 28.5004 46.625C28.5004 46.5 28.3129 46.5 28.2504 46.625C27.9379 48.6875 28.1879 50.9375 28.7504 52.9375C28.8754 52.9375 29.0004 53 29.1879 53.0625Z" fill="#17001D"/>
  <path d="M19.4375 51.6875C19.625 51.6875 19.875 51.6875 20.0625 51.6875C19 49.5 17.8125 47.3125 16.9375 45C16.875 44.75 16.375 44.875 16.5 45.125C17.3125 47.25 18.25 49.625 19.4375 51.6875Z" fill="#251A05"/>
  <path d="M16.9374 45.1249C16.3124 45.1249 15.7499 44.8749 15.1874 44.6874C14.5624 44.4999 13.9999 44.3749 13.3749 44.1249C13.1249 43.9999 13.3124 43.6874 13.5624 43.7499C14.1874 43.8749 14.7499 44.0624 15.3749 44.3124C15.8749 44.5624 16.4999 44.7499 16.9374 45.1249Z" fill="#17001D"/>
  <path d="M13.2502 44.0624C12.8127 43.3749 12.6877 42.6249 12.4377 41.8749C12.3752 41.6874 12.7502 41.5624 12.8127 41.8124C13.0002 42.4999 13.2502 43.3124 13.2502 44.0624Z" fill="#17001D"/>
  <path d="M18.25 51.8122C18.5 51.8122 18.6875 51.7497 18.9375 51.7497C18.375 51.4372 17.75 51.1872 17.1875 50.8747C16.3125 50.4372 15.5 49.9372 14.625 49.4997C14.4375 49.4372 14.25 49.6247 14.4375 49.7497C15.4375 50.4997 16.8125 51.3122 18.25 51.8122Z" fill="#17001D"/>
  <path d="M14.2497 46.625C12.1872 45.4375 10.4372 43.8125 8.93722 42.0625C8.81222 41.9375 8.99973 41.8125 9.12473 41.9375C10.6247 43.6875 12.4372 45.125 14.2497 46.625Z" fill="#17001D"/>
  <path d="M8.87501 42.1875C8.81251 41.4375 8.75 40.625 8.75 39.875C8.75 39.75 8.93749 39.75 8.93749 39.875C8.99999 40.625 9 41.4375 9.0625 42.1875C9.0625 42.25 8.87501 42.25 8.87501 42.1875Z" fill="#17001D"/>
  <path d="M9.06221 39.7497C8.06221 39.1872 7.24972 38.3747 6.37472 37.6872C6.24972 37.5622 6.43721 37.3747 6.56221 37.4997C7.37471 38.1872 8.37471 38.8747 9.06221 39.7497Z" fill="#17001D"/>
  <path d="M6.25 37.4999C6.6875 32.8124 10.0625 29.5624 14.1875 26.8124C14.3125 26.7499 14.5 26.8749 14.375 26.9374C10.5 29.8749 7 32.6874 6.5625 37.4374C6.5 37.6249 6.25 37.6249 6.25 37.4999Z" fill="#C1789C"/>
  <path d="M59.8748 43.25C59.6873 45.4375 58.6873 47.75 57.7498 49.75C57.6248 50 57.2498 49.8125 57.3748 49.5625C58.3123 47.5 58.7498 45.25 59.8748 43.25Z" fill="#17001D"/>
  <path d="M57.5 49.6875C56.625 50.875 54.8126 51.625 53.5001 52.3125C53.1876 52.4375 52.9376 52.0625 53.2501 51.9375C54.0001 51.5625 54.75 51.1875 55.5 50.75C56.125 50.3125 56.75 49.875 57.5 49.6875C57.5 49.625 57.5 49.625 57.5 49.6875Z" fill="#17001D"/>
  <path d="M39.125 42.625C39.25 42.6875 39.375 42.6875 39.5 42.75C39.625 42.8125 39.6875 42.875 39.8125 43C40 43.1875 40.125 43.375 40.25 43.625C40.375 43.8125 40 43.9375 39.9375 43.75C39.8125 43.5625 39.6875 43.375 39.5625 43.1875C39.375 43.0625 39.25 42.8125 39.125 42.625Z" fill="#C1789C"/>
  <path d="M40.3752 43.9375C39.6877 44.8125 38.3127 44.8125 37.3127 44.375C37.0627 44.25 37.3127 44 37.5002 44.0625C38.5002 44.5625 39.4377 44.375 40.3752 43.9375Z" fill="#17001D"/>
  <path d="M37.1876 43.0626C36.8751 43.2501 36.5001 43.1251 36.1251 43.1251C35.7501 43.1251 35.1876 43.5626 35.5626 43.8751C35.9376 44.1876 36.7501 44.1876 37.1876 44.1251C37.3751 44.0626 37.5001 44.2501 37.3751 44.3751C37.1251 44.6251 36.6251 44.5626 36.3126 44.5001C35.9376 44.4376 35.4376 44.3126 35.2501 44.0626C35.0001 43.7501 35.1876 43.3126 35.5001 43.0626C36.0001 42.6251 36.5626 43.0626 37.1876 43.0626Z" fill="#17001D"/>
  <path d="M40.375 43.75C42.5 43.875 44.6875 43.75 46.8125 43.8125C47 43.8125 47.0625 44.0625 46.875 44.0625C44.8125 44.4375 42.5 44.25 40.375 44.125C40.0625 44.125 40.0625 43.75 40.375 43.75Z" fill="#C1789C"/>
  <path d="M46.8124 43.9375C47.4999 44.25 47.75 45.1875 47.9375 45.75C48 46 47.5624 46.125 47.4374 45.875C47.3124 45.5 47.1874 45.1875 47.0624 44.8125C46.9374 44.5625 46.8124 44.25 46.8124 43.9375Z" fill="#C1789C"/>
  <path d="M47.9374 45.8746C48.9999 45.6246 49.8749 45.9371 50.8749 46.1246C52.6249 46.4371 54.3124 46.1246 55.8749 45.3746C56.1874 45.2496 56.4999 45.6246 56.1874 45.8121C55.0624 46.3746 53.8124 46.6871 52.4999 46.6871C50.9374 46.6871 49.4999 46.1246 47.9374 45.9996C47.8749 45.9996 47.8124 45.8746 47.9374 45.8746Z" fill="#C1789C"/>
  <path d="M56.2501 45.5625C56.1251 44.9375 56.4376 44.25 56.6876 43.6875C56.8126 43.5 57.1251 43.625 57.1251 43.8125C57.0001 44.4375 56.7501 45.1875 56.2501 45.5625C56.2501 45.625 56.2501 45.625 56.2501 45.5625Z" fill="#C1789C"/>
  <path d="M59.75 42.9374C59.8125 42.3749 60 41.8749 60 41.3124C60 41.0624 60.4375 41.1249 60.375 41.3124C60.375 41.8749 60.25 42.4374 59.75 42.9374Z" fill="#17001D"/>
  <path d="M60.0625 41.3122C59.25 40.5622 58.3125 39.9997 57.25 39.4997C57 39.3747 57.25 39.0622 57.5 39.1872C58.5625 39.6872 59.5 40.3122 60.375 41.0622C60.5625 41.1872 60.25 41.4372 60.0625 41.3122Z" fill="#C1789C"/>
  <path d="M57.375 39.3124C56.875 39.7499 56.4375 40.1874 56.125 40.7499C55.8125 41.3124 55.625 41.8749 55.4375 42.4374C55.375 42.5624 55.125 42.5624 55.125 42.3749C55.1875 41.1249 56.125 39.9374 57.25 39.1874C57.3125 39.1249 57.4375 39.2499 57.375 39.3124Z" fill="#17001D"/>
  <path d="M57.3748 39.4374C55.7498 39.8124 54.3123 40.6249 53.3123 41.8124C53.1248 41.9999 52.7498 41.8124 52.9373 41.6249C53.9998 40.3749 55.4998 39.4999 57.3123 39.1249C57.5623 39.0624 57.6248 39.3749 57.3748 39.4374Z" fill="#C1789C"/>
  <path d="M52.9375 41.9375C53.125 42.875 54.25 43.125 55.0625 42.5625C55.25 42.4375 55.5625 42.625 55.375 42.8125C54.4375 43.75 52.75 43.0625 52.6875 41.9375C52.6875 41.8125 52.9375 41.8125 52.9375 41.9375Z" fill="#17001D"/>
  <path d="M59.875 43.3124C59 43.4374 58.125 43.6874 57.25 43.9999C57 44.1249 56.75 43.7499 57 43.6874C57.875 43.3749 58.75 43.1249 59.6875 42.9999C60 42.9374 60.125 43.2499 59.875 43.3124Z" fill="#17001D"/>
  <path d="M57.1877 43.8125C56.3752 43.6875 55.7502 43.375 55.1877 42.875C55.0002 42.6875 55.3127 42.4375 55.5002 42.625C56.0002 43.0625 56.6252 43.4375 57.2502 43.75C57.3127 43.6875 57.2502 43.8125 57.1877 43.8125Z" fill="#17001D"/>
  <path d="M50.75 43.625C51.8125 43.25 53 43 54.125 42.9375C54.3125 42.9375 54.375 43.1875 54.1875 43.25C53.125 43.5625 51.875 43.6875 50.75 43.625Z" fill="#17001D"/>
  <path d="M67.5627 38.1875C67.1877 37.875 67.3752 37.3125 67.7502 37C68.1877 36.6875 68.8752 36.6875 69.2502 37C70.2502 37.875 67.9377 38.75 67.2502 38.0625C67.1252 37.9375 67.3127 37.75 67.4377 37.8125C67.7502 37.9375 68.0627 37.9375 68.3752 37.8125C68.5002 37.75 68.6877 37.6875 68.8127 37.625C69.0002 37.5 69.0002 37.3125 68.7502 37.1875C68.4377 37 68.0627 37.125 67.8127 37.3125C67.6877 37.5625 67.6252 37.875 67.5627 38.1875C67.6252 38.1875 67.6252 38.1875 67.5627 38.1875Z" fill="#17001D"/>
  <path d="M25.4375 42.5625C23.4375 42.5 21.3125 41.875 19.375 41.375C19.125 41.3125 19.25 41 19.5 41C21.4375 41.4375 23.625 41.8125 25.4375 42.5625Z" fill="#C1789C"/>
  <path d="M19.5624 41.3125C19.0624 41.625 18.3749 41.6875 17.7499 41.5C17.2499 41.3125 16.7499 40.9375 16.8749 40.4375C16.9999 40 17.5624 39.75 18.0624 39.75C18.6874 39.75 19.1874 40.25 19.5624 40.6875C19.6874 40.875 19.4374 41.0625 19.3124 40.9375C19.0624 40.6875 18.8124 40.375 18.4374 40.1875C18.0624 40 17.4999 40 17.3124 40.375C17.0624 40.8125 17.7499 41.125 18.1249 41.25C18.5624 41.3125 18.9999 41.25 19.3749 41.0625C19.5624 40.9375 19.7499 41.1875 19.5624 41.3125Z" fill="#17001D"/>
  <path d="M17.5 39.7498C17.0625 39.4373 16.375 39.3123 16.0625 39.8123C15.8125 40.2498 16.875 40.4373 17.125 40.4998C17.375 40.5623 17.25 40.8748 17 40.8123C16.4375 40.6873 15.25 40.3123 15.75 39.6248C15.875 39.4373 16.0625 39.3123 16.3125 39.2498C16.8125 39.0623 17.3125 39.3123 17.625 39.6873C17.625 39.7498 17.5625 39.8123 17.5 39.7498Z" fill="#17001D"/>
  <path d="M15.4374 39.8122C14.6874 39.6872 10.1249 37.9997 11.9374 37.0622C12.1874 36.9372 12.3749 37.2497 12.1249 37.3747C11.4374 37.7497 12.9374 38.4997 13.2499 38.6247C13.9374 38.9997 14.6874 39.3122 15.4999 39.4372C15.8124 39.5622 15.6874 39.8747 15.4374 39.8122Z" fill="#C1789C"/>
  <path d="M12.8749 41.6875C10.7499 42.4375 11.4374 38.4375 11.4999 37.75C11.4999 37.5 11.9374 37.5 11.8749 37.75C11.8124 38.8125 11.1249 41.4375 12.8749 41.6875Z" fill="#17001D"/>
  <path d="M11.8125 37C12.4375 37.625 13.25 36.875 13.25 36.375C13.25 36.125 13.125 35.8125 13.0625 35.625C12.875 35.25 12.5625 34.9375 12.25 34.6875C11.5625 34.125 10.625 33.875 9.6875 33.875C9.625 33.875 9.625 33.75 9.6875 33.75C11.125 33.75 12.625 34.5 13.125 35.6875C13.3125 36.125 13.4375 36.8125 12.875 37.125C12.5 37.3125 12.125 37.25 11.8125 37Z" fill="#17001D"/>
  <path d="M10.2497 33.8125C8.0622 34.4375 11.0622 36.875 12.0622 37.125C12.1872 37.125 12.1247 37.3125 11.9997 37.3125C10.8122 37 7.7497 34.25 10.1872 33.6875C10.3122 33.6875 10.3747 33.8125 10.2497 33.8125Z" fill="#17001D"/>
  <path d="M10.3751 33.4375C10.6876 33.375 10.8126 33.0625 10.7501 32.8125C10.6876 32.5 10.2501 32.375 9.93756 32.5C9.31256 32.625 9.25006 33.4375 9.75006 33.75C9.87506 33.8125 9.75006 33.9375 9.62506 33.875C8.87506 33.4375 9.12506 32.375 10.0626 32.3125C10.4376 32.3125 10.8751 32.5 10.9376 32.875C11.0001 33.1875 10.7501 33.5625 10.3751 33.625C10.3126 33.625 10.2501 33.4375 10.3751 33.4375Z" fill="#17001D"/>
  <path d="M9.75001 32.4375C9.56251 31.8125 9.5 31.1875 9.5625 30.5625C9.5625 30.4375 9.75001 30.4375 9.75001 30.5625C9.75001 31.1875 9.75001 31.8125 9.75001 32.4375Z" fill="#17001D"/>
  <path d="M9.81245 35.125C8.49995 35.625 7.37493 36.3125 6.49993 37.3125C6.43743 37.375 6.31245 37.3125 6.37495 37.25C7.18745 36.25 8.37495 35.4375 9.81245 35.125Z" fill="#17001D"/>
  <path d="M13.4375 43.8125C14.625 45.5625 14.5625 47.625 14.6875 49.5625C14.6875 49.8125 14.3125 49.8125 14.3125 49.5625C14.1875 47.625 14.0625 45.75 13.4375 43.8125Z" fill="#17001D"/>
  <path d="M11.6249 41.3125C11.0624 41.8125 10.4374 42.3125 9.87493 42.75C9.81243 42.8125 9.68745 42.6875 9.74995 42.625C10.3749 42.125 10.9374 41.6875 11.5624 41.1875C11.6249 41.1875 11.6874 41.25 11.6249 41.3125Z" fill="#17001D"/>
  <path d="M56.3125 45.9375C55.5625 47.1875 54.1875 48.125 52.8125 48.8125C52.625 48.9375 52.4375 48.625 52.625 48.5625C54.0625 47.8125 55.0625 46.875 56.3125 45.9375Z" fill="#17001D"/>
  <path d="M52.75 48.9374C50.4375 49.3124 47.875 48.5624 45.8125 47.6249C45.625 47.4999 45.8125 47.2499 46 47.3749C48.1875 48.3749 50.3125 48.5624 52.75 48.8749C52.8125 48.8749 52.875 48.9374 52.75 48.9374Z" fill="#17001D"/>
  <path d="M47.9377 46.0625C47.3127 46.625 46.5627 47.25 45.7502 47.625C45.6252 47.6875 45.4377 47.5 45.6252 47.4375C46.3752 47 47.1252 46.5 47.8127 45.9375C47.8752 45.8125 48.0002 45.9375 47.9377 46.0625Z" fill="#17001D"/>
  <path d="M45.625 47.4375C45.3125 46.8125 45.1875 46.1875 45.0625 45.5C45.0625 45.3125 45.375 45.3125 45.375 45.5C45.4375 46.125 45.625 46.75 45.75 47.375C45.75 47.4375 45.625 47.5 45.625 47.4375Z" fill="#17001D"/>
  <path d="M46.8124 44.0625C46.2499 44.375 45.6874 44.875 45.3124 45.3125C45.1874 45.4375 44.9374 45.3125 45.0624 45.125C45.5624 44.625 46.0624 44.3125 46.8124 44.0625Z" fill="#17001D"/>
  <path d="M41.875 45.1875C43 45 44.125 44.875 45.3125 44.8125C45.5625 44.8125 45.5625 45.125 45.3125 45.1875C44.125 45.25 43 45.25 41.875 45.1875Z" fill="#17001D"/>
  <path d="M66.9375 45.6874C66.6875 45.9374 66.25 45.9999 65.875 46.0624C65.4375 46.1249 65 46.1874 64.5625 46.1874C64.3125 46.1874 64.3125 45.8749 64.5625 45.8749C64.9375 45.8749 65.375 45.8124 65.75 45.7499C66.125 45.7499 66.5625 45.6249 66.9375 45.6874Z" fill="#17001D"/>
  <path d="M64.7499 46.0626C63.4374 45.3751 62.3749 43.9376 61.7499 42.7501C61.6874 42.6251 61.8749 42.5626 61.9374 42.6251C62.3749 43.2501 62.8124 43.8751 63.3124 44.5001C63.8124 45.0626 64.3124 45.5001 64.7499 46.0626Z" fill="#17001D"/>
  <path d="M65.6875 37.1249C66.3125 36.9374 67.25 37.3749 67.5 37.8749C67.875 38.5624 67.0625 39.1249 66.4375 39.3749C65.75 39.6249 64.75 39.4999 64.4375 38.8749C64.3125 38.5624 64.4375 38.3124 64.625 38.0624C64.875 37.6874 65.3125 37.3124 65.6875 37.1249C65.875 37.0624 66 37.3124 65.8125 37.4374C65.625 37.5624 65.4375 37.7499 65.25 37.9374C65.0625 38.0624 64.8125 38.2499 64.75 38.4999C64.5 39.1874 65.875 39.2499 66.3125 39.0624C66.75 38.8749 67.375 38.4374 67.0625 37.9999C66.8125 37.6874 66.1875 37.3749 65.75 37.4999C65.5625 37.5624 65.4375 37.1874 65.6875 37.1249Z" fill="#17001D"/>
  <path d="M23.625 46.5C23.375 47.0625 23.0625 47.6875 22.875 48.25C22.875 48.3125 22.75 48.25 22.75 48.25C23 47.625 23.25 47.0625 23.625 46.5Z" fill="#17001D"/>
  <path d="M22.875 48.4374C22.4375 48.5624 22.0625 48.7499 21.625 48.8749C21.5625 48.8749 21.5 48.8124 21.5625 48.7499C22 48.5624 22.4375 48.4374 22.875 48.3124C22.9375 48.2499 22.9375 48.3749 22.875 48.4374Z" fill="#17001D"/>
  <path d="M21.6249 48.8748C21.1249 49.7498 20.5624 50.5623 19.8124 51.3123C19.6874 51.4373 19.4374 51.2498 19.5624 51.1248C20.2499 50.4373 20.8749 49.6248 21.4374 48.8123C21.4999 48.6873 21.6249 48.8123 21.6249 48.8748Z" fill="#17001D"/>
  <path d="M49.25 51.5625C49.75 51.875 50 52.375 49.9375 52.9375C49.9375 53.0625 49.6875 53.0625 49.75 52.9375C49.75 52.4375 49.5625 52 49.25 51.5625Z" fill="#17001D"/>
  <path d="M41.875 45.1875C41.25 45.8125 40.4375 46.4375 39.625 46.875C39.5625 46.9375 39.5 46.8125 39.5625 46.75C40.3125 46.25 41 45.5 41.875 45.1875Z" fill="#17001D"/>
  <path d="M39.6875 46.9999C40.625 48.5624 41.625 49.9999 42.875 51.3124C42.9375 51.3749 42.9375 51.4374 42.8125 51.4374C42.3125 51.4999 41.875 51.5624 41.4375 51.4999C41.3125 51.4999 41.3125 51.3124 41.4375 51.3124C41.6875 51.3124 42.125 51.4374 42.3125 51.2499C42.5625 50.9999 42.25 50.9374 42.0625 50.6874C41.75 50.3749 41.5 49.9999 41.25 49.6874C40.5625 48.8124 40 47.9374 39.5625 46.9999C39.5625 46.9999 39.6875 46.8749 39.6875 46.9999Z" fill="#17001D"/>
  <path d="M41.5 51.5C41.25 52.375 41.125 53.25 41.0625 54.1875C41.0625 54.375 40.75 54.375 40.75 54.1875C40.8125 53.3125 41.0625 52.375 41.4375 51.5C41.4375 51.4375 41.5 51.4375 41.5 51.5Z" fill="#17001D"/>
  <path d="M39.9375 54.5625C40.125 54.3125 40.375 54.1875 40.6875 54.125C40.8125 54.125 40.8125 54.25 40.6875 54.25C40.4375 54.3125 40.1875 54.4375 39.9375 54.5625Z" fill="#17001D"/>
  <path d="M66.3746 40.75C65.4996 41.375 64.4996 41.75 63.4996 42.125C62.3121 42.5625 61.1871 43.125 59.9371 43.375C59.6871 43.4375 59.6246 43.125 59.8121 43.0625C60.8746 42.8125 61.8121 42.375 62.8121 42.0625C63.9996 41.625 65.1871 41.375 66.3746 40.75Z" fill="#17001D"/>
  <path d="M70.125 36.5C70.5625 36.0625 71 35.5625 71.375 35.125C72.125 34.25 72.3125 33.625 72 32.5625C71.5625 31 70.3125 29.75 69 28.75C66.8125 27.125 63.9375 25.25 60.9375 25.4375C59.375 25.5 57.9375 25.625 56.4375 25.5C55.5 25.4375 53.9375 25.5 53.1875 24.9375C52.875 24.6875 52.8125 24.1875 52.4375 23.9375C51.8125 23.5625 50.8125 23.4375 50.0625 23.3125C48.25 22.875 46.375 22.5625 44.4375 22.375C44.3125 22.375 44.3125 22.1875 44.4375 22.1875C46.375 22.375 48.25 22.6875 50.0625 23.125C51.25 23.375 52.3125 23.5625 53.0625 24.3125C53.6875 24.9375 54 25.0625 54.9375 25.1875C55.5625 25.25 56.25 25.3125 56.875 25.375C57.8125 25.4375 58.6875 25.4375 59.625 25.375C61.1875 25.25 62.5 25.1875 63.9375 25.75C66.5 26.75 69.5 28.5 71.0625 30.5625C71.625 31.3125 72.5 32.75 72.3125 33.6875C72.25 34.75 70.875 35.6875 70.125 36.5C70.125 36.5625 70.0625 36.5 70.125 36.5Z" fill="#C1789C"/>
  <path d="M10.1876 38.6875C10.0001 38.875 9.81259 39.0625 9.56259 39.25C9.37509 39.375 9.1876 39.5625 9.0001 39.6875C8.8751 39.75 8.81261 39.625 8.87511 39.5625C9.06261 39.375 9.31259 39.25 9.56259 39.0625C9.68759 38.9375 9.93759 38.8125 10.1876 38.6875Z" fill="#17001D"/>
  <path d="M39.4374 42.6872C38.8749 42.6872 38.1874 42.6247 37.6874 42.8747C37.2499 43.0622 36.8124 43.6872 37.1874 44.0622C37.3749 44.2497 36.9999 44.4997 36.8749 44.2497C36.4999 43.8122 36.6874 43.1872 37.1249 42.8122C37.7499 42.3122 38.6874 42.3747 39.4374 42.4372C39.5624 42.5622 39.5624 42.7497 39.4374 42.6872Z" fill="#C1789C"/>
  <path d="M31.5 32.375L28.375 31.5L32.6875 29.6875C32.6875 29.6875 32.9375 26.75 33.3125 25.125C33.6875 23.4375 33.9375 22.8125 33.9375 22.8125C33.9375 22.8125 35.625 22.4375 36 22.25C36.375 22.125 37.0625 19.9375 37.0625 19.9375L38.375 17.75L39.5625 17.625L41.4375 16.0625L42 15.1875C42 15.1875 41.125 14.8125 41.0625 14.4375C41 14.0625 41.25 13.75 41.25 13.75L41.9375 13.375C41.9375 13.375 43.25 13.125 43.75 12.75C44.1875 12.375 44.5625 11.6875 44.5625 11.6875L44.125 11.4375C44.125 11.4375 44.9375 11 44.9375 10.375C44.9375 9.81251 44.8125 8.87501 44.8125 8.87501L45.4375 8.12501C45.4375 8.12501 48.125 7.37501 50.6875 7.31251C53.25 7.25001 56.3125 8.06251 56.3125 8.06251C56.3125 8.06251 57.8125 8.75001 57.8125 9.25001C57.8125 9.81251 57.375 10.4375 57.375 10.4375L56.875 11.375C56.875 11.375 57.5 13.25 58 14C58.5 14.8125 59 15.1875 59 15.1875L61.25 16.75C61.25 16.75 62.8125 17.8125 62.75 18.4375C62.6875 19.125 62.375 19.1875 62.375 19.1875C62.375 19.1875 63.5 20 63.8125 20.6875C64.125 21.375 64.8125 22.25 64.8125 22.25C64.8125 22.25 65.5625 24.125 66.375 25.125C67.1875 26.125 68.125 27.4375 68.125 27.4375L68.875 28.1875L71.0625 29.0625L72.75 30.125C72.75 30.125 73.5625 30.4375 73.625 31.1875C73.6875 31.9375 73.5 32.5 73.5 32.5L72.1875 32.125C72.1875 32.125 71.5625 30.875 69.8125 30.875C68.0625 30.875 67.375 31.3125 67.375 31.3125C67.375 31.3125 66.1875 31.875 65.9375 33.1875C65.6875 34.4375 64.9375 34.875 64.9375 34.875C64.9375 34.875 64.125 35.1875 62.5 35.1875C60.875 35.1875 58.25 34.875 58.25 34.875C58.25 34.875 55.625 35 54.4375 35.5C53.25 36 51.75 36.5625 51 36.375C50.25 36.1875 49.3125 35.25 49.3125 35.25C49.3125 35.25 48.4375 34.1875 47.0625 34.1875C45.6875 34.1875 42.625 34.5625 42.625 34.5625L31.5 32.375Z" fill="#8A4582"/>
  <path d="M56.1873 8.12504C56.1873 8.12504 57.4373 8.56254 57.6873 9.12504C57.9373 9.68754 57.4373 10.25 57.1248 10.375C56.8123 10.5 55.2498 10.9375 55.2498 10.9375L53.1873 11C53.1873 11 47.4998 10.4375 46.6873 10.25C45.8748 10.125 44.8748 9.68754 44.8123 9.37504C44.6873 9.06254 44.9373 8.50004 44.9373 8.50004L45.4998 8.12504C45.4998 8.18754 49.8123 6.50004 56.1873 8.12504Z" fill="#E73F37"/>
  <path d="M17.375 39.25C17.375 39.25 20.125 40.0625 24.25 38.875C27.625 38.125 25.3125 36.5 25.3125 36.5C25.3125 36.5 24.375 35.6875 24.4375 34.75C24.5625 33.8125 25.5625 33.625 25.5625 33.625L28.1875 33.1875C28.1875 33.1875 29.625 33.4375 31.5 32.375C33.375 31.3125 34.0625 30.625 34.0625 30.625L38.875 29.0625C38.875 29.0625 43.1875 27.75 44.3125 26.6875C45.4375 25.625 46 24.3125 46 24.3125L46.3125 22.4375C46.3125 22.4375 44.875 21.9375 44.8125 21.125C44.75 20.4375 45 19.625 45.375 19.0625C45.875 18.375 46.125 17.6875 45.9375 16.875C45.6875 16.0625 44.4375 15.125 45 14.1875C45.5 13.4375 46.3125 12.1875 46.3125 12.1875C46.3125 12.1875 47 10.625 47.8125 10.0625C48.6875 9.5 49.625 10 49.625 10L52.4375 9.6875L54.875 10.375C54.875 10.375 52.875 10.875 52.6875 12.1875C52.5 13.5 53.5625 14.5 53.5625 14.5C53.5625 14.5 53.6875 15.4375 52.8125 16.125C51.9375 16.875 51.375 17.6875 51.3125 18.625C51.1875 19.5625 51.875 24.25 51.875 24.25L52.5625 27.3125C52.5625 27.3125 52.0625 28.125 51.625 28.3125C51.125 28.5 50.125 28.625 49.5625 29.5625C49 30.5 48.3125 32.375 48.3125 32.375C48.3125 32.375 46.5 33.625 45.5 34C44.4375 34.4375 43.0625 34.3125 42.6875 34.8125C42.3125 35.3125 42.125 35.625 42.6875 36.3125C43.25 37 45.0625 37.4375 45.0625 37.4375L48.375 38C48.375 38 50.9375 38.25 50.0625 38.9375C49.1875 39.625 48.625 39.9375 48.625 39.9375C48.625 39.9375 48.625 40.625 50.0625 41C51.5 41.4375 53.0625 41.75 53.0625 41.75C53.0625 41.75 50.8125 42.25 48.9375 42.5625C47.0625 42.875 43.9375 43.3125 42.9375 43.125C41.875 42.9375 39.875 42.1875 37.5 42.4375C35.125 42.625 29.5 42.625 25.5 41.8125C21.5625 41 22.1875 40.9375 22.1875 40.9375C22.1875 40.9375 21.6875 39.75 17.375 39.25Z" fill="#E73F37"/>
  <path d="M54.1874 11.1875C54.1874 11.1875 53.4374 13 53.4374 13.6875C53.4374 14.375 53.6874 15 53.4999 15.625C53.3124 16.375 52.8749 17 52.6249 17.6875C52.3749 18.4375 52.3749 21.5 53.8749 21.3125C54.8124 21.25 55.3124 21 55.7499 21.1875C56.1874 21.375 56.7499 21.9375 57.1249 21.5625C57.4999 21.1875 57.8749 20.6875 58.3124 20.6875C58.7499 20.6875 60.6874 21.9375 60.6874 21.9375C60.6874 21.9375 61.6249 22.5 61.6249 21.875C61.6249 21.3125 61.3124 20.875 61.3124 20.875C61.3124 20.875 60.8124 20.375 61.1874 20.125C61.5624 19.875 62.1249 20.1875 62.1249 20.1875L61.9374 19.1875C61.9374 19.1875 62.7499 19.125 62.6249 18.4375C62.4999 17.6875 61.9999 17.25 61.9999 17.25L58.5624 14.9375C58.5624 14.9375 57.4374 13.25 57.2499 12.8125C57.0624 12.375 56.8124 11.5 56.8124 11.5L57.3749 10C57.3749 10.1875 57.0624 10.75 54.1874 11.1875Z" fill="#9F6696"/>
  <path d="M64.8125 22.7498C64.4375 22.0623 63.125 19.7498 62.1875 21.3123C62 21.6248 62 21.9998 61.75 22.1873C61.375 22.4373 60.875 22.3748 60.4375 22.1873C59.9375 22.0623 59.4375 21.9373 58.9375 21.8748C58.375 21.8748 58.0625 22.1873 57.5625 22.3123C57 22.4998 56.625 22.3123 56.0625 22.1873C55.375 21.9998 54.5625 22.1248 53.9375 22.5623C53.6875 22.7498 53.4375 22.9373 53.375 23.2498C53.25 23.7498 53.75 24.4998 54 24.9373C54.25 25.5623 54.5625 26.1248 54.8125 26.7498C55.0625 27.4373 55.9375 29.0623 55.375 29.7498C54.625 30.6248 53.1875 31.9373 53.1875 31.9373C53.1875 31.9373 54.5 32.4998 54.125 33.0623C53.6875 33.6248 53.375 34.1248 53.375 34.1248C53.375 34.1248 53.1875 34.8748 54.1875 34.6873C55.1875 34.4998 56.5 34.5623 56.5 34.5623C56.5 34.5623 59.1875 34.7498 60.125 34.6248C61.0625 34.5623 62.625 33.9998 63.3125 33.2498C64 32.4998 64.3125 30.9998 64.3125 30.9998C64.3125 30.9998 64.75 29.8748 66.5 29.9998C68.25 30.1248 69.25 30.6248 69.25 30.6248L70.3125 30.6873C70.3125 30.6873 71.1875 30.8123 70.5 30.1248C69.8125 29.3748 68.8125 28.2498 68.8125 28.2498C68.8125 28.2498 66.75 25.9998 66.125 25.0623C65.5 24.1873 64.8125 22.7498 64.8125 22.7498Z" fill="#9F6696"/>
  <path d="M45.1247 12.0625C45.1247 12.0625 43.8122 13.8125 43.3122 14.125C42.8747 14.4375 41.8122 15.5 41.8747 16.125C41.9372 16.75 42.4372 17.625 43.1872 17.375C43.9372 17.125 44.4997 17.125 44.8122 17.3125C45.1247 17.5 45.8122 18.375 45.8122 17.8125C45.8122 17.25 45.4997 16.375 45.2497 15.8125C44.9997 15.25 44.8747 14.3125 45.1247 13.8125C45.3747 13.25 46.2497 12.1875 46.2497 12.1875L45.1247 12.0625Z" fill="#683161"/>
  <path d="M41.7497 17.7498C41.7497 17.7498 38.9997 20.9998 38.6872 21.4998C38.3122 22.0623 37.8747 22.7498 38.8747 22.9998C39.8747 23.2498 40.3122 23.7498 40.5622 23.9998C40.8122 24.2498 41.3747 24.8748 42.2497 24.8748C43.1247 24.8123 44.8122 24.9998 45.3747 24.3123C45.9372 23.6248 46.1872 23.4998 46.1872 23.3123C46.1872 23.1248 46.1872 22.3748 46.1872 22.3748C46.1872 22.3748 44.5622 21.6873 44.6872 21.0623C44.8122 20.4373 45.3122 19.2498 45.3122 19.2498L45.6872 18.4373C45.6872 18.4373 45.4997 17.5623 44.6872 17.6248C43.8747 17.6873 42.5622 18.6248 41.7497 17.7498Z" fill="#683161"/>
  <path d="M33.9375 23C33.9375 23 35.5 24.75 35.875 25C36.3125 25.25 38.75 26.0625 38.75 26.0625L36 28.375L35.125 30.25C35.125 30.25 33.75 30.6875 33.4375 30.875C33.125 31.0625 32.75 29.75 32.6875 29.6875C32.5625 29.625 32.4375 27.5 33.9375 23Z" fill="#683161"/>
  <path d="M52.25 27.75C52.25 27.75 52.375 28.8125 51.25 29.625C50.125 30.4375 49.1875 31.5 49.9375 31.5625C50.6875 31.625 52.9375 32.1875 52.9375 32.1875C52.9375 32.1875 51.3125 31.6875 50 32.125C48.6875 32.5625 47 33.0625 47 33.0625C47 33.0625 48.6875 31.75 49 30.625C49.3125 29.5 50 28.625 50.375 28.375C50.75 28.1875 52.0625 28.375 52.25 27.75Z" fill="#683161"/>
  <path d="M51.5 8.24976L51.3125 9.68726C51.3125 9.68726 52.5625 9.62476 53.25 9.81226C54 10.0623 54.8125 10.3123 54.8125 10.3123C54.8125 10.3123 55.9375 10.4373 56.1875 9.74976C56.4375 8.99976 55.3125 8.74976 55.3125 8.74976C55.3125 8.74976 52.875 7.93726 51.5 8.24976Z" fill="#B22F27"/>
  <path d="M42.75 34.5002L46.5625 33.3127L49.3125 32.5002C49.3125 32.5002 51.5 32.1252 52.1875 32.1877C52.6875 32.2502 53.75 32.2502 53.9375 32.7502C54.125 33.2502 53.625 34.1877 53.125 34.3752C52.9375 34.4377 52.6875 34.5002 52.4375 34.5002C52.125 34.5627 51.8125 34.6877 51.5625 34.8752C51.3125 35.0627 51.125 35.3127 51.125 35.6252C51.125 36.0002 51.4375 36.3752 51.8125 36.4377C51.5 36.3752 51.125 36.5002 50.8125 36.3752C50.4375 36.2502 50.1875 36.0627 49.875 35.8752C49.4375 35.5002 49 34.8127 48.4375 34.6252C47.8125 34.4377 45.375 34.3752 45.375 34.3752L42.75 34.5002Z" fill="#A34867"/>
  <path d="M32.4375 29.6875L33.4375 30.9375L31.8125 32.3125L28.375 31.75L32.4375 29.6875Z" fill="#A34867"/>
  <path d="M58.5625 15.0625L60.375 16.4375L62.3125 17.8125C62.3125 17.8125 62.75 18.125 62.625 18.5625C62.5 19 61.9375 19.3125 61.9375 19.3125C61.9375 19.3125 60.5 17.9375 60.0625 17.375C59.6875 16.8125 58.5625 15.0625 58.5625 15.0625Z" fill="#A34867"/>
  <path d="M53.25 9.81228L54.375 10.1873C54.375 10.1873 52.75 10.8748 52.4375 11.3748C52.125 11.8748 52.3125 12.6873 52.4375 13.2498C52.5625 13.8123 53.0625 14.5623 52.75 15.0623C52.4375 15.5623 51.6875 16.1248 51.6875 16.1248C51.6875 16.1248 52.625 15.0623 52.25 14.2498C51.875 13.3748 51.25 12.5623 51.25 11.9373C51.25 11.3748 50.8125 10.4998 50.25 10.5623C49.625 10.6248 48.8125 10.8123 48.5 11.1248C48.1875 11.4373 48 11.9998 48 11.9998C48 11.9998 48.625 10.5623 48.3125 10.4998C48 10.4373 47.4375 10.3748 47.4375 10.3748L48.1875 9.81228C48.1875 9.81228 48.6875 9.56228 49 9.62478C49.3125 9.68728 49.875 9.87478 49.875 9.87478C49.875 9.87478 52.1875 9.37478 53.1875 9.93728L53.25 9.81228Z" fill="#ED983E"/>
  <path d="M47.1252 24.9375C46.6877 26.1875 45.6252 27.25 44.2502 27.875C43.3752 28.25 42.4377 28.375 41.5002 28.625C38.3127 29.3125 35.3128 30.5 32.6253 32.125C31.8128 32.625 30.9377 33.1875 29.9377 33.4375C29.1877 33.625 28.4377 33.5625 27.6877 33.6875C26.9377 33.8125 26.1252 34.125 25.8127 34.6875C25.3752 35.375 25.7502 36.25 26.2502 36.9375C26.7502 37.625 27.4377 38.1875 27.6877 38.9375C27.8127 39.25 27.8127 39.625 27.5002 39.8125C27.3127 39.875 27.1253 39.875 27.0003 39.875C26.8128 39.9375 26.6252 40.0625 26.7502 40.1875C26.7502 40.25 26.8127 40.3125 26.8752 40.3125C27.4377 40.6875 28.0002 41.0625 28.6252 41.25C29.3127 41.5 30.1252 41.5625 30.8752 41.625C32.7502 41.8125 34.6252 42 36.5002 41.9375C37.7502 41.875 39.0002 41.75 40.2502 41.8125C42.1877 41.875 44.0627 42.375 45.9377 42.625C46.9377 42.75 48.0627 42.6875 48.7502 42.125C48.1877 42.0625 47.6252 42 47.1877 41.75C46.7502 41.4375 46.5628 40.8125 46.9378 40.5C47.1878 40.25 47.6878 40.125 47.6253 39.8125C47.6253 39.6875 47.5627 39.625 47.5002 39.5625C46.8752 38.8125 45.7503 38.5625 44.8128 38.125C43.9378 37.75 43.0628 37.3125 42.3128 36.6875C41.8128 36.3125 41.3753 35.875 41.3128 35.3125C41.2503 34.5625 42.0002 33.875 42.7502 33.5625C43.7502 33.0625 44.8752 32.8125 45.9377 32.4375C47.0002 32.0625 48.0002 31.375 48.4377 30.4375C47.9377 30.75 47.5003 31 47.0003 31.3125C46.8753 31.375 46.6252 31.5 46.5002 31.4375C46.4377 31.375 46.3753 31.3125 46.3753 31.25C46.2503 30.8125 46.2502 30.3125 45.9377 29.9375C45.8127 29.75 45.5628 29.6875 45.4378 29.5C45.0628 29 45.5002 28.3125 45.8752 27.8125C47.0002 26.3125 47.6877 24.5 47.6877 22.6875L47.1252 24.9375Z" fill="#ED983E"/>
  <path d="M54.1875 10.2499C53.375 10.0624 52.5 10.0624 51.6875 10.1874C51.375 10.2499 51.125 10.3124 50.8125 10.3124C50.4375 10.3124 50.0625 10.2499 49.75 10.3749C49.625 10.4374 49.5 10.4999 49.375 10.4999C49.25 10.4999 49.0625 10.4374 49.0625 10.3124C49.0625 10.2499 49.125 10.1874 49.1875 10.1874C49.5 9.93744 49.9375 9.87494 50.375 9.81244C51.0625 9.74994 51.75 9.62494 52.4375 9.68744C53.125 9.68744 53.8125 9.87494 54.375 10.2499H54.1875Z" fill="#FFDD01"/>
  <path d="M53.375 8.18746C52.75 8.12496 52.125 8.18746 51.4375 8.24996C51.375 8.68746 51.3125 9.12496 51.25 9.56246C50.875 9.62496 50.5 9.74996 50.125 9.81246C50.0625 9.81246 49.9375 9.87496 49.875 9.81246C49.8125 9.81246 49.75 9.74996 49.625 9.74996C49.125 9.49996 48.4375 9.56246 47.9375 9.81246C47.8125 9.87496 47.6875 9.99996 47.5 9.99996C47.25 10.0625 47 9.87496 46.8125 9.68746C46.625 9.49996 46.375 9.24996 46.5 8.99996C46.5625 8.93746 46.625 8.87496 46.6875 8.81246C47.0625 8.56246 47.5625 8.43746 48.0625 8.37496C49.8125 8.06246 51.625 7.99996 53.375 8.24996V8.18746Z" fill="#ED983E"/>
  <path d="M43.4375 13.0625C43.125 13.375 42.8125 13.6875 42.5625 14.0625C42.375 14.3125 42.25 14.5625 41.9375 14.6875C41.6875 14.8125 41.25 14.75 41.125 14.5C41.0625 14.375 41.0625 14.25 41.125 14.1875C41.25 13.9375 41.5 13.6875 41.8125 13.5625C42.125 13.4375 42.4375 13.375 42.75 13.3125C43 13.1875 43.1875 13.125 43.4375 13.0625Z" fill="#A34867"/>
  <path d="M68.9375 28.375C69.9375 28.8125 70.875 29.25 71.875 29.75C72.3125 30 72.75 30.1875 73.0625 30.5625C73.375 30.9375 73.5625 31.4375 73.3125 31.8125C73.1875 32 73 32.1875 72.75 32.1875C72.5625 32.1875 72.375 32.0625 72.25 31.9375C72 31.75 71.75 31.5625 71.5 31.4375C71.375 31.3125 71.1875 31.25 71.125 31.125C71 31 70.9375 30.8125 70.875 30.625C70.375 29.6875 69.1875 29.125 68.75 28.125L68.9375 28.375Z" fill="#A34867"/>
  <path d="M46.1247 17C46.0622 17.375 46.1247 17.75 46.1872 18.0625C46.2497 18.25 46.3122 18.4375 46.4997 18.4375C46.7497 18.4375 46.8747 18.125 47.1872 18.0625C47.4372 18 47.6247 18.25 47.6872 18.4375C47.7497 18.625 47.8122 18.875 48.0622 19C48.3122 19.125 48.6247 19.0625 48.8747 18.875C49.1247 18.6875 49.2497 18.5 49.4997 18.3125C48.8747 20.25 48.4997 22.3125 48.4997 24.3125C48.4997 23.4375 48.5622 22.5 48.5622 21.625C48.5622 21.0625 48.5622 20.4375 48.1872 19.9375C48.1247 19.875 48.0622 19.75 47.9372 19.75C47.5622 19.6875 47.4997 20.4375 47.1247 20.4375C46.6872 20.4375 46.7497 19.6875 46.3747 19.6875C46.1872 19.6875 46.0622 19.8125 45.9997 19.9375C45.7497 20.25 45.6247 20.625 45.6247 21C45.3122 20.3125 45.6247 19.5625 45.8747 18.875C46.1872 18.1875 46.4372 17.4375 46.0622 16.75L46.1247 17Z" fill="#B22F27"/>
  <path d="M51.1248 19.5625C51.2498 20.5625 51.3123 21.5625 51.4373 22.625C51.4998 23.0625 51.4998 23.5625 51.4373 24C51.2498 25.25 50.1873 26.375 50.3123 27.625C50.0623 26.75 50.6248 25.875 50.9373 25C51.1873 24.1875 51.1873 23.25 51.1873 22.4375C51.1873 21.3125 51.1873 20.1875 51.1248 19.0625V19.5625Z" fill="#B22F27"/>
  <path d="M30.6249 34.0625C29.9374 34.3125 29.2499 34.5625 28.5624 34.8125C28.1874 34.9375 27.7499 35.125 27.4999 35.4375C27.1249 35.9375 27.2499 36.625 27.6249 37.125C27.9999 37.625 28.4999 38 28.9374 38.5C29.3124 39 29.6249 39.625 29.3124 40.1875C29.6874 39.8125 29.7499 39.25 29.5624 38.8125C29.4374 38.3125 29.1249 37.9375 28.9374 37.4375C28.7499 37 28.6249 36.4375 28.8124 36C29.0624 35.5 29.6874 35.1875 30.3124 34.9375C31.1874 34.5625 31.9999 34.1875 32.8749 33.875C31.7499 33.9375 30.6874 34.0625 29.6249 34.3125L30.6249 34.0625Z" fill="#F8E545"/>
  <path d="M46.875 25.1249C46.8125 25.2499 46.75 25.3749 46.625 25.4374C46.5625 25.4999 46.5 25.6249 46.5 25.6874C46.5 25.7499 46.5625 25.8124 46.625 25.7499C46.6875 25.6874 46.75 25.5624 46.75 25.4999C46.8125 25.3749 46.8125 25.2499 46.875 25.1249C46.9375 25.1249 46.875 25.0624 46.875 25.1249Z" fill="#F8E545"/>
  <path d="M46.2501 26.0625C45.4376 26.9375 44.6251 27.75 43.3751 28.0625C42.5001 28.3125 41.5626 28.4375 40.6876 28.625C38.8751 29.0625 36.8751 29.5625 35.3126 30.5C35.1876 30.5625 35.2501 30.8125 35.4376 30.75C37.7501 29.9375 39.8126 28.9375 42.3126 28.4375C44.1251 28.125 45.1876 27.5 46.2501 26.0625Z" fill="#F8E545"/>
  <path d="M51.75 27.0625C51.6875 27.125 51.625 27.1875 51.5625 27.25C51.5 27.3125 51.4375 27.375 51.3125 27.4375C51.125 27.5625 51.375 27.8125 51.5625 27.6875C51.6875 27.625 51.75 27.5 51.75 27.4375C51.8125 27.25 51.8125 27.1875 51.75 27.0625Z" fill="#F8E545"/>
  <path d="M49 10.375C49 10.5 49.0625 10.5625 49.125 10.625C49.3125 10.75 49.4375 10.5 49.25 10.375C49.1875 10.3125 49.125 10.3125 49 10.375C49 10.3125 49 10.3125 49 10.375Z" fill="#F8E545"/>
  <path d="M48.8126 9.68711C48.6876 9.68711 48.6251 9.74961 48.5626 9.81211C48.3126 9.99961 48.5001 10.3746 48.8126 10.1871C48.8751 10.1246 48.9376 10.0621 49.0001 9.99961C49.1876 9.87461 49.0626 9.62461 48.8126 9.68711Z" fill="#F8E545"/>
  <path d="M52.5 14.1249C52.5 14.3124 52.5625 14.5624 52.5625 14.7499C52.5625 14.9374 52.875 14.9999 52.9375 14.8124C53 14.4999 52.875 14.1249 52.5 14.1249Z" fill="#F8E545"/>
  <path d="M46.0622 13.25C45.9997 13.375 45.8747 13.4375 45.8122 13.5C45.7497 13.5625 45.6872 13.6875 45.6247 13.75C45.5622 13.875 45.8122 13.9375 45.8747 13.875C45.9372 13.8125 45.9997 13.6875 45.9997 13.625C46.0622 13.5 46.0622 13.375 46.0622 13.25C46.1247 13.25 46.1247 13.25 46.0622 13.25Z" fill="#F8E545"/>
  <path d="M45.4999 14.3125C45.3124 14.625 45.1874 15 45.4374 15.3125C45.4999 15.4375 45.7499 15.375 45.7499 15.25C45.7499 14.9375 45.6249 14.6875 45.6249 14.375C45.6874 14.25 45.5624 14.25 45.4999 14.3125Z" fill="#F8E545"/>
  <path d="M45.5626 15.4998C45.5626 15.5623 45.6251 15.5623 45.6251 15.6248C45.6876 15.6873 45.8126 15.6248 45.7501 15.5623C45.7501 15.4998 45.6876 15.4998 45.6876 15.4373C45.6876 15.3123 45.5001 15.3748 45.5626 15.4998Z" fill="#F8E545"/>
  <path d="M49.0623 18.5625C48.8123 18.75 48.4373 18.6875 48.1248 18.6875C47.9998 18.6875 47.9373 18.875 48.0623 18.9375C48.4373 19.125 48.9373 18.875 49.0623 18.5625Z" fill="#F8E545"/>
  <path d="M48.4374 30.3749C48.3749 30.5624 48.0624 30.6249 47.9374 30.8124C47.8749 30.8749 47.9999 30.9999 48.0624 30.9374C48.3749 30.8749 48.3124 30.5624 48.4374 30.3749Z" fill="#F8E545"/>
  <path d="M47.0625 31.8125C47 31.875 46.9375 31.9375 46.8125 32C46.75 32.0625 46.8125 32.125 46.875 32.125C47 32.125 47.125 32 47.1875 31.9375C47.25 31.875 47.125 31.8125 47.0625 31.8125Z" fill="#F8E545"/>
  <path d="M44.9999 32.5625C44.5624 32.625 43.9374 32.6875 43.6874 33C43.6249 33.0625 43.75 33.1875 43.8125 33.125C44 33.0625 44.1874 32.9375 44.3124 32.8125C44.4999 32.75 44.7499 32.625 44.9999 32.5625Z" fill="#F8E545"/>
  <path d="M43.3749 33.1875C42.9374 33.3125 42.4999 33.625 42.2499 33.875C42.1874 33.9375 42.3124 34 42.3749 33.9375C42.5624 33.8125 42.6874 33.625 42.9374 33.5C43.1249 33.375 43.3124 33.3125 43.4999 33.1875C43.4374 33.25 43.4374 33.1875 43.3749 33.1875Z" fill="#F8E545"/>
  <path d="M41.7499 34.25C41.3124 34.5 40.8124 35 40.8749 35.5C40.8749 35.75 41.3749 35.875 41.4374 35.5625C41.4999 35.375 41.4374 35.1875 41.4999 34.9375C41.5624 34.6875 41.6874 34.5 41.8124 34.3125C41.8749 34.3125 41.8124 34.25 41.7499 34.25Z" fill="#F8E545"/>
  <path d="M43.375 37.4375C44.6875 38 46 38.625 47.125 39.5C47.3125 39.625 47.5625 39.4375 47.4375 39.25C46.9375 38.6875 46 38.5 45.375 38.125C44.6875 37.8125 44.125 37.5 43.375 37.4375Z" fill="#F8E545"/>
  <path d="M49.875 42.2499C48.875 42.2499 48.0625 42.0624 47.1875 41.7499C47 41.6874 46.875 41.8749 47.0625 41.9374C47.8125 42.4374 48.9375 42.5624 49.875 42.2499Z" fill="#F8E545"/>
  <path d="M44.25 42.25C43.875 42.125 43.5 42 43.125 42C43 42 43 42.125 43.125 42.125C43.5 42.25 43.875 42.3125 44.25 42.375C44.3125 42.375 44.3125 42.3125 44.25 42.25Z" fill="#F8E545"/>
  <path d="M40.6874 41.4375C39.9374 41.5 39.1874 41.375 38.4374 41.4375C38.3749 41.4375 38.3124 41.5625 38.4374 41.5625C39.1249 41.75 39.9374 41.5625 40.6874 41.4375C40.7499 41.4375 40.6874 41.5 40.6874 41.4375Z" fill="#F8E545"/>
  <path d="M41.375 31.375C41.1875 31.5 41 31.5625 40.75 31.6875C40.5625 31.75 40.375 31.875 40.25 32C40.1875 32.0625 40.25 32.125 40.3125 32.125C40.5 32.0625 40.75 32 40.875 31.875C41.0625 31.6875 41.25 31.5625 41.375 31.375Z" fill="#F8E545"/>
  <path d="M38 32.7501C37.4375 33.0001 36.875 33.3126 36.4375 33.6251C36.375 33.6876 36.4375 33.7501 36.5 33.6876C37.0625 33.4376 37.5625 33.1251 38.125 32.8751C38.1875 32.8751 38.125 32.6876 38 32.7501Z" fill="#F8E545"/>
  <path d="M36.1875 41.8748C34.75 41.4373 33.1875 41.5623 31.6875 41.3123C30.125 41.1248 28.8125 40.4998 27.375 40.1248C27.0625 40.0623 26.8125 40.3748 27.0625 40.6248C28 41.3748 29.375 41.6248 30.625 41.7498C32.4375 41.8748 34.375 41.9998 36.1875 41.8748Z" fill="#F8E545"/>
  <path d="M53.2499 32.8751C53.1874 32.7501 53.1249 32.6876 53.0624 32.6251C52.9999 32.5626 52.8749 32.6251 52.9374 32.7501C52.9999 32.7501 53.1249 32.8126 53.2499 32.8751Z" fill="#D14E50"/>
  <path d="M52.3751 32.3748C51.4376 32.3123 50.4376 32.3748 49.5626 32.6873C49.3751 32.7498 49.4376 33.0623 49.6876 33.0623C50.5626 32.9998 51.5626 32.8123 52.4376 32.6248C52.5626 32.5623 52.5001 32.3748 52.3751 32.3748Z" fill="#D14E50"/>
  <path d="M47.5625 34.125C48.9375 34.9375 50.6875 37.1875 52.625 36.4375C52.875 36.3125 52.75 36 52.5 36C51.125 36.0625 50.375 35.625 49.375 34.875C48.8125 34.4375 48.3125 34.0625 47.5625 34.125C47.5625 34.0625 47.5625 34.0625 47.5625 34.125Z" fill="#D14E50"/>
  <path d="M33.1872 30.875C32.8122 30.9375 32.5622 31.125 32.1872 31.25C31.8747 31.375 31.4372 31.5 31.1872 31.75C30.9997 31.875 31.1247 32.25 31.4372 32.1875C31.8747 32.125 32.1872 31.875 32.5622 31.6875C32.8122 31.5 33.0622 31.25 33.1872 30.875Z" fill="#D14E50"/>
  <path d="M57.3749 9.8125C56.8749 9.9375 56.4374 10.1875 56.0624 10.5C55.9374 10.625 56.1249 10.875 56.3124 10.75C56.7499 10.5 57.1874 10.1875 57.3749 9.8125C57.4374 9.8125 57.4374 9.8125 57.3749 9.8125Z" fill="#D14E50"/>
  <path d="M47.5 9.87495C47.3125 9.87495 47.1875 9.87495 47.0625 9.99995C47 10.0624 47.0625 10.1874 47.125 10.1874C47.375 10.1249 47.375 9.99995 47.5 9.87495C47.5625 9.87495 47.5 9.81245 47.5 9.87495Z" fill="#D14E50"/>
  <path d="M46.75 10.0002C46.4375 9.87518 46.1875 9.68768 45.875 9.56268C45.625 9.43768 45.375 9.25018 45.0625 9.18768C44.875 9.12518 44.75 9.37518 44.875 9.43768C45.4375 9.81268 46.125 10.0002 46.75 10.0002C46.8125 10.0627 46.8125 10.0002 46.75 10.0002Z" fill="#D14E50"/>
  <path d="M42.75 13.4375C42.6875 13.4375 42.625 13.4375 42.5625 13.4375C42.5 13.4375 42.4375 13.4375 42.3125 13.4375C42.1875 13.4375 42 13.4375 41.875 13.5C41.6875 13.5625 41.6875 13.8125 41.875 13.875C42.0625 13.875 42.25 13.875 42.375 13.75C42.4375 13.6875 42.5 13.6875 42.5625 13.625C42.625 13.625 42.6875 13.5625 42.75 13.4375Z" fill="#D14E50"/>
  <path d="M61.8752 19.9376C61.5627 19.8751 61.0627 19.8751 60.8752 20.1251C60.6252 20.5001 61.0627 20.8751 61.1877 21.2501C61.1877 21.3126 61.2502 21.3126 61.3127 21.2501C61.3127 21.1251 61.3127 21.0001 61.2502 20.8751C61.1877 20.6876 60.9377 20.3751 61.1252 20.1876C61.3127 20.0001 61.6877 20.1876 61.8752 19.9376Z" fill="#D14E50"/>
  <path d="M61.3125 21.6875C61.3125 21.6875 61 21.625 60.9375 21.5625C60.8125 21.5 60.75 21.4375 60.6875 21.4375C60.4375 21.25 60.1875 21.0625 59.9375 20.9375C59.625 20.6875 59.25 20.4375 58.8125 20.375C58.75 20.375 58.6875 20.4375 58.75 20.5C59.4375 21 60.25 21.625 61.125 21.9375C61.25 22 61.4375 22.0625 61.5 21.875C61.5 21.75 61.4375 21.6875 61.3125 21.6875C61.3125 21.625 61.25 21.6875 61.3125 21.6875Z" fill="#D14E50"/>
  <path d="M57.75 20.25C57.5625 20.375 57.375 20.5625 57.25 20.6875C56.875 21.0625 56.625 21.25 56 21.0625C55.5 20.9375 55.0625 20.6875 54.625 21C54.5 21.0625 54.625 21.25 54.75 21.25C55.4375 21 56.0625 21.6875 56.8125 21.4375C57.375 21.25 57.375 20.625 57.75 20.25C57.8125 20.3125 57.8125 20.25 57.75 20.25Z" fill="#D14E50"/>
  <path d="M52.4377 18.75C52.1877 19.4375 52.1876 20.1875 52.6876 20.8125C52.8126 20.9375 53.0627 20.8125 52.9377 20.6875C52.6252 20.0625 52.3752 19.4375 52.5002 18.8125C52.5002 18.75 52.5002 18.75 52.4377 18.75Z" fill="#D14E50"/>
  <path opacity="0.57" d="M57.5625 10.1875C56.9375 10.8125 56.8125 11.8125 57.1875 12.5625C57.4375 13 57.8125 13.375 57.75 13.875C57.75 13.9375 57.75 13.9375 57.6875 14C57.625 14.0625 57.5625 13.9375 57.5 13.9375C57.25 13.75 56.8125 13.75 56.5625 13.9375C56.1875 14.25 56.375 14.9375 55.875 15.125C55.5625 15.25 55.1875 15.0625 55 14.875C54.8125 14.6875 54.5625 14.375 54.25 14.3125C54.125 14.25 54 14.25 53.9375 14.25C53.4375 14.125 53.25 13.625 53.0625 13.1875C52.9375 12.875 52.8125 12.5 52.8125 12.1875C52.8125 11.875 52.9375 11.5 53.25 11.25C53.625 10.9375 54.1875 11 54.6875 11C55.1875 11 55.75 11 56.25 10.875C56.75 10.75 57.25 10.5 57.5 10.125L57.5625 10.1875Z" fill="#A34867"/>
  <path d="M66.9374 27C67.3749 27.5625 67.6874 28.125 68.1874 28.625C68.7499 29.25 69.3749 29.75 69.9374 30.375C70.2499 30.75 70.8124 30.1875 70.3749 30C68.9999 29.375 67.7499 28.0625 66.9374 27Z" fill="#C1789C"/>
  <path d="M63.3749 32.4374C63.6249 32.1249 63.7499 31.7499 63.9999 31.3749C64.4999 30.4999 64.875 29.9999 66 29.8124C67.375 29.6249 68.4999 30.0624 69.6874 30.5624C70.1874 30.7499 70.5625 29.9999 70.0625 29.8124C68.625 29.1874 66.8124 29.2499 65.3124 29.6874C64.0624 30.0624 63.5624 31.4374 63.3749 32.4374C63.3749 32.4999 63.3124 32.4374 63.3749 32.4374Z" fill="#C1789C"/>
  <path d="M57.375 13.9375C57.375 15 58.0625 16 58.625 16.9375C59.3125 18 60.125 19 61.0625 19.875C61.4375 20.25 62.125 19.6875 61.6875 19.3125C60.75 18.4375 59.8125 17.5 59.0625 16.5C58.4375 15.6875 58.125 14.6875 57.375 13.9375Z" fill="#C1789C"/>
  <path d="M66.375 25.9998C66 24.9998 65.5625 24.1248 65.0625 23.1873C64.5625 22.3123 64.125 21.4373 63.125 20.9373C62.6875 20.6873 62.1875 21.2498 62.5625 21.5623C63.375 22.1873 64.1875 22.6873 64.8125 23.4998C65.375 24.3123 65.8125 25.1873 66.1875 26.0623C66.25 26.1248 66.4375 26.1248 66.375 25.9998Z" fill="#C1789C"/>
  <path d="M61.375 21.5C61.3125 21.375 61.1875 21.3125 61.0625 21.25C60.9375 21.125 60.75 21.125 60.625 21.25C60.5 21.375 60.5 21.5 60.625 21.625C60.75 21.75 60.9375 21.8125 61.125 21.8125C61.3125 21.75 61.5 21.625 61.375 21.5Z" fill="#C1789C"/>
  <path d="M56.8123 20.6248C56.6873 20.6873 56.6248 20.7498 56.5623 20.8123C56.6873 20.8123 56.7498 20.7498 56.8748 20.7498C56.7498 20.6873 56.6248 20.6873 56.4998 20.7498C56.3123 20.8123 56.3123 20.9998 56.3748 21.1248C56.4373 21.1873 56.5623 21.2498 56.6873 21.3123C56.8123 21.3123 56.9373 21.3123 56.9998 21.1873C57.0623 21.1248 57.1248 20.9998 57.1248 20.9373C57.2498 20.6873 56.9998 20.5623 56.8123 20.6248Z" fill="#C1789C"/>
  <path d="M39.0625 17.8124C38.875 17.7499 38.6875 17.8124 38.5 17.8124C38.125 17.8749 38.375 18.4374 38.75 18.1874C38.875 18.1249 39.0625 17.9999 39.0625 17.8124Z" fill="#C1789C"/>
  <path d="M36.875 24.0625C36.5 23.625 36.125 23.1875 36.1875 22.625C36.1875 22.375 35.75 22.375 35.6875 22.625C35.6875 23.25 36.0625 24.0625 36.875 24.0625Z" fill="#C1789C"/>
  <path d="M36.0627 22.375C35.5002 22.375 34.8752 22.4375 34.3752 22.625C33.8752 22.75 34.0627 23.4375 34.5627 23.3125C35.1252 23.1875 35.6252 22.875 36.1252 22.625C36.2502 22.5 36.2502 22.375 36.0627 22.375Z" fill="#C1789C"/>
  <path d="M69.3123 31.0001C68.3123 30.2501 64.8748 29.4376 64.1248 30.8751C63.9998 31.1876 64.2498 31.5626 64.6248 31.4376C65.3748 31.1876 65.9373 30.9376 66.7498 30.8751C67.6873 30.8126 68.4373 31.0001 69.3123 31.0001Z" fill="#683161"/>
  <path d="M65.2499 34.75C64.1874 34.75 63.1874 34.875 62.0624 34.75C61.2499 34.625 60.4374 34.5625 59.5624 34.5625C57.8124 34.625 55.9999 34.875 54.3124 35.25C53.9999 35.3125 54.1249 35.6875 54.4374 35.6875C56.4999 35.375 58.5624 34.9375 60.6874 35.0625C62.3124 35.1875 63.6874 35.5 65.2499 34.75Z" fill="#683161"/>
  <path d="M63.3125 35.3125C63.3125 35.3125 57.75 35.5 55.5625 36.5625C53.375 37.625 49.9375 38.75 49.9375 38.75C49.9375 38.75 50.5001 38.0625 48.2501 37.8125C46.0001 37.5625 43.4375 36.875 42.75 36.3125C42.125 35.75 41.625 35.25 42.375 34.875C43.125 34.5 45.4375 33.9375 46.3125 34.1875C47.1875 34.375 48.7501 34.25 49.1876 34.9375C49.6876 35.625 50.4375 36.75 51.4375 36.4375C52.5 36.125 55.3125 35.25 55.3125 35.25C55.3125 35.25 59.375 34.75 63.3125 35.3125Z" fill="#9F5179"/>
  <path d="M32.3751 27.8748C32.3751 27.8748 18.3126 32.4373 20.1876 34.3123C22.1251 36.1248 12.8751 37.1248 12.8751 37.1248C12.8751 37.1248 12.4376 37.8123 13.4376 38.2498C14.4376 38.6873 16.3126 39.3123 16.3126 39.3123L18.2501 39.4373C18.2501 39.4373 19.8751 39.7498 23.1876 39.0623C26.5001 38.4373 26.1876 37.6248 26.1876 37.6248C26.1876 37.6248 24.2501 35.8748 24.5001 35.0623C24.7501 34.3123 25.6251 33.5623 25.6251 33.5623L28.5626 33.3123L30.8126 32.8748L31.5001 32.3123L28.4376 31.6873L31.1876 30.4998L32.5001 29.6248C32.4376 29.6873 33.0001 27.4373 32.3751 27.8748Z" fill="#9F5179"/>
  <path d="M24.4375 34.3125C24.4375 34.3125 22.5625 35.8125 23.3125 36.5C24.0625 37.1875 24.0625 38.875 20.5625 39.125C17.125 39.3125 17.625 39.6875 17.625 39.6875L22.8125 39.3125L25.625 38.5625C25.625 38.5625 26.9375 38.8125 26.125 37.625C25.3125 36.5 24.25 35.625 24.375 35.375C24.4375 35.125 24.4375 34.3125 24.4375 34.3125Z" fill="#6F3555"/>
  <path d="M28.375 31.5C28.375 31.5 30.3125 32.6875 28.875 32.9375C27.4375 33.125 26.8125 33.5 26.8125 33.5L29.125 33.3125L30.5 33.125L31.5625 32.4375L28.375 31.5Z" fill="#6F3555"/>
  <path d="M48.3126 34.8748C48.3126 34.8748 43.7501 34.5623 43.6251 35.6248C43.5626 36.6873 44.2501 36.8748 44.2501 36.8748C44.2501 36.8748 42.5001 36.1873 42.2501 35.6873C42.0001 35.1873 42.5626 34.6248 42.5626 34.6248C42.5626 34.6248 49.0626 33.5623 48.3126 34.8748Z" fill="#6F3555"/>
  <path d="M63.3125 35.3123C63.3125 35.3123 58.3125 35.3748 56.125 35.7498C53.9375 36.1248 53 36.1873 53 36.1873C53 36.1873 55.75 35.1873 57.5625 35.1248C59.4375 35.0623 63.3125 35.3123 63.3125 35.3123Z" fill="#6F3555"/>
  <path d="M68.4372 36.8125C69.3747 36.9375 69.3122 37.5 68.4997 37.8125C67.2497 38.3125 67.4997 37.125 68.4997 36.8125H68.4372Z" fill="#ED983E"/>
  <path d="M66.375 37.3125C66.625 37.5625 67.125 37.625 67.1875 37.9375C67.25 38.125 67.0625 38.3125 66.9375 38.4375C66.5 38.8125 65.9375 39.0625 65.375 38.9375C65.1875 38.875 64.9375 38.75 64.875 38.5625C64.8125 38.375 64.9375 38.1875 65.0625 38.0625C65.375 37.6875 65.8125 37.4375 66.25 37.25L66.375 37.3125Z" fill="#E73F37"/>
  <path d="M56.4999 39.75C55.8749 40.3125 55.4374 41.0625 55.1874 41.8125C55.1249 41.9375 55.1249 42.0625 54.9999 42.1875C54.8124 42.4375 54.4374 42.5 54.1249 42.5C53.8749 42.5 53.4999 42.5 53.4374 42.3125C53.3749 42.1875 53.5 42 53.5625 41.875C54.25 40.9375 55.25 40.1875 56.375 39.625L56.4999 39.75Z" fill="#ED983E"/>
  <path d="M37.25 43.5623C38 41.9998 40.375 43.3123 39.75 43.8748C39.6875 43.9373 39.5625 43.9373 39.4375 43.9998C38.75 44.1248 38.0625 44.1873 37.4375 43.9373C37.375 43.8748 37.3125 43.8748 37.25 43.8123C37.1875 43.6873 37.1875 43.6248 37.25 43.5623Z" fill="#ED983E"/>
  <path d="M10.9998 34.5003C11.3748 34.0628 12.2498 34.6253 12.4998 34.9378C13.1873 35.7503 12.8748 37.0628 11.6248 36.0628C10.8748 35.4378 10.7498 34.8128 10.9998 34.5003Z" fill="#ED983E"/>
  <path d="M56.6875 11.4999C57.125 13.0624 58.125 14.4999 59 15.9374C59.4375 16.6874 59.9375 17.3749 60.5 18.0624C60.625 18.1874 62.3125 20.1249 62.0625 20.2499C61.9375 20.3124 62 20.4999 62.125 20.4374C62.375 20.3749 62.375 20.3124 62.4375 20.0624C62.4375 19.9999 62.25 19.7499 62.1875 19.6874C61.875 19.0624 61.0625 18.4999 60.625 17.9374C59.125 15.9374 57.625 13.7499 56.6875 11.4999Z" fill="#56253F"/>
  <path d="M62.375 19.3124C64.25 20.9999 64.875 23.3124 66.1875 25.3124C67.375 27.1249 68.8125 28.8749 70.5625 30.3749C70.6875 30.4999 70.875 30.3124 70.75 30.1874C68.8125 28.3749 67.0625 26.4374 65.75 24.1874C64.6875 22.3749 64.3125 20.4999 62.375 19.3124Z" fill="#56253F"/>
  <path d="M70.7499 30.3746C71.1249 31.0621 67.8124 30.2496 67.4999 30.1246C66.9999 29.9996 66.4374 29.9371 65.9374 29.9996C65.1874 30.1246 64.3749 30.4371 64.0624 31.0621C63.6874 31.8746 63.8124 32.6246 63.0624 33.3746C62.3124 33.9996 61.3124 34.3746 60.2499 34.4996C58.3124 34.7496 56.3124 34.3121 54.3124 34.5621C54.1874 34.5621 54.2499 34.7496 54.3124 34.7496C57.1874 34.4996 62.7499 35.6871 63.9374 32.3121C64.0624 31.9996 63.9999 31.5621 64.1249 31.2496C64.5624 30.3746 65.5624 30.1246 66.5624 30.1871C67.6874 30.2496 68.6874 30.7496 69.7499 30.8746C70.1874 30.9371 71.3749 30.8746 70.7499 30.3746C70.7499 30.3121 70.6874 30.3121 70.7499 30.3746Z" fill="#56253F"/>
  <path d="M57.5 10.25C57.0625 10.625 56.8125 11.125 56.75 11.625C56.75 11.6875 56.875 11.75 56.875 11.6875C57 11.125 57.25 10.6875 57.5 10.25Z" fill="#56253F"/>
  <path d="M42.9377 34.3751C41.8752 35.0626 41.8127 35.8126 42.8752 36.5626C44.6252 37.7501 47.0002 37.5626 49.0002 38.1876C49.2502 38.2501 49.4377 38.3751 49.6877 38.4376C49.7502 38.8126 49.5627 39.0001 49.1877 39.0001C48.8752 39.2501 48.8127 39.0626 48.5627 39.4376C48.3752 39.6876 48.3127 39.9376 48.4377 40.1876C48.6877 40.7501 50.5627 41.1251 51.1877 41.3126C52.0002 41.5001 52.6877 41.7501 53.4377 41.3751C53.5627 41.3126 53.4377 41.1876 53.3752 41.2501C52.4377 41.6251 51.1252 41.1251 50.3127 40.8126C49.4377 40.7501 49.1877 40.4376 49.5627 39.8126C49.4377 39.3126 49.5627 39.0626 50.0627 39.1251C50.1252 39.0626 50.2502 39.0626 50.3127 39.0001C50.5627 38.7501 50.3752 38.6251 50.1877 38.3751C49.8127 38.0626 49.0002 37.8751 48.5627 37.7501C47.6252 37.5001 46.6252 37.4376 45.6877 37.2501C44.8127 37.0626 41.0002 35.9376 43.2502 34.5001C43.1877 34.5001 43.0627 34.3126 42.9377 34.3751Z" fill="#56253F"/>
  <path d="M53.3125 11C52.5 11.6875 52.4375 12.375 52.8125 13.25C53.1875 14.125 53.875 15 53 15.8125C52.625 16.125 52.1875 16.3125 51.8125 16.6875C50.625 18 51.1875 20.375 51.4375 21.875C51.5625 22.6875 51.75 23.5 51.875 24.3125C52 24.875 52.0625 25.4375 52.125 26C52.1875 26.8125 52.3125 26.875 51.6875 27.5C51 28.25 51.1875 27.8125 50.4375 28.125C50.125 28.25 49.8125 28.625 49.625 28.875C48.875 29.875 48.75 31.0625 48 32.0625C46.9375 33.4375 44.5 33.5625 42.9375 34.3125C42.8125 34.375 42.9375 34.5625 43.0625 34.5C44.4375 33.875 46.1875 33.6875 47.4375 32.9375C48.3125 32.375 48.6875 31.4375 49.0625 30.5625C49.625 29.25 49.75 29 51.4375 28.375C51.8125 28.25 51.8125 28.4375 52.125 28.1875C52.875 27.625 52.4375 26 52.3125 25.3125C52 22.9375 50.8125 19.875 51.6875 17.5C52.0625 16.5 53.3125 16.5 53.625 15.5C54.125 13.8125 51.6875 12.8125 53.3125 11C53.375 11.0625 53.375 11 53.3125 11Z" fill="#56253F"/>
  <path d="M17.75 39.5C19.4375 39.75 21.0625 39.75 22.75 39.4375C23.5 39.3125 26.125 38.8125 26.4375 38.0625C26.8125 37.25 25.1875 36.4375 24.875 35.8125C24.0625 34.125 25.625 33.8125 26.625 33.6875C27.1875 33.625 27.75 33.5625 28.3125 33.5C29.0625 33.4375 29.875 33.375 30.5625 33.125C32.125 32.6875 33 31.375 34.4375 30.6875C36.3125 29.875 38.4375 29.4375 40.375 28.625C41.9375 27.9375 43.875 27.25 45.0625 26.0625C46.125 25.0625 46.3125 23.625 46.4375 22.3125C46.4375 22.125 46.1875 22.125 46.125 22.3125C46 23.25 45.875 24.1875 45.4375 25.0625C44.8125 26.125 43.75 26.75 42.625 27.3125C40.9375 28.1875 39.125 28.875 37.3125 29.5C35.875 30 34.3125 30.25 33.125 31.125C32.5 31.625 31.9375 32.1875 31.1875 32.5625C30.25 33 29.0625 33.125 28.0625 33.1875C26.5 33.3125 23.4375 33.625 24.5625 35.6875C24.8125 36.1875 25.4375 36.5 25.6875 37C25.75 37.375 25.8125 37.75 25.875 38.125C25.75 38.1875 25.5625 38.25 25.4375 38.3125C25.125 38.5625 24.125 38.8125 23.625 38.9375C21.6875 39.5 19.6875 39.625 17.75 39.5C17.6875 39.5 17.6875 39.4375 17.75 39.5Z" fill="#56253F"/>
  <path d="M46.4375 22.1877C45.9375 21.7502 45.5 21.2502 45 20.8127C45 20.6252 45.0625 20.4377 45.0625 20.1877C45.125 20.0002 45.1875 19.8127 45.25 19.5627C45.4375 19.1877 45.625 18.8127 45.8125 18.3752C46.0625 17.6877 46.125 17.1252 45.8125 16.4377C45.4375 15.5627 44.875 14.8752 45.3125 13.8752C45.5625 13.3752 46 12.9377 46.25 12.4377C47 11.1252 47.5625 9.12524 49.75 9.93774C49.875 10.0002 50 9.81274 49.875 9.68774C48.6875 9.06274 47.375 9.68774 46.75 10.6877C46.25 11.5002 46 12.3127 45.5 13.1252C45.125 13.6877 44.75 14.2502 44.875 14.9377C45.0625 16.0627 46.0625 16.7502 45.6875 18.0002C45.5 18.6877 45 19.3752 44.8125 20.0627C44.5625 21.1877 45 22.3752 46.4375 22.1877Z" fill="#56253F"/>
  <path d="M57.375 8.875C58.75 10.625 54.5 10.9375 53.4375 10.875C53.25 10.875 53.25 11.0625 53.4375 11.125C54.625 11.25 56.1875 11.0625 57.1875 10.4375C57.6875 10.0625 58.125 9.25 57.375 8.875Z" fill="#56253F"/>
  <path d="M44.5625 8.9375C44.875 9.8125 45.0625 10.9375 44 11.5C43.875 11.5625 44 11.6875 44.125 11.6875C45.25 11.125 45.25 9.8125 44.5625 8.9375Z" fill="#56253F"/>
  <path d="M45.375 12.0625C44.9375 11.875 44.5 11.6875 44.0625 11.5C44 11.5 43.9375 11.5625 44 11.625C44.4375 11.8125 44.875 11.9375 45.375 12.0625Z" fill="#56253F"/>
  <path d="M42.8122 13.6875C42.1247 14.5 41.5622 15.4375 40.8747 16.25C40.1872 17 39.4372 17.625 38.6247 18.25C38.4997 18.3125 38.6872 18.5 38.8122 18.375C40.4372 17.1875 42.2497 15.5625 42.8122 13.6875Z" fill="#56253F"/>
  <path d="M39.625 17.625C39.25 17.625 38.8125 17.625 38.375 17.75C38.25 17.75 38.25 17.9375 38.375 17.9375C38.875 17.875 39.25 17.75 39.625 17.625Z" fill="#56253F"/>
  <path d="M38.125 17.8125C37.25 19.0625 36.5 20.5 36.25 21.9375C36.25 22.0625 36.4375 22.125 36.5 22C36.9375 20.5625 37.4375 19.1875 38.375 17.9375C38.4375 17.8125 38.25 17.6875 38.125 17.8125Z" fill="#56253F"/>
  <path d="M36.3752 22C35.5002 22.125 34.6877 22.375 33.8752 22.6875C33.6877 22.75 33.8752 22.9375 34.0002 22.875C34.7502 22.5625 35.5627 22.3125 36.3752 22.125C36.6252 22.1875 36.5627 22 36.3752 22Z" fill="#56253F"/>
  <path d="M33.875 22.875C33 25.0625 32.625 27.3125 32.4375 29.5625C32.4375 29.75 32.6875 29.75 32.6875 29.5625C32.875 27.3125 33.375 25.125 34.0625 22.9375C34.125 22.8125 33.9375 22.8125 33.875 22.875Z" fill="#56253F"/>
  <path d="M32.3123 29.7501C30.9373 30.3126 29.5623 30.9376 28.2498 31.5626C28.1248 31.6251 28.1873 31.7501 28.3123 31.8126C29.4373 32.0626 30.4998 32.3751 31.6248 32.5001C31.8123 32.5001 31.8748 32.3126 31.6873 32.2501C30.6248 31.9376 29.4998 31.7501 28.3748 31.5001C28.3748 31.5626 28.3748 31.6876 28.4373 31.7501C29.8123 31.1251 31.1248 30.5626 32.4998 29.8751C32.5623 29.8751 32.4373 29.6876 32.3123 29.7501Z" fill="#56253F"/>
  <path d="M54.4374 34.6873C52.6249 34.8123 54.1249 33.5623 54.1249 32.9373C54.1249 32.4998 53.7499 32.3748 53.3749 32.1873C51.4999 31.4373 48.7499 32.3748 46.9374 32.9373C46.7499 32.9998 46.8124 33.3123 46.9999 33.2498C48.3749 32.8123 49.6874 32.3748 51.1249 32.3123C51.9999 32.2498 53.0624 32.0623 53.4374 32.9373C53.7499 33.7498 53.1874 33.6248 53.1249 34.3748C53.1249 34.9998 53.6874 34.9998 54.4374 34.6873Z" fill="#56253F"/>
  <path d="M55.0626 10.4372C53.3751 9.31223 50.9376 9.37473 49.0626 10.0622C48.9376 10.1247 49.0001 10.3122 49.1876 10.2497C51.1876 9.56223 53.0626 9.74973 55.0626 10.4372Z" fill="#56253F"/>
  <path d="M62.3749 20.3125C61.9374 20.0625 61.1249 19.8125 60.9999 20.375C60.9374 20.6875 61.4374 21.0625 61.4999 21.3125C61.6249 21.625 61.8749 22 61.2499 22.0625C60.8749 22.0625 59.8749 21.3125 59.5624 21.125C59.1874 20.9375 58.4999 20.375 57.9374 20.625C57.4999 20.8125 57.7499 20.875 57.4999 21.0625C56.1249 22.0625 56.2499 21.1875 55.1249 21.3125C53.9999 21.4375 52.9999 23.0625 51.8124 21.75C51.7499 21.6875 51.5624 21.75 51.6249 21.875C52.9999 23.5625 54.2499 21.375 55.8124 21.5625C56.2499 21.625 56.9999 22.1875 57.4374 21.875C57.9374 21.625 57.2499 21.75 57.6874 21.375C59.2499 19.8125 60.8749 23.1875 61.8749 22.1875C62.4374 21.625 59.9999 19.5 62.3749 20.3125Z" fill="#56253F"/>
  <path d="M57.75 13.75C58 14.6875 58.75 15.375 59.5625 16C60 16.375 60.5 16.6875 61 17C61.25 17.1875 61.5625 17.375 61.8125 17.625C62.0625 17.8125 63.5 19.1875 62 19.1875C61.875 19.1875 61.8125 19.375 61.9375 19.4375C63.1875 19.625 63 18.3125 62.375 17.75C60.875 16.3125 59 15.5 57.75 13.75Z" fill="#56253F"/>
  <path d="M45.6876 18.375C45.6876 17.75 45.1251 17.4375 44.5001 17.5C43.8751 17.5625 43.3751 18.0625 42.6876 17.875C41.6876 17.625 41.5626 16.6875 41.4376 15.9375C41.4376 15.875 41.2501 15.875 41.2501 15.9375C41.1251 16.6875 41.5001 17.5625 42.3126 17.9375C42.6251 18.0625 42.9376 18.125 43.3126 18.0625C44.1876 18 45.0626 17.1875 45.6876 18.375Z" fill="#56253F"/>
  <path d="M44.4374 11.6875C44.1249 12.375 43.4999 12.875 42.8124 13.1875C42.3124 13.375 41.6249 13.4375 41.1874 13.8125C40.5624 14.375 41.1249 15.25 41.9999 15.25C42.1249 15.25 42.1249 15.125 41.9999 15.125C41.0624 14.75 40.8749 14.375 41.4374 14C41.5624 13.8125 41.7499 13.6875 42.0624 13.625C42.2499 13.5625 42.4374 13.5 42.6249 13.4375C42.9374 13.3125 43.1874 13.1875 43.4999 13C43.9374 12.6875 44.3124 12.25 44.4374 11.6875Z" fill="#56253F"/>
  <path d="M41.6251 24.7499C40.6251 24.9374 40.1876 23.8749 39.3126 23.7499C38.8751 23.6874 38.5001 23.8749 38.1251 23.9374C36.4376 24.1249 36.5001 22.6249 36.5001 21.6874C36.5001 21.6249 36.3751 21.5624 36.3126 21.6874C36.1251 22.5624 36.2501 23.9374 37.5001 24.1874C37.8126 24.2499 38.0626 24.1249 38.4376 24.0624C38.8126 23.9999 39.3126 23.9374 39.7501 24.0624C40.0001 24.1249 40.1876 24.3749 40.3751 24.4999C40.7501 24.8124 41.1251 24.9374 41.6251 24.7499Z" fill="#56253F"/>
  <path d="M68.4374 27.875C68.6874 28.375 69.0624 28.5 69.6249 28.75C70.3749 29.0625 71.0624 29.5 71.8124 29.9375C72.3124 30.25 73.1249 30.5625 73.3749 31.0625C72.8124 32.1875 72.3749 32.4375 72.0624 31.875C71.9999 31.8125 71.9999 31.75 71.9374 31.6875C71.4999 31.4375 71.2499 31.125 70.6874 31C69.5624 30.75 68.0624 31 67.1249 31.5625C66.6874 31.8125 66.2499 32.1875 65.9999 32.625C65.8124 33 65.9374 33.375 65.8124 33.6875C65.4374 34.75 64.6874 35 63.5624 35.0625C63.0624 35.125 62.5624 35.0625 62.0624 35.0625C61.0624 35 59.9999 34.875 58.9999 34.875C56.9999 34.8125 55.4999 35.1875 53.6249 35.8125C52.0624 36.3125 50.9374 36.625 49.6874 35.4375C49.3749 35.125 49.1874 34.875 48.6874 34.6875C47.1249 34 44.8749 34.25 43.2499 34.5625C43.0624 34.5625 43.1874 34.8125 43.3124 34.75C44.6874 34.5625 46.7499 34.3125 48.1249 34.75C49.3749 35.1875 49.3124 36 50.2499 36.4375C51.6874 37.125 53.6874 36 54.9999 35.5625C57.3124 34.8125 59.5624 35.25 61.9374 35.3125C62.9374 35.375 65.2499 35.5 65.9374 34.5625C66.3749 33.9375 65.9374 33.25 66.3124 32.5625C66.9999 31.4375 68.5624 31.125 69.8749 31.125C70.9374 31.125 71.2499 31.4375 71.8749 32.0625C72.1249 32.3125 72.1249 32.5 72.4999 32.625C72.8124 32.75 72.9999 32.75 73.3124 32.5625C74.1874 32.125 73.7499 31 73.2499 30.5C72.6874 29.9375 71.8124 29.5625 71.1874 29.125C70.3749 28.625 69.0624 28.3125 68.4999 27.6875C68.4999 27.75 68.4374 27.8125 68.4374 27.875Z" fill="#56253F"/>
  <path d="M57.625 8.99996C56.6875 7.99996 54.9375 7.74996 53.5625 7.62496C51.6875 7.37496 49.75 7.43746 47.875 7.74996C47.1875 7.87496 44.625 8.06246 44.5 9.06246C44.375 9.87496 46 10.1875 46.625 10.375C46.6875 10.375 46.75 10.3125 46.6875 10.25C46.25 10.0625 45.625 9.93746 45.3125 9.68746C44.375 8.99996 45.6875 8.37496 46.3125 8.18746C47.625 7.87496 48.9375 7.62496 50.3125 7.62496C52.4375 7.49996 55.9375 7.56246 57.625 8.99996Z" fill="#56253F"/>
  <path d="M54.2502 10.5625C54.6252 10.5 56.7502 10.25 56.7502 9.625C56.7502 8.75 53.6252 8.25 53.0002 8.1875C51.8752 8.0625 50.7502 8.0625 49.6252 8.1875C48.7502 8.3125 47.3752 8.375 46.5627 8.75C45.5627 9.25 46.3127 9.5625 47.0002 9.9375C47.0627 10 47.1252 9.875 47.0627 9.8125C46.6877 9.6875 46.6252 9.5 46.8752 9.1875C46.8127 8.8125 47.0002 8.625 47.4377 8.6875C47.7502 8.5625 48.2502 8.5625 48.6252 8.5C49.8127 8.3125 51.0002 8.25 52.1877 8.3125C53.2502 8.375 54.1877 8.5 55.1877 8.875C56.0627 8.875 56.3127 9.125 55.9377 9.6875C56.0002 10.0625 55.8752 10.25 55.5002 10.25C55.1877 10.375 54.6252 10.4375 54.2502 10.5625Z" fill="#56253F"/>
</svg>