<svg xmlns="http://www.w3.org/2000/svg" width="80" height="80" viewBox="0 0 80 80" fill="none">
  <path d="M40 59C59.2264 59 74.8125 56.8454 74.8125 54.1875C74.8125 51.5296 59.2264 49.375 40 49.375C20.7736 49.375 5.1875 51.5296 5.1875 54.1875C5.1875 56.8454 20.7736 59 40 59Z" fill="#7BCCFF"/>
  <path d="M27.9375 61.8125C39.0868 61.8125 48.125 60.5533 48.125 59C48.125 57.4467 39.0868 56.1875 27.9375 56.1875C16.7883 56.1875 7.75 57.4467 7.75 59C7.75 60.5533 16.7883 61.8125 27.9375 61.8125Z" fill="#7BCCFF"/>
  <path d="M57.5625 63C63.8447 63 68.9375 62.3004 68.9375 61.4375C68.9375 60.5746 63.8447 59.875 57.5625 59.875C51.2803 59.875 46.1875 60.5746 46.1875 61.4375C46.1875 62.3004 51.2803 63 57.5625 63Z" fill="#7BCCFF"/>
  <path d="M58 54.5625C59.0625 54.3125 60.125 54 61.1875 53.8125C61.25 53.625 61.3125 53.5 61.3125 53.5L55.3125 55.125L55.125 55.25C56.0625 55 57 54.8125 58 54.5625Z" fill="#47200A"/>
  <path d="M11.5625 46.0001L12.8125 47.5626L14.8125 47.8751L16.1875 52.3126C20.125 52.1251 24.125 52.3126 28.0625 51.9376C33.5625 51.3751 40.125 50.3126 45.0625 53.4376C46.875 54.6251 48.125 55.4376 50.4375 55.6251C53 55.8126 55.5 55.2501 57.9375 54.6251C59.125 54.3126 60.3125 54.0626 61.4375 53.8126C62.875 53.1251 64.125 52.3751 65.5625 51.5626L65.75 48.5001L67.5625 47.2501L71.0625 43.9376L71.25 41.4376L73.75 39.3751C73.75 39.3751 73.75 38.1876 73.375 37.1251C72.9375 36.0626 72 34.3751 72 34.3751L70.3125 32.2501L67.875 30.3126L65.875 28.6876L65.125 28.5001L63.3125 27.3126C63.3125 27.3126 62.3125 26.6251 60.1875 26.5001C58.0625 26.3751 57 26.3751 57 26.3751C55.4375 26.3751 53.8125 26.4376 52.4375 25.6876C51.9375 25.4376 51.5625 25.0626 51 24.8751C50.0625 24.5001 49 24.6876 48 24.8126C46.875 24.9376 45.6875 25.0626 44.5625 24.8126C43.4375 24.5626 42.5 24.0626 41.375 23.7501C38.25 22.8751 35.375 23.8751 32.3125 24.4376C32.125 24.4376 29.625 24.9376 29.625 24.9376L27.9375 25.3126C27.9375 25.3126 27.0625 25.6251 26.8125 26.0626C26.5 26.5001 26.1875 26.7501 26.1875 26.7501L25.125 26.8751L22.375 27.0626L20.875 27.0001L18.8125 26.9376H17.5C17.5 26.9376 16.8125 26.9376 15.125 27.6251C13.4375 28.3126 12.5625 28.9376 12.5625 28.9376L10.4375 30.4376L9.25001 31.5626C9.25001 31.5626 8.37501 32.4376 8.00001 33.0626C7.62501 33.6876 7.37501 34.6876 7.37501 34.6876L7.25 35.8751L8.62501 43.4376L11.5625 46.0001Z" fill="#642F0F"/>
  <path d="M21.5625 52.1875L21.875 51.25L19.875 45.0625L17.8125 44.625C17.8125 44.625 17.375 45.0625 16.875 46C16.375 46.875 14.875 47.9375 14.875 47.9375L16.25 52.375C18 52.1875 19.8125 52.1875 21.5625 52.1875Z" fill="#562710"/>
  <path d="M38.625 51.375L39.1875 50.6875L40.1875 48.6875L37.9375 47.0625L34.8125 46.9375L34.0625 49.375L31.5 50.3125L28.9375 50.8125L29.5625 51.6875C32.5 51.4375 35.625 51.0625 38.625 51.375Z" fill="#8F4C1F"/>
  <path d="M60.875 53.875C61.4375 53.625 62.125 53.3125 62.25 53.3125C62.5 53.25 65.625 51.5 65.625 51.5L65.8125 48.4375L67.6875 47.4375L70.375 44.625L69.6875 44.25L68.375 43.25L67.5 43.625L67 45.6875L63.25 47L62.375 49.5625L60.1875 54.125C60.4375 53.9375 60.6875 53.875 60.875 53.875Z" fill="#562710"/>
  <path d="M58 54.5625C58.625 54.4375 59.1875 54.25 59.8125 54.125C59.875 54 59.9375 53.875 60 53.75C60.0625 53.5625 60.1875 53.4375 60.1875 53.25C60.1875 53.0625 60.0625 52.875 59.9375 52.6875C59.5 51.9375 59.125 51.25 58.75 50.5C58.25 50.4375 57.6875 50.3125 57.1875 50.25C56.6875 49.4375 56.1875 48.625 56.25 47.6875C56.3125 47.1875 56.5625 46.6875 56.75 46.25C57.0625 45.625 57.4375 44.9375 58.1875 44.5625C58.75 44.3125 59.375 44.3125 59.9375 44.25C62.25 44 64.0625 42.4375 66.125 41.5625C66.875 41.25 67.625 41 68.4375 40.8125L68.5625 40.6875C68.625 40.8125 68.6875 41 68.6875 41.125C68.625 40.625 68.5 40.1875 68.25 39.75C67.5 40.375 66.5 40.875 65.5 41.125C65.125 41.25 64.6875 41.3125 64.4375 41.5625C64.3125 41.6875 64.1875 41.875 64.0625 42C63.8125 42.1875 63.4375 42.125 63.1875 42.25C62.9375 42.375 62.8125 42.625 62.5625 42.8125C62 43.25 61.125 43.125 60.375 43.125C58.5 43.0625 56.75 43.75 55 44.4375C54.8125 44.5 54.5625 44.625 54.4375 44.75C54.3125 44.875 54.25 45.0625 54.1875 45.25C53.9375 46.0625 53.625 46.875 53.375 47.6875C52.8125 47.8125 52.1875 47.9375 51.625 48.0625C52 50.5 51.1875 52.875 50.9375 55.3125C50.9375 55.4375 50.9375 55.5625 50.9375 55.625C53.375 55.625 55.6875 55.125 58 54.5625Z" fill="#8F4C1F"/>
  <path d="M50.5 55.5625C50.6875 55.5625 50.875 55.5625 51.125 55.5625C51 55.5 50.9375 55.4375 50.875 55.375C50.75 55.1875 50.8125 55 50.875 54.875C51.5625 52.625 51.8125 50.3125 51.6875 48C50.625 48 49.5625 48.1875 48.625 48.625L48.5625 48.6875C48.1875 50.625 47.5625 52.5625 46.6875 54.375C47.75 55 48.875 55.4375 50.5 55.5625Z" fill="#562710"/>
  <path d="M20.125 45.875C20.4375 45.875 20.8125 45.9375 21.125 45.9375C21.25 45.9375 21.3125 45.9375 21.4375 46C21.5 46.0625 21.5625 46.125 21.625 46.1875C22.25 46.75 22.875 47.3125 23.5625 47.9375C23.25 47.3125 23 46.6875 22.8125 46.0625C22.8125 45.9375 22.75 45.875 22.6875 45.75C22.5625 45.625 22.4375 45.5625 22.25 45.5C21.4375 45.1875 20.5 45 19.625 44.9375C19.8125 45.25 19.9375 45.5625 20.125 45.875Z" fill="#47220E"/>
  <path d="M47 54.5C47.625 53.4375 48.25 52.375 48.875 51.25C49.0625 50.875 49.5 50.4375 49.9375 50.625C50.1875 50.75 50.25 51 50.3125 51.1875C50.6875 52.5 50.875 53.875 50.9375 55.25C51.4375 52.9375 51.625 50.5625 51.5 48.1875C50.6875 48.25 49.875 48.375 49 48.4375C48.9375 48.4375 48.8125 48.4375 48.75 48.5C48.625 48.5625 48.5625 48.75 48.5 48.875C48 50.75 47.375 52.5625 46.625 54.375C46.8125 54.375 46.875 54.4375 47 54.5Z" fill="#47220E"/>
  <path d="M28.375 51.875C29.1875 51.8125 30 51.6875 30.875 51.625C31.9375 50.875 32.9375 50.0625 33.9375 49.25C32.375 50.1875 30.375 50.4375 28.5 50.6875C28.1875 50.75 27.875 50.75 27.5625 50.6875C27.3125 50.625 27.0625 50.4375 26.8125 50.3125C26.0625 49.75 25.25 49.25 24.5 48.6875L24.375 48.8125C25.4375 49.625 26.5 50.375 27.625 51.1875C27.8125 51.375 28.125 51.625 28.375 51.875Z" fill="#562710"/>
  <path d="M41.5625 51.875C41.125 50.875 40.6875 49.875 40.3125 48.8125L40.375 48.6875C40.375 48.75 40.4375 48.625 40.375 48.625C40.3125 48.625 40.3125 48.6875 40.25 48.6875C39.875 49.625 39.3125 50.5 38.625 51.3125C39.6875 51.4375 40.625 51.625 41.5625 51.875Z" fill="#47220E"/>
  <path d="M33 45.8125L31.9375 47.75L34.0625 49.375L34.5625 47.8125L34.8125 46.9375L33 45.8125Z" fill="#562710"/>
  <path d="M33 45.5L28.5 45.4375L24.3125 44.625L22.6875 45.6875L23.625 47.5L27.125 48.25L29.8125 47.9375L31.9375 47.75L33 45.5Z" fill="#8F4C1F"/>
  <path d="M61.9375 44.375L63.3125 46.875C63.3125 46.875 67.25 45.75 67.0625 45.5625C66.8125 45.4375 67.5625 43.5 67.5625 43.5L66.4375 41.5625C66.4375 41.625 62.375 43.0625 61.9375 44.375Z" fill="#8F4C1F"/>
  <path d="M68.3125 39.125L71.3125 41.3125L73.8125 39.25C73.8125 39.25 73.375 38.125 72.0625 37.5625C70.75 37 70.6875 36.8125 70.6875 36.8125C70.6875 36.8125 70.1875 38.125 68.3125 39.125Z" fill="#562710"/>
  <path d="M44.6875 45.125L53.375 44.4375L52.6875 47.125L43.75 48.0625L42.8125 46.1875C42.8125 46.1875 44 46.0625 44.375 45.75C44.75 45.4375 44.6875 45.125 44.6875 45.125Z" fill="#8F4C1F"/>
  <path d="M43.0625 45.3124C42.75 44.6874 42.375 44.8749 41.875 44.4999C41.75 44.4374 41.6875 44.3124 41.5 44.3124C41.375 44.2499 41.25 44.3124 41.125 44.3124C40.625 44.4374 39.75 44.9374 39.75 45.4999C39.75 45.6874 39.9375 45.8749 40.125 45.9374C40.9375 46.3124 41.9375 46.1249 42.8125 45.8749C42.875 45.8749 42.9375 45.8124 43 45.8124C43.25 45.7499 43.1875 45.4999 43.0625 45.3124Z" fill="#8F4C1F"/>
  <path d="M56.75 46.6875C57 45.875 57.375 45.0625 58.1875 44.625C58.4375 44.5 58.75 44.4375 59 44.375C59.625 44.25 60.1875 44.0625 60.8125 43.9375C61.125 43.875 61.4375 43.8125 61.6875 44C61.8125 44.0625 61.875 44.1875 61.9375 44.3125C62.375 45.0625 62.75 45.875 63.1875 46.625C63.25 46.75 63.3125 46.8125 63.3125 46.9375C63.3125 47 63.25 47.125 63.25 47.1875C63 47.625 62.75 48.0625 62.5 48.5C60.5 47.875 58.625 47.25 56.75 46.6875Z" fill="#562710"/>
  <path d="M46.125 50.625C46.25 50.75 46.375 50.875 46.4375 51.0625C46.5 51.25 46.5 51.4375 46.5 51.6875C46.5 52.5625 46.5 53.4375 46.5 54.25H46.5625C47.5 52.4375 48.1875 50.5 48.625 48.5C47.125 48.5 45.6875 48.4375 44.1875 48.1875C44 48.1875 43.75 48.125 43.5625 48.125L43.8125 48.1875C44.625 49 45.375 49.8125 46.125 50.625Z" fill="#562710"/>
  <path d="M14.875 47.9375C16.0625 47.625 17.25 47.375 18.4375 47.125C18.5625 47.125 18.625 47.0625 18.75 47.125C18.875 47.125 18.9375 47.1875 19 47.25C19.75 47.9375 20.5 48.625 21.1875 49.375C20.625 47.9375 20.1875 46.5 19.9375 45C19.0625 44.875 18.1875 44.6875 17.4375 44.375C16.8125 45.6875 15.9375 46.875 14.875 47.9375Z" fill="#47220E"/>
  <path d="M10.7499 45.125C10.8124 43.75 10.8749 42.4375 10.9374 41.0625C10.9374 40.75 10.9374 40.5 10.8749 40.1875C10.8124 40 10.6874 39.8125 10.5624 39.625C9.5624 38.25 8.43741 36.9375 7.18741 35.6875C6.99991 36.0625 7.12491 36.5 7.18741 36.875C7.62491 38.9375 8.0624 41 8.4999 43C8.5624 43.1875 8.5624 43.375 8.6874 43.5C8.8124 43.6875 8.99991 43.8125 9.18741 43.9375C9.87491 44.375 10.4374 44.9375 10.8749 45.5625L10.7499 45.125Z" fill="#8F4C1F"/>
  <path d="M70.6875 36.6875C71.5 36.9375 72.3125 37.375 72.875 37.875C72.75 36.75 72.625 35.5625 72.0625 34.5C71.6875 33.75 71.125 33.125 70.5625 32.5C70.5 32.9375 70.5 33.375 70.4375 33.8125C70.4375 33.875 70.4375 33.9375 70.4375 34.0625C70.4375 34.1875 70.5625 34.25 70.625 34.3125C70.875 34.6875 70.8125 35.25 70.5 35.5625C70.875 35.875 71 36.375 70.875 36.8125C70.8125 36.8125 70.75 36.8125 70.625 36.8125L70.6875 36.6875Z" fill="#8F4C1F"/>
  <path d="M22.4375 51.5625L24.875 50.6875L23.625 47.4375L21.4375 45.9375L20.125 45.8125C20.125 45.875 21.375 50 22.4375 51.5625Z" fill="#8F4C1F"/>
  <path d="M68.8127 30.8125C68.0627 30 67.1877 29.3125 66.2502 28.75C64.1252 27.4375 61.6877 26 59.0002 26.125C56.8127 26.1875 54.2502 26.375 52.3127 25.3125C51.8127 25 51.3127 24.6875 50.6877 24.5C49.6877 24.25 48.6252 24.5 47.6252 24.625C46.3127 24.8125 44.9377 24.6875 43.6252 24.375C42.6252 24.125 41.6877 23.6875 40.6252 23.4375C38.3752 22.875 36.3127 23.375 34.0627 23.875C32.8127 24.125 31.5627 24.375 30.3752 24.625C29.4377 24.8125 28.1877 24.875 27.5002 25.5C27.3127 25.625 27.1877 25.8125 27.0002 26C26.0002 27 23.7502 26.75 22.3752 26.8125C20.5627 26.875 18.7502 26.875 17.0002 27.25C14.0627 27.875 11.5627 29.5625 9.50024 31.5625C8.56274 32.4375 7.75024 33.25 7.43774 34.5C7.25024 35.1875 7.37524 36 7.87524 36.5625C8.25024 37 8.75024 37.25 9.18774 37.5625C10.3127 38.375 11.0002 39.625 11.1252 40.875C12.6252 39.9375 13.8752 41.8125 14.8752 42.5C16.3752 43.625 18.2502 44.5625 20.1877 44.6875C20.3752 44.6875 23.5002 44.5 23.5002 44.6875C23.4377 45.0625 23.2502 45.375 22.8752 45.625C23.6252 45.1875 24.5002 44.5625 25.3752 44.5C26.3752 44.4375 27.2502 45.125 28.2502 45.1875C29.5002 45.25 30.6252 45.125 31.7502 45.625C31.8752 45.6875 31.9377 45.75 32.0002 45.8125C32.0627 45.875 32.0627 46 32.0627 46.125C32.0627 46.5625 32.0627 46.9375 32.0627 47.375C32.5627 45.375 34.3127 45.3125 36.2502 45.3125C36.6877 45.3125 39.8127 45.1875 39.6252 45.9375C39.8752 44.875 42.5002 44.75 43.5002 44.75C44.0002 44.75 45.4377 45.375 44.5627 45.9375C44.8127 45.75 45.0627 45.5625 45.3127 45.375C46.7502 44.375 48.3127 44.4375 50.0627 44.25C50.6252 44.1875 52.3127 43.9375 52.8127 44.1875C53.0627 44.3125 53.0627 44.625 53.0627 44.875C53.0627 45.875 53.1252 46.8125 53.3127 47.8125C54.4377 47.0625 54.0627 45.3125 55.0627 44.4375C55.4377 44.125 55.9377 43.9375 56.4377 43.8125C58.6877 43.25 60.8127 43.4375 62.9377 42.5625C63.3752 42.375 63.7502 42.125 64.1252 41.9375C65.1877 41.4375 66.5627 41.3125 67.3127 40.4375C67.6252 40.0625 67.8127 39.5625 68.1252 39.1875C68.5627 38.6875 69.2502 38.375 69.7502 37.9375C70.8127 37 71.1252 35.5 70.7502 34.25C70.3752 32.875 69.6877 31.8125 68.8127 30.8125Z" fill="#CE722E"/>
  <path d="M7.06259 34.75C6.75009 37.5 7.75009 40.625 8.31259 43.3125C8.37509 43.5 8.75009 43.4375 8.68759 43.25C8.37509 41.8125 8.12509 40.4375 7.87509 39C7.62509 37.5625 7.56259 36.125 7.06259 34.75Z" fill="#B46E43"/>
  <path d="M8.37494 43.5C9.81244 44.75 11.1249 46.125 12.4999 47.375C12.6249 47.5 12.8749 47.3125 12.7499 47.1875C11.6249 45.75 10.0624 44.375 8.49994 43.3125C8.43744 43.25 8.31244 43.375 8.37494 43.5Z" fill="#B46E43"/>
  <path d="M12.6874 47.4999C14.2499 46.8124 15.2499 45.0624 15.7499 43.6249C15.8124 43.4374 15.4374 43.3124 15.3749 43.5624C15.1249 44.3749 14.7499 45.0624 14.2499 45.7499C13.7499 46.3124 13.0624 46.8124 12.6874 47.4999Z" fill="#3C1A07"/>
  <path d="M15.9999 52.3124C16.1249 52.3124 16.2499 52.3124 16.3749 52.3124C15.8749 50.8124 15.3749 49.3124 14.9374 47.8124C14.8749 47.6249 14.5624 47.6874 14.6249 47.8749C15.0624 49.3749 15.5624 50.8124 15.9999 52.3124Z" fill="#8F4C1F"/>
  <path d="M46.9375 54.5C47.1875 54.0625 47.375 53.5625 47.5625 53.125C48.1875 51.625 48.625 50.125 48.875 48.5625C48.9375 48.25 48.375 48.25 48.3125 48.5625C48.0625 50.0625 47.625 51.5625 47.0625 53.0625C46.875 53.5 46.6875 53.875 46.5 54.3125C46.625 54.3125 46.8125 54.4375 46.9375 54.5Z" fill="#3C1A07"/>
  <path d="M42.5625 46.1874C42.625 46.4999 42.875 46.8124 43 47.0624C43.1875 47.3749 43.375 47.6874 43.5625 48.0624C43.6875 48.2499 44.0625 48.0624 43.9375 47.8749C43.625 47.3124 43.25 46.4999 42.5625 46.1874Z" fill="#3C1A07"/>
  <path d="M43.625 48.4375C46.875 48.875 50.1875 48.8125 53.375 48.0625C53.75 48 53.5625 47.5 53.25 47.5625C50.0625 48.1875 46.9375 48.4375 43.6875 48.0625C43.4375 48 43.375 48.375 43.625 48.4375Z" fill="#3C1A07"/>
  <path d="M53.4374 47.75C54.2499 47 54.4374 45.6875 54.6874 44.75C54.7499 44.5 54.3124 44.375 54.2499 44.625C54.0624 45.1875 53.9374 45.6875 53.7499 46.25C53.5624 46.75 53.3749 47.25 53.4374 47.75Z" fill="#3C1A07"/>
  <path d="M51 55.5624C51.75 53.3124 52.125 50.7499 51.75 48.3749C51.75 48.2499 51.5 48.3124 51.5 48.3749C51.4375 50.8124 51.25 53.1249 50.625 55.4999C50.75 55.5624 50.875 55.5624 51 55.5624Z" fill="#3C1A07"/>
  <path d="M60.3125 54C61.6875 51.75 62.6875 49.25 63.5 46.875C63.5625 46.625 63.125 46.5 63.0625 46.75C62.125 49.3125 60.8125 51.6875 59.625 54.125C59.875 54.0625 60.125 54 60.3125 54Z" fill="#311404"/>
  <path d="M63.125 46.9374C63.75 46.9374 64.3125 46.6874 64.875 46.4999C65.5 46.3124 66.125 46.1874 66.6875 45.9374C66.9375 45.8124 66.75 45.4999 66.5 45.5624C65.875 45.6874 65.25 45.9374 64.6875 46.1249C64.1875 46.3124 63.5625 46.4999 63.125 46.9374Z" fill="#3C1A07"/>
  <path d="M66.875 45.8124C67.3125 45.1249 67.4375 44.3749 67.6875 43.6249C67.75 43.4374 67.375 43.3124 67.3125 43.5624C67.125 44.3124 66.875 45.0624 66.875 45.8124C66.875 45.8749 66.875 45.8749 66.875 45.8124Z" fill="#3C1A07"/>
  <path d="M61.9375 53.6247C63.3125 53.1247 64.6875 52.3747 65.75 51.5622C65.9375 51.4372 65.6875 51.2497 65.5625 51.3122C64.6875 51.7497 63.875 52.2497 63 52.6872C62.1875 53.0622 61.375 53.4372 60.625 53.8747C61.0625 53.8122 61.5 53.6872 61.9375 53.6247Z" fill="#3C1A07"/>
  <path d="M65.875 48.4375C68 47.25 69.75 45.5625 71.25 43.875C71.375 43.75 71.1875 43.625 71.0625 43.75C69.5 45.5 67.6875 46.9375 65.875 48.4375Z" fill="#3C1A07"/>
  <path d="M71.25 43.9375C71.3125 43.125 71.375 42.375 71.375 41.5625C71.375 41.4375 71.1875 41.4375 71.1875 41.5625C71.125 42.375 71.125 43.125 71.0625 43.9375C71.0625 44.0625 71.25 44.0625 71.25 43.9375Z" fill="#3C1A07"/>
  <path d="M71.1249 41.5002C72.1249 40.9377 72.9999 40.1252 73.8124 39.3752C73.9374 39.2502 73.7499 39.0627 73.6249 39.1877C72.7499 39.9377 71.7499 40.6252 71.1249 41.5002Z" fill="#3C1A07"/>
  <path d="M73.8752 39.2499C73.4377 34.4999 70.0002 31.2499 65.8752 28.4999C65.7502 28.4374 65.5627 28.5624 65.6877 28.6249C69.6252 31.5624 73.1252 34.4374 73.6252 39.2499C73.6877 39.3749 73.9377 39.3749 73.8752 39.2499Z" fill="#B46E43"/>
  <path d="M19.8125 45C20 47.25 21 49.5625 22 51.5625C22.125 51.8125 22.5 51.625 22.375 51.375C21.375 49.3125 20.875 47.0625 19.8125 45Z" fill="#3C1A07"/>
  <path d="M39.4375 45.75C40.125 46.625 41.5 46.625 42.5 46.1875C42.75 46.0625 42.5 45.8125 42.3125 45.875C41.375 46.3125 40.375 46.125 39.4375 45.75Z" fill="#3C1A07"/>
  <path d="M42.6875 44.8126C43 45.0001 43.375 44.8751 43.75 44.8751C44.125 44.8751 44.6875 45.3126 44.3125 45.6251C43.9375 45.9376 43.125 45.9376 42.6875 45.8751C42.5 45.8126 42.375 46.0001 42.5 46.1251C42.8125 46.3751 43.25 46.3126 43.625 46.2501C44 46.1876 44.5 46.0626 44.75 45.8126C45 45.5001 44.8125 45.0001 44.5 44.8126C43.875 44.3751 43.3125 44.8126 42.6875 44.8126Z" fill="#3C1A07"/>
  <path d="M39.4999 45.5625C37.3124 45.6875 35.1874 45.5625 32.9999 45.625C32.8124 45.625 32.7499 45.875 32.9374 45.875C34.9999 46.25 37.3749 46.0625 39.4999 45.9375C39.7499 45.9375 39.7499 45.5625 39.4999 45.5625Z" fill="#B46E43"/>
  <path d="M33.0002 45.6875C32.3127 46 32.0002 46.9375 31.8752 47.5625C31.8127 47.8125 32.2502 47.9375 32.3752 47.6875C32.5002 47.3125 32.6252 47 32.7502 46.625C32.8127 46.3125 33.0002 46.0625 33.0002 45.6875Z" fill="#B46E43"/>
  <path d="M31.8751 47.6876C30.8126 47.4376 29.9376 47.7501 28.8751 47.9376C27.1251 48.2501 25.375 47.9376 23.8125 47.1876C23.5 47.0626 23.1875 47.4376 23.5 47.6251C24.625 48.1876 25.8751 48.5001 27.1876 48.5001C28.8126 48.5001 30.25 47.9376 31.8125 47.8126C31.9375 47.8126 31.9376 47.6876 31.8751 47.6876Z" fill="#B46E43"/>
  <path d="M23.4375 47.3754C23.5625 46.7504 23.25 46.0004 23 45.5004C22.875 45.2504 22.5625 45.4379 22.5625 45.6254C22.6875 46.1879 22.9375 47.0004 23.4375 47.3754Z" fill="#B46E43"/>
  <path d="M19.75 45.0625C20.6875 45.1875 21.5 45.4375 22.375 45.75C22.625 45.875 22.875 45.5 22.625 45.4375C21.75 45.125 20.8125 44.875 19.875 44.75C19.625 44.75 19.5 45.0625 19.75 45.0625Z" fill="#3C1A07"/>
  <path d="M22.5 45.5625C23.3125 45.4375 23.9375 45.125 24.5625 44.5625C24.75 44.375 24.4375 44.125 24.25 44.3125C23.75 44.8125 23.125 45.125 22.4375 45.4375C22.375 45.5 22.4375 45.625 22.5 45.5625Z" fill="#3C1A07"/>
  <path d="M28.9999 45.4375C27.9374 45.0625 26.6874 44.8125 25.5624 44.75C25.3749 44.75 25.3124 45 25.4999 45.0625C26.6249 45.3125 27.8749 45.5 28.9999 45.4375Z" fill="#3C1A07"/>
  <path d="M54.5625 44.3752C56.5625 44.3127 58.75 43.6877 60.6875 43.1877C60.9375 43.1252 60.8125 42.7502 60.5625 42.8127C58.625 43.1877 56.375 43.5627 54.5625 44.3752Z" fill="#B46E43"/>
  <path d="M64.6246 41.5627C65.3746 41.4377 69.9996 39.7502 68.1246 38.7502C67.8746 38.6252 67.6871 38.9377 67.8746 39.0627C68.5621 39.4377 67.0622 40.1877 66.7497 40.3752C66.0622 40.7502 65.3121 41.0627 64.4996 41.1877C64.3121 41.3127 64.3746 41.6252 64.6246 41.5627Z" fill="#B46E43"/>
  <path d="M67.25 43.4375C69.375 44.1875 68.6875 40.1875 68.6875 39.4375C68.6875 39.1875 68.25 39.1875 68.3125 39.4375C68.3125 40.5625 69 43.1875 67.25 43.4375Z" fill="#3C1A07"/>
  <path d="M70.3125 36.8125C71.625 37.3125 72.8125 38 73.6875 39C73.75 39.0625 73.9375 39 73.8125 38.9375C72.9375 37.9375 71.75 37.125 70.3125 36.8125Z" fill="#3C1A07"/>
  <path d="M66.625 45.625C65.4375 47.375 65.5 49.5 65.375 51.4375C65.375 51.6875 65.75 51.6875 65.75 51.4375C65.9375 49.5 66.0625 47.5625 66.625 45.625Z" fill="#3C1A07"/>
  <path d="M68.5 43.0625C69.0625 43.5625 69.6875 44.0625 70.25 44.5625C70.3125 44.625 70.4375 44.5 70.375 44.4375C69.75 43.9375 69.1875 43.5 68.5625 43C68.5 43 68.4375 43.0625 68.5 43.0625Z" fill="#3C1A07"/>
  <path d="M23.375 47.75C24.125 49 25.5625 49.9375 26.875 50.6875C27.0625 50.8125 27.25 50.5 27.0625 50.375C25.6875 49.6875 24.625 48.6875 23.375 47.75Z" fill="#3C1A07"/>
  <path d="M26.9375 50.8124C29.3125 51.1874 31.875 50.4374 33.9375 49.4999C34.125 49.3749 33.9375 49.1249 33.75 49.2499C31.5 50.2499 29.375 50.4999 26.9375 50.7499C26.875 50.6874 26.875 50.7499 26.9375 50.8124Z" fill="#3C1A07"/>
  <path d="M31.875 47.8749C32.5 48.4999 33.25 49.0624 34.0625 49.4999C34.1875 49.5624 34.375 49.3749 34.1875 49.3124C33.4375 48.8749 32.6875 48.3124 32 47.8124C31.875 47.6249 31.75 47.7499 31.875 47.8749Z" fill="#3C1A07"/>
  <path d="M34.1874 49.25C34.4999 48.625 34.6874 48 34.7499 47.3125C34.7499 47.125 34.4374 47.125 34.4374 47.3125C34.3749 47.9375 34.1874 48.5625 34.0624 49.1875C33.9999 49.25 34.1249 49.3125 34.1874 49.25Z" fill="#3C1A07"/>
  <path d="M32.9375 45.8749C33.5 46.1874 34.0625 46.6874 34.5 47.1249C34.625 47.2499 34.875 47.1249 34.75 46.9374C34.25 46.4374 33.6875 46.0624 32.9375 45.8749Z" fill="#3C1A07"/>
  <path d="M37.9375 47C36.8125 46.8125 35.625 46.6875 34.5 46.625C34.25 46.625 34.25 46.9375 34.5 47C35.6875 47 36.8125 47.0625 37.9375 47C38 47 38 47 37.9375 47Z" fill="#3C1A07"/>
  <path d="M12.6874 47.5C12.9374 47.75 13.3749 47.8125 13.7499 47.875C14.1874 47.9375 14.6249 48 15.0624 48C15.3124 48 15.3124 47.6875 15.0624 47.6875C14.6874 47.6875 14.2499 47.625 13.8749 47.5625C13.4374 47.5625 13.0624 47.4375 12.6874 47.5C12.6874 47.4375 12.6249 47.4375 12.6874 47.5Z" fill="#3C1A07"/>
  <path d="M14.8125 47.8751C16.125 47.1876 17.1875 45.7501 17.8125 44.5626C17.875 44.4376 17.6875 44.3751 17.625 44.4376C17.1875 45.0626 16.75 45.6876 16.25 46.3126C15.8125 46.8126 15.25 47.3126 14.8125 47.8751Z" fill="#3C1A07"/>
  <path d="M56.375 48.3125C56.625 48.875 56.9375 49.5 57.125 50.125C57.125 50.1875 57.25 50.1875 57.25 50.125C57 49.4375 56.75 48.875 56.375 48.3125Z" fill="#3C1A07"/>
  <path d="M57.125 50.2499C57.5625 50.3749 58 50.5624 58.4375 50.6874C58.5 50.6874 58.5625 50.6249 58.5 50.5624C58.0625 50.3749 57.625 50.2499 57.1875 50.1249C57.0625 50.0624 57.0625 50.1874 57.125 50.2499Z" fill="#3C1A07"/>
  <path d="M58.4374 50.7503C58.9374 51.6253 59.4999 52.5003 60.2499 53.2503C60.3749 53.3753 60.6249 53.1878 60.4999 53.0628C59.7499 52.3753 59.1874 51.5628 58.6249 50.6878C58.5624 50.5628 58.3749 50.6253 58.4374 50.7503Z" fill="#3C1A07"/>
  <path d="M37.9375 47C38.5625 47.625 39.375 48.25 40.1875 48.6875C40.25 48.75 40.3125 48.625 40.25 48.5625C39.5 48.0625 38.875 47.3125 37.9375 47Z" fill="#3C1A07"/>
  <path d="M38.75 51.375C39.375 50.5625 39.875 49.75 40.3125 48.875C40.375 48.8125 40.25 48.75 40.1875 48.8125C39.6875 49.6875 39.125 50.5625 38.5 51.375C38.5 51.375 38.625 51.375 38.75 51.375Z" fill="#3C1A07"/>
  <path d="M13.25 42.5C14.125 43.125 15.125 43.5 16.1875 43.875C17.375 44.3125 18.5 44.875 19.8125 45.125C20.0625 45.1875 20.125 44.875 19.9375 44.8125C18.875 44.5625 17.9375 44.125 16.9375 43.8125C15.625 43.375 14.375 43.125 13.25 42.5Z" fill="#3C1A07"/>
  <path d="M53.9375 26.1249C56.25 26.2499 58.6875 26.1874 60.9375 26.5624C62.1875 26.7499 63.0625 27.2499 64.0625 27.9374C64.625 28.3124 65.125 28.6249 65.8125 28.8124C66 28.8749 66.125 28.5624 65.875 28.5624C64.6875 28.3124 64 27.4374 63 26.9999C62.25 26.6249 61.375 26.4374 60.5625 26.3749C58.375 26.1249 56.125 26.1249 53.9375 26.1249C53.875 26.1249 53.875 25.9999 53.9375 26.1249Z" fill="#B46E43"/>
  <path d="M9.43735 38.25C8.99985 37.8125 8.56236 37.3125 8.12486 36.875C7.37486 36 7.18736 35.375 7.49986 34.25C7.93736 32.6875 9.18735 31.4375 10.5624 30.4375C12.8124 28.75 15.6874 26.875 18.7499 27.0625C20.3124 27.125 21.7499 27.25 23.3124 27.125C24.2499 27.0625 25.8124 27.125 26.5624 26.5625C26.8749 26.3125 26.9374 25.8125 27.3124 25.5625C27.9374 25.1875 28.9999 25.0625 29.6874 24.9375C31.5624 24.5 33.4374 24.1875 35.3124 24C35.4374 24 35.4374 23.8125 35.3124 23.8125C33.3749 24 31.4999 24.3125 29.6249 24.75C28.4374 25.0625 27.3124 25.1875 26.5624 25.9375C25.9374 26.5625 25.6249 26.6875 24.6249 26.8125C23.9999 26.875 23.3124 26.9375 22.6874 27C21.7499 27.0625 20.8124 27.0625 19.8749 27C18.3124 26.875 16.9999 26.8125 15.4999 27.375C12.9374 28.375 9.87486 30.1875 8.31236 32.25C7.74986 33 6.87485 34.4375 6.99985 35.375C7.31235 36.4375 8.68735 37.4375 9.43735 38.25Z" fill="#B46E43"/>
  <path d="M69.9999 40.4375C70.1874 40.625 70.3749 40.8125 70.6249 41C70.8124 41.125 70.9999 41.3125 71.2499 41.4375C71.3749 41.5 71.4374 41.375 71.3749 41.3125C71.1874 41.125 70.9374 41 70.6874 40.8125C70.4374 40.6875 70.1874 40.5 69.9999 40.4375Z" fill="#3C1A07"/>
  <path d="M42.6252 26.4374C42.6252 26.4374 44.6877 27.3124 45.2502 27.2499C45.8127 27.1874 46.3127 27.0624 46.3127 27.0624C46.3127 27.0624 49.6877 28.1874 50.3752 28.2499C51.0627 28.3124 52.0002 27.9999 52.0002 27.9999L57.0627 29.6874L57.5627 25.5624L44.8752 25.3124C44.8127 25.2499 40.8127 25.8749 42.6252 26.4374Z" fill="#B46424"/>
  <path d="M70.625 31.75C70.625 31.75 70.1251 27.9375 69.2501 24.8125C68.3751 21.6875 67.1251 18.625 67.1251 18.625L65.0001 18.1875L63.3751 18L62.1876 18.0625L61.3126 18.875C61.3126 18.875 60.4376 18.8125 60.1251 19C59.7501 19.1875 59.2501 19.5625 59.2501 19.5625L58.9376 19.9375L58.1251 19.875L57.3751 19.6875L56.8751 18.5L53.4376 9.75L53.3126 9.3125L50.7501 8.1875L49.3751 8.625L48.0001 9.0625L47.5626 9.875L47.1876 10.625L46.0001 10.6875L43.8126 11.125L42.9376 12.375L42.3126 13.1875L42.3751 15.75V17.125L40.9376 17.625L38.4376 18.75L36.9376 19.75L36.3126 20.25L35.9376 21.1875L35.5626 22.4375L33.6251 22.5L32.3751 22.75L32.0626 22.4375L30.7501 22.8125L29.0626 23.625L27.7501 24.375L27.2501 24.5625L27.3751 24.9375L27.0001 25.125C27.0001 25.125 26.8126 25.375 26.7501 25.5C26.6876 25.625 26.8751 25.875 26.8751 25.875L27.2501 25.375L27.5626 25.125C27.5626 25.125 27.8126 25.3125 28.3751 25.375C29.0001 25.4375 31.1251 25.3125 31.1251 25.3125L32.0001 25.25L32.3751 25.125L32.5001 24.875C32.5001 24.875 33.0001 24.8125 33.4376 24.8125C33.8751 24.75 34.8751 24.375 34.8751 24.375L35.1876 24.1875C35.1876 24.1875 37.4376 24.75 37.9376 24.875C38.4376 25 39.7501 25.125 39.7501 25.125V25.625L40.0626 25.75C40.0626 25.75 42.1251 26.1875 42.6876 26.3125C43.2501 26.4375 44.1251 26.4375 44.1251 26.4375L45.0001 26C45.0001 26 45.5626 26.1875 46.0626 26.125C46.5626 26.0625 46.8126 26 46.8126 26L47.6251 26.125H48.8126L49.2501 26.0625C49.2501 26.0625 49.1251 26.3125 49.1876 26.4375C49.2501 26.5625 49.5626 26.625 49.5626 26.625L50.2501 26.875C50.2501 26.875 50.6876 26.875 50.9376 26.75C51.1876 26.625 51.6251 26.3125 51.6251 26.3125C51.6251 26.3125 52.0001 26.4375 52.6876 26.375C53.3751 26.3125 53.8126 26.1875 53.8126 26.1875C53.8126 26.1875 54.3126 26.25 55.1251 26.25C55.5001 26.25 55.9376 26.25 56.3126 26.1875C56.8126 26.1875 57.0001 26.0625 57.0001 26.5C57.0001 27.1875 56.8751 27.875 56.8126 28.5625C56.8126 29.75 56.8751 30.5 56.8751 30.5C56.8751 30.5 56.8126 30.625 57.1876 30.875C57.5626 31.125 57.8126 31.1875 57.8126 31.1875C57.8126 31.1875 59.0001 31.5 59.7501 31.625C60.5001 31.75 61.2501 31.8125 61.2501 31.8125L60.7501 33.75L60.5001 33.6875C60.5001 33.6875 59.6876 33.9375 59.4376 34.125C59.2501 34.3125 59.2501 34.5625 59.2501 34.5625C59.2501 34.5625 59.3126 34.875 59.6876 35C60.0626 35.125 60.4376 35.0625 60.4376 35.0625L60.8751 34.9375C60.8751 34.9375 61.5001 35.5625 62.4376 36C63.3751 36.4375 64.0001 36.5625 64.0001 36.5625L64.6876 36.75C64.6876 36.75 64.9376 37 65.5001 37C66.0626 36.9375 66.5001 36.75 66.5001 36.75C66.5001 36.75 66.8751 36.5 66.9376 36.4375C67.0001 36.375 67.0626 36.25 67.0626 36.25C67.0626 36.25 67.6251 36.125 67.7501 36.0625C67.8751 36 67.9376 35.8125 67.9376 35.75C67.9376 35.6875 67.6876 35.5 67.6876 35.5L68.3751 34.9375C68.3751 34.9375 69.4376 34.0625 69.6876 33.75C69.9376 33.4375 70.0626 33.25 70.0626 33.25L70.625 32.875C70.625 32.875 70.8751 32.625 70.6876 32.4375C70.5001 32.25 70.1876 32 70.1876 32L70.625 31.75Z" fill="#8F4C1F"/>
  <path d="M14.125 23.1875C14.125 23.1875 13.875 26.5 13.875 27.8125C13.875 29.125 13.75 34.0625 13.75 34.0625L13.125 34.125L12.875 36.0625C12.875 36.0625 13.5 36.625 13.9375 36.875C14.3125 37.125 15.0625 37.375 15.0625 37.375C15.0625 37.375 15.875 37.25 16.0625 37.0625C16.25 36.875 16.3125 36.5 16.3125 36.5C16.3125 36.5 17.4375 36.6875 17.6875 36.625C17.9375 36.5625 18.25 36.375 18.25 36.375L19.6875 36.6875H21C21 36.6875 21.75 37.4375 22.75 37.8125C23.6875 38.25 24.125 38.1875 24.125 38.1875L25.25 38.0625L26.125 37.9375C26.125 37.9375 26.5 37.9375 27.25 37.8125C28 37.6875 28.6875 37.3125 28.6875 37.3125L29.1875 37C29.1875 37 29.0625 35.875 28.625 34.6875C28.25 33.5 27.75 32.5625 27.75 32.5625L26.375 31.9375L24.625 31.5L23.6875 31.3125L23.125 31.25L22.5 29.4375L22.3125 28.75L23.3125 28.125L24.1875 27.3125L24.5625 26.875L25.375 26.8125L25.5625 26.75L26.0625 26.875C26.0625 26.875 26.4375 26.8125 26.5 26.75C26.5625 26.625 26.625 26.4375 26.5625 26.25C26.5 26.125 26.3125 26 26.3125 26L25.9375 25.9375L25.75 26L25.5 26.0625C25.5 26.0625 25 25.75 24.5625 25.6875C24.0625 25.6875 23.5625 25.6875 23.5625 25.6875L22.625 25.8125L21.75 25.5L21.0625 25.3125L20.4375 23.75V23.625L19.1875 22.9375L17.9375 22.375L16.5625 22.5625C16.375 22.75 14.1875 23.0625 14.125 23.1875Z" fill="#8F4C1F"/>
  <path d="M32.5625 25.25C32.8125 25.25 33.0625 25.25 33.375 25.3125C34.125 25.4375 34.875 25.5625 35.625 25.75L39.125 26.5625C39.125 26.5625 40.8125 26.8125 41.25 27.4375C41.6875 28.0625 41.4375 28.5 41.4375 28.5L41 29.25L40.25 29.9375C40.25 29.9375 39.9375 30.3125 40.1875 30.75C40.4375 31.125 41 31.5625 41 31.5625C41 31.5625 42.375 32.375 44.0625 32.875C45.75 33.375 46.875 33.5625 46.875 33.5625L51 34.1875C51 34.1875 54.5 34.625 55.875 34.9375C57.25 35.25 58.875 35.75 58.875 35.75C58.875 35.75 61.375 36.5625 62.3125 37.375C63.3125 38.1875 64.0625 39.0625 64.0625 39.0625L64.75 40.5C64.75 40.5 64.3125 41.4375 63.1875 41.375C62.0625 41.3125 56.875 42.0625 56 42.6875C55.1875 43.375 52.4375 43.125 50.8125 43.125C49.1875 43.125 47.1875 43.125 46.5 43.5C45.8125 43.875 43.8125 44.0625 43.4375 43.875C43.0625 43.6875 39.75 43.75 39.25 44C38.75 44.1875 37.5 44.625 37.375 43.875C37.25 43.125 37.5 42.625 37.3125 41.75C37.125 40.8125 36.3125 39.9375 36.3125 39.9375C36.3125 39.9375 35.9375 39.3125 34.4375 38.6875C32.9375 38.0625 32.1875 37.875 32.1875 37.875L30.4375 37.25L29.6875 36.8125C29.6875 36.8125 29.375 35 29.0625 34.125C28.75 33.1875 28.25 32.4375 28.25 32.4375L26.3125 31.625L25.0625 31.375C25.0625 31.375 25.625 30.6875 26.75 30.25C27.875 29.8125 28.8125 29.25 28.8125 29.25C28.8125 29.25 29.8125 28.6875 29.8125 28.1875C29.8125 27.6875 29.375 27.5625 29.375 27.5625C28.875 27.4375 28.4375 27.25 28 27.125C27.0625 26.875 26.6875 25.9375 27.875 25.5625C28.3125 25.4375 28.8125 25.4375 29.25 25.4375C30.0625 25.4375 30.8125 25.4375 31.625 25.25C32.125 25.3125 32.375 25.25 32.5625 25.25Z" fill="#F9A063"/>
  <path d="M31.8125 25.375L34.875 25.9375L38.375 26.75C38.375 26.75 40.0625 27 40.5 27.625C40.9375 28.25 40.6875 28.6875 40.6875 28.6875L40.25 29.4375L39.5 30.125C39.5 30.125 39.1875 30.5 39.4375 30.9375C39.6875 31.3125 40.25 31.75 40.25 31.75C40.25 31.75 41.625 32.5625 43.3125 33.0625C45 33.5625 46.125 33.75 46.125 33.75L50.25 34.375C50.25 34.375 53.75 34.8125 55.125 35.125C56.5 35.4375 58.125 35.9375 58.125 35.9375C58.125 35.9375 60.625 36.75 61.5625 37.5625C62.5625 38.375 63.3125 39.25 63.3125 39.25L64 40.6875C64 40.6875 63.5625 41.625 62.4375 41.5625C61.3125 41.5 56.125 42.25 55.25 42.875C54.375 43.5 51.6875 43.3125 50.0625 43.3125C48.4375 43.3125 46.4375 43.3125 45.75 43.6875C45.0625 44.0625 43.0625 44.25 42.6875 44.0625C42.25 43.875 39 43.9375 38.5 44.1875C38 44.375 36.75 44.8125 36.625 44.0625C36.5 43.3125 36.75 42.8125 36.5625 41.9375C36.375 41 35.5625 40.125 35.5625 40.125C35.5625 40.125 35.1875 39.5 33.6875 38.875C32.1875 38.25 31.4375 38.0625 31.4375 38.0625L29.6875 37.4375L28.9375 37C28.9375 37 28.625 35.1875 28.3125 34.3125C28 33.375 27.5 32.625 27.5 32.625L25.5625 31.8125L24.3125 31.5625C24.3125 31.5625 24.875 30.875 26 30.4375C27.125 30 28.0625 29.4375 28.0625 29.4375C28.0625 29.4375 29.0625 28.875 29.0625 28.375C29.0625 27.875 28.625 27.75 28.625 27.75L27.625 27.4375L26 27C26 27 26.25 26.875 26.25 26.6875C26.25 26.5 26.1875 26.375 26.1875 26.375L27.5625 25.0625C27.5625 25.0625 28.1875 25.3125 29.1875 25.3125C30.1875 25.3125 31.8125 25.375 31.8125 25.375Z" fill="#27B6D6"/>
  <path d="M32.6875 25.9375L35.1875 26.4375L38 27.1875C38 27.1875 39.375 27.4375 39.75 28C40.125 28.5625 39.875 29 39.875 29L39.5 29.6875L38.875 30.3125C38.875 30.3125 38.625 30.6875 38.875 31.0625C39.0625 31.4375 39.5 31.8125 39.5 31.8125C39.5 31.8125 40.625 32.5625 42 33C43.375 33.5 44.25 33.625 44.25 33.625L47.5625 34.1875C47.5625 34.1875 50.375 34.5625 51.5 34.875C52.625 35.125 53.9375 35.625 53.9375 35.625C53.9375 35.625 55.9375 36.375 56.75 37.125C57.5625 37.875 58.125 38.6875 58.125 38.6875C58.3125 38.9375 58.6875 39.6875 58.6875 40C58.625 40.8125 57.3125 41.625 56.5625 41.875C54.75 42.4375 52.875 42.75 50.9375 42.6875C49.8125 42.6875 48.625 42.5625 47.5 42.75C45.5 43.0625 43.6875 44.375 41.625 44.125C41.1875 44.0625 40.8125 43.9375 40.375 43.875C39.125 43.6875 37.8125 44 36.625 44.375C37.125 43.25 36.75 42.25 36.5625 41.125C36.4375 40.3125 35.75 39.5 35.75 39.5C35.75 39.5 35.4375 38.9375 34.25 38.375C33.0625 37.8125 32.4375 37.625 32.4375 37.625C31.4375 37.25 30.375 36.75 29.375 36.3125C29.25 36.25 29.0625 36.125 29 36.0625C28.875 35.9375 28.875 35.8125 28.8125 35.625C28.625 34.875 28.375 34.25 28.0625 33.5625C27.6875 32.8125 26.875 32.1875 25.9375 32.0625C27.1875 31.1875 28.4375 30.625 29.75 29.8125C29.75 29.8125 30.5625 29.3125 30.5625 28.875C30.5625 28.4375 30.25 28.3125 30.25 28.3125L29.4375 28C28.5 27.6875 27.5625 27.5 26.625 27.3125C26.5625 27.3125 26.4375 27.25 26.375 27.1875C26.3125 27.125 26.3125 27 26.375 26.9375C26.5625 26.4375 27.0625 26.0625 27.5 25.6875C27.5625 25.625 27.6875 25.5625 27.8125 25.5C27.9375 25.5 28 25.5 28.125 25.5C29.75 25.75 31.0625 25.9375 32.6875 25.9375Z" fill="#74D1F6"/>
  <path d="M17.5625 24.6875C17.5625 24.6875 17.5625 28.1875 17.75 29.875C17.9375 31.5625 18.3125 34.1875 18.3125 34.1875L18.5625 35.6875C18.5625 35.6875 18.3125 36.3125 17.875 36.5C17.4375 36.625 16.25 36.5 16.25 36.5C16.25 36.5 16 35.4375 15.75 35C15.5 34.5625 15.125 34.3125 15.125 34.3125L14.1875 34.0625H13.75C13.75 34.0625 13.9375 29.5625 13.875 27.8125C13.8125 26.125 14.1875 23.4375 14.1875 23.4375C14.1875 23.4375 17.3125 24.4375 17.5625 24.6875Z" fill="#AC5D2C"/>
  <path d="M21.3749 33.25C21.3749 33.25 23.1874 33.8125 23.7499 33.875C24.3124 33.9375 25.3749 34 25.3749 34L25.8124 36.125L26.1874 38L24.8124 38.1875C24.8124 38.1875 23.6874 38.4375 22.8124 37.875C21.9374 37.375 21.0624 36.75 21.0624 36.75C21.0624 36.75 20.9374 33.3125 21.3749 33.25Z" fill="#AC5D2C"/>
  <path d="M13.1252 34.3125L14.6252 34.8125C14.6252 34.8125 15.3127 34.875 15.3127 35.25C15.3127 35.625 15.1252 36.3125 15.1252 36.3125L14.8127 37.1875C14.8127 37.1875 14.0002 36.9375 13.5627 36.6875C13.1252 36.4375 12.8752 36.25 12.8752 36.25C12.8752 36.25 12.8127 34.375 13.1252 34.3125Z" fill="#AC5D2C"/>
  <path d="M36.4375 20.25C36.4375 20.25 35.9375 21.5 35.6875 22.1875C35.5 22.8125 35.5 24.25 35.5 24.25L37.5 24.75L39.9375 25.1875C39.9375 25.1875 40.375 24.75 40.6875 24.5C41 24.25 41.8125 23.8125 41.8125 23.8125L42.1875 23.75L42.375 20.3125L39.625 20.5L37.4375 20.625C37.4375 20.5625 36.5625 20.375 36.4375 20.25Z" fill="#AC5D2C"/>
  <path d="M43.1875 23.3125L43.5625 19.375L44.6875 18.1875L44.0625 16.4375L44.5 13L46.6875 12.8125L46.4375 15.875L45 17.25L45.5625 18.25C45.5625 18.25 46.125 18.0625 46.25 18.3125C46.4375 18.5625 46.5 18.625 46.1875 18.875C45.875 19.125 45.625 19.25 45.625 19.25L45.75 22.3125L45.1875 22.75L45.125 24.125L43.9375 23.4375L43.1875 23.3125Z" fill="#AC5D2C"/>
  <path d="M48.0625 9L48.625 10.125L51.125 11.0625L52.125 15.4375L52.3125 16.25C52.3125 16.25 52.625 15.8125 52.875 16.125C53.125 16.375 53.25 16.625 53.125 16.9375C53 17.1875 53 17.1875 53 17.1875L52.4375 17.125L52.625 17.625V17.875H52.0625L51.375 18.125C51.375 18.125 51 17.5625 50.875 17.125C50.75 16.6875 50.5625 15.875 50.5625 15.875L51.1875 15.6875L51.5625 15.25L50.3125 13.6875L47.875 14.5625L47.9375 15.1875L47.375 15.4375L46.3125 16.0625L46.6875 12.125C46.75 12 47.8125 9.3125 48.0625 9Z" fill="#AC5D2C"/>
  <path d="M54.375 17.9375L56.0625 20.3125L60.25 20.375L59.9375 21.9375L58.25 23.1875L57.8125 23.8125L57.4375 25.1875H56.875L56.5625 25.375L55.75 25L54.8125 25.3125L54.125 25.6875C54.125 25.6875 54.3125 25.0625 54.1875 24.875C54.0625 24.625 53.625 24.375 53.625 24.375L53.5 21.125L54.75 19.75L54.375 17.9375Z" fill="#AC5D2C"/>
  <path d="M60.875 20C60.875 20 61.625 20.1875 62.1875 20.1875C62.75 20.1875 63.875 20.4375 63.875 20.4375L64 22.9375L64.125 23.9375L62.375 24.0625L61.375 24L59.1875 24.8125L58.625 29.375L58.3125 26.3125L57.5625 25.5L57.8125 23.9375L59.875 23.1875L60.5 19.8125L60.875 20Z" fill="#AC5D2C"/>
  <path d="M61.9375 31.3124C61.9375 31.3124 61.9375 31.9374 62.8125 32.1249C63.6875 32.3749 65.4375 32.5624 65.4375 32.5624C65.4375 32.5624 65.5625 34.0624 65.5625 34.4999C65.5625 34.9374 65.125 36.6874 65.125 36.6874C65.125 36.6874 63.75 36.4374 62.375 35.6874C61 34.9374 60.875 34.4999 60.875 34.4999C60.875 34.4999 61.75 31.2499 61.9375 31.3124Z" fill="#AC5D2C"/>
  <path d="M62.9375 26C62.9375 26 63.5625 25.125 63.875 24.8125C64.1875 24.5625 64.875 24.0625 64.875 24.0625L65.3125 24.5L66.1875 26.75L67.4375 30.875C67.4375 30.875 68.75 31.3125 69.0625 31.625C69.375 31.875 69.75 32.3125 69.75 32.3125C69.75 32.3125 68.4375 31.625 68.1875 31.75C67.9375 31.875 67.5 32.75 67.5 32.75L68.25 34.8125C68.25 34.8125 67.375 32.9375 67.0625 32.4375C66.75 31.9375 66.375 31.4375 66.375 31.4375L64.3125 30.8125L63.625 30.5L63.125 30.625C63.125 30.625 63.125 26.3125 62.9375 26Z" fill="#63320B"/>
  <path d="M64.0623 20.5625L65.6873 19.4375L66.6248 18.9375C66.6248 18.9375 68.3748 23.3125 68.9998 26.125C69.5623 28.9375 70.1248 31.75 70.1248 31.75L69.6873 31.875C69.4998 32.0625 68.2498 31.3125 68.2498 31.3125L67.3748 30.9375C67.3748 30.9375 66.3748 27.375 65.9373 26.1875C65.4998 25 65.3123 24.625 65.3123 24.625L64.8748 24.1875L64.0623 24.0625C64.0623 23.9375 63.8123 20.6875 64.0623 20.5625Z" fill="#763E16"/>
  <path d="M65.4375 32.625C65.4375 32.625 65.5625 34.4375 65.5 34.8125C65.4375 35.1875 65.125 36.6875 65.125 36.6875C65.125 36.6875 65.625 35.75 66.3125 35.5625C67 35.375 67.25 35.5 67.25 35.5L67.4375 35.8125L68.375 35.1875C68.375 35.1875 67.8125 33.625 67.4375 33.125C67.125 32.6875 66.5625 31.9375 66.5625 31.9375L65.4375 32.625Z" fill="#763E16"/>
  <path d="M51.1875 11.125L52.4375 16.3125C52.4375 16.3125 52.625 15.875 53 16.1875C53.375 16.4375 53.25 17 53.25 17L53.125 17.25L52.5625 17.1875L53.4375 21.0625L54.6875 19.6875L54.3125 17.9375L56 20.3125L57.375 19.625L54.8125 13L53.375 9.1875C53.375 9.1875 53.125 10.0625 52.5625 10.375C52.0625 10.8125 51.1875 11.125 51.1875 11.125Z" fill="#763E16"/>
  <path d="M46.875 15.75C46.875 15.75 47.625 15.3125 48.375 15.25C49.125 15.1875 49.875 15 49.875 15L50.9375 17.625L50.5625 15.875L51.5625 15.25L50.3125 13.6875L48.8125 14.1875L47.875 14.5625L47.9375 15.1875L46.875 15.75Z" fill="#763E16"/>
  <path d="M47.5625 21.5C47.5625 21.5 49.5625 23.625 49.625 23.8125C49.6875 24.0625 48.75 25 48.75 25L47 25.0625L45.75 24.5625L45.6875 25.375L46.75 25.3125L47.125 25.9375L48.6875 26.1875L49.5625 26.0625L50.1875 25.1875C50.1875 25.1875 50 24.875 50.1875 24.5625C50.375 24.3125 50.375 24.0625 50.375 24.0625L51.0625 23.8125C51.0625 23.8125 48.6875 21.625 47.5625 21.5Z" fill="#763E16"/>
  <path d="M52.25 23.75C52.4375 23.875 52.625 24 52.8125 24.1875C52.9375 24.3125 53.125 24.4375 53.0625 24.5625C53.0625 24.625 53 24.6875 52.9375 24.75C52.3125 25.3125 51.3125 25.625 50.4375 25.4375C50.625 25.625 50.875 25.6875 51.125 25.6875C51.125 25.75 51.25 25.875 51.3125 25.8125C51.1875 26.375 50.375 26.75 49.75 26.5625C50.375 26.9375 51.3125 26.8125 51.8125 26.25C51.6875 26.3125 51.5625 26.125 51.625 26C51.6875 25.875 51.75 25.8125 51.875 25.75C52.0625 25.625 52.3125 25.5 52.5 25.375C52.625 25.3125 52.6875 25.25 52.8125 25.25C53.0625 25.25 53.25 25.375 53.4375 25.5625C53.5 25.625 53.625 25.75 53.5625 25.8125C53.5625 25.875 53.5 25.875 53.4375 25.875C53.125 26.0625 52.8125 26.25 52.4375 26.375C53 26.25 53.625 26.1875 54.1875 26.0625C54.25 26 54.0625 25.9375 54 25.875C53.9375 25.8125 54 25.75 54 25.6875C54.0625 25.375 54.125 25.0625 54 24.8125C53.6875 24.25 52.75 24.3125 52.25 23.875V23.75Z" fill="#763E16"/>
  <path d="M54.375 26C54.875 26 55.375 25.9375 55.8125 25.875C55.875 25.875 55.9375 25.8125 56 25.8125C56 25.75 56 25.75 56 25.6875C56 25.5 55.875 25.375 55.75 25.1875C56 25.375 56.25 25.5625 56.5 25.6875C56.5625 25.75 56.6875 25.75 56.625 25.875C56.625 25.875 56.625 25.9375 56.5625 25.9375C56.3125 26.1875 55.875 26.25 55.5 26.25C55.125 26.25 54.6875 26.125 54.3125 26.1875C54.25 26.1875 54.1875 26.1875 54.125 26.1875C54.0625 26.1875 54.0625 26.125 54.0625 26.0625C54.25 26 54.25 26 54.375 26C54.375 26 54.5 26 54.5625 26H54.375Z" fill="#763E16"/>
  <path d="M41.75 23.875C41.1875 24.1875 40.6875 24.5625 40.25 25C41.9375 25.1875 43.6875 25.375 45.375 24.875C45.4375 24.875 45.5625 24.8125 45.625 24.75C45.6875 24.625 45.5625 24.5 45.4375 24.375C45 24.0625 44.5 23.8125 44 23.5625C43.875 23.5 43.75 23.4375 43.625 23.4375C43.4375 23.4375 43.25 23.4375 43.0625 23.5C42.625 23.625 42.1875 23.75 41.75 23.8125V23.875Z" fill="#B7632F"/>
  <path d="M45.25 17.3125C45.9375 17.25 46.625 16.625 47.25 16.3125C48.0625 15.9375 48.9375 15.625 49.8125 15.4375C50.1875 15.375 50.0625 14.9375 49.75 14.875C48.8125 14.875 47.75 15.4375 46.9375 15.8125C46.25 16.125 45.25 16.5625 45.25 17.3125C45.1875 17.3125 45.1875 17.25 45.25 17.3125Z" fill="#B7632F"/>
  <path d="M45.375 22.9999C45.6875 23.0624 46.0625 22.7499 46.375 22.6249C46.8125 22.3749 47.25 22.1874 47.6875 21.9374C47.9375 21.8124 47.75 21.4999 47.4375 21.5624C46.9375 21.7499 46.5 21.9999 46.0625 22.3124C45.8125 22.4374 45.375 22.6874 45.375 22.9999Z" fill="#B7632F"/>
  <path d="M50.625 24.1875C50.8125 24.3125 51.0625 24.375 51.3125 24.375C51.5625 24.375 51.9375 24.375 52.1875 24.25C52.375 24.125 52.3125 23.9375 52.125 23.875C51.875 23.8125 51.5 23.875 51.25 23.9375C51.0625 23.9375 50.8125 24 50.625 24.1875Z" fill="#B7632F"/>
  <path d="M51.875 26.0001C52.0625 26.0626 52.25 25.9376 52.375 25.8751C52.5625 25.7501 52.8125 25.6876 53 25.5626C53.1875 25.4376 53 25.1876 52.8125 25.2501C52.5625 25.3751 52.375 25.5001 52.1875 25.6251C52.0625 25.6876 51.9375 25.8126 51.875 26.0001Z" fill="#B7632F"/>
  <path d="M27.5625 24.6249C28.1875 24.8124 28.8125 24.3124 29.375 24.0624C30.3125 23.6874 31.1875 23.2499 32.125 22.9374C32.5 22.8124 32.3125 22.3124 31.9375 22.4374C31.0625 22.7499 30.1875 23.1249 29.3125 23.4999C28.75 23.8124 27.8125 24.0624 27.5625 24.6249Z" fill="#B7632F"/>
  <path d="M32.8125 22.875C33.25 22.9375 33.625 22.875 34.0625 22.8125C34.5625 22.75 35.0625 22.75 35.5 22.8125C35.8125 22.8125 35.8125 22.4375 35.5 22.375C34.6875 22.4375 33.5 22.375 32.8125 22.875Z" fill="#B7632F"/>
  <path d="M14.8751 23.25L17.6876 24.1875L19.0001 23.9375L20.3126 23.875L19.2501 23.1875L17.6876 22.5625C17.6876 22.5625 15.6876 22.8125 15.1251 22.875C14.6876 23.0625 14.4376 23.125 14.8751 23.25Z" fill="#CF8657"/>
  <path d="M21.75 27.5C21.4375 27.1875 21.6875 26.6875 22.0625 26.5C22.4375 26.3125 22.9375 26.3125 23.375 26.375C23.3125 26.3125 23.375 26.25 23.5 26.1875C24.1875 25.9375 24.9375 26.125 25.625 26.3125C25 25.8125 24.125 25.625 23.3125 25.875C23.125 25.9375 22.875 26 22.6875 26C22.5625 26 22.4375 25.9375 22.3125 25.9375C21.875 25.8125 21.4375 25.625 21 25.5C21.375 26.1875 21.625 26.9375 21.8125 27.6875L21.75 27.5Z" fill="#CF8657"/>
  <path d="M23 31.4373C23.25 31.3123 23.625 31.4373 23.875 31.4998C25.125 31.8123 26.3125 32.1873 27.5625 32.5623C27.625 32.5623 27.75 32.6248 27.75 32.6873C27.75 32.7498 27.6875 32.8123 27.625 32.8748C27 33.2498 26.3125 33.5623 25.5625 33.7498C25.5 33.7498 25.4375 33.7498 25.375 33.7498C25.3125 33.7498 25.25 33.6873 25.25 33.6873C24.5625 32.9373 23.8125 32.1873 23 31.4373Z" fill="#CF8657"/>
  <path d="M20.125 23.9998C19.625 24.3748 19.1875 24.8123 18.75 25.2498C19.125 27.6873 19.9375 30.1248 21.125 32.3748C21.1875 32.4998 21.25 32.5623 21.25 32.6873C21.25 32.8123 21.25 32.9373 21.25 33.0623C21 34.2498 21 35.3748 20.9375 36.5623C20.6875 36.7498 20.3125 36.7498 20 36.7498C19.375 36.6873 18.8125 36.5623 18.25 36.3748C18.5625 35.9373 18.4375 35.3748 18.375 34.8748C17.875 31.6248 17.5 28.3748 17.5625 25.1248C17.5625 24.8123 17.625 24.4373 17.875 24.1873C18 24.0623 18.1875 24.0623 18.3125 23.9998C18.875 23.8123 19.5 23.8123 20.0625 23.8748C20.125 23.8748 20.1875 23.8748 20.1875 23.9373C20.25 23.9998 20.1875 24.0623 20.125 23.9998Z" fill="#763E16"/>
  <path d="M21.8125 26.875C22.3125 27.1875 22.8125 27.4375 23.3125 27.625C23.625 27.3125 24 27.125 24.4375 26.9375C23.75 27.75 23 28.4375 22.1875 29.125C22.125 28.1875 21.4375 27.3125 21.3125 26.375C21.5 26.625 21.75 26.8125 22 26.9375L21.8125 26.875Z" fill="#763E16"/>
  <path d="M28.6875 37.3125C28.75 37.25 28.875 37.25 28.875 37.125C28.9375 37 28.9375 36.8125 28.875 36.6875C28.5 35.5 28 34.375 27.4375 33.25C27.375 33.1875 27.3125 33.0625 27.25 33.0625C27.1875 33.0625 27.0625 33.0625 27 33.125C26.6875 33.25 26.375 33.4375 26 33.625C25.6875 33.75 25.3125 33.75 25.3125 34.125C25.5 35.375 25.75 36.5625 26.0625 37.8125C26.0625 37.875 26.0625 37.875 26.125 37.9375C26.1875 37.9375 26.1875 37.9375 26.25 37.9375C26.6875 37.9375 27.0625 37.9375 27.5 37.875C27.9375 37.75 28.3125 37.5 28.6875 37.3125Z" fill="#763E16"/>
  <path d="M36.8752 19.9376C36.8752 19.9376 38.6877 20.0001 40.3752 19.8751C42.0627 19.7501 42.3752 19.6876 42.3752 19.6876L42.4377 17.2501C42.4377 17.2501 42.1877 17.1876 40.5002 17.7501C38.7502 18.3126 36.6877 19.8751 36.8752 19.9376Z" fill="#CF8657"/>
  <path d="M42.625 12.8125L44.8125 12.625L47.0625 11.0625L47.25 10.625L45.875 10.75L44.3125 11.125H43.875L42.625 12.8125Z" fill="#CF8657"/>
  <path d="M48.9997 10.25L51.0622 10.3125L53.2497 9.1875L52.1872 8.6875L50.9372 8.125L49.1872 8.6875L48.1872 9C48.0622 9 48.6872 10.1875 48.9997 10.25Z" fill="#CF8657"/>
  <path d="M45.4375 16.8124C45.4375 16.8124 45.875 16.1874 46.875 15.7499C47.875 15.3124 48.5625 15.0624 48.5625 15.0624C48.5625 15.0624 49.5625 14.7499 49.875 14.9374C50.1875 15.1249 50 15.3124 50 15.3124C50 15.3124 48.625 15.3749 47.5 15.9999C46.375 16.6249 45.4375 16.8124 45.4375 16.8124Z" fill="#CF8657"/>
  <path d="M40.6875 24.4375C40.6875 24.4375 41.75 23.75 42.5625 23.5625C43.375 23.375 43.9375 23.375 43.9375 23.375L45.625 24.5C45.625 24.5 44.125 24.875 43 24.875C41.9375 24.875 40.6875 24.4375 40.6875 24.4375Z" fill="#CF8657"/>
  <path d="M56.0625 20.375L57.4375 19.6875L59.125 19.9375C59.125 19.9375 59.1875 20.0625 59.4375 20.1875C59.75 20.3125 60.25 20.375 60.25 20.375L60.1875 20.4375H59.375L56.0625 20.375Z" fill="#CF8657"/>
  <path d="M60.5625 19.8125C60.5625 19.8125 61.375 20.1875 62.1875 20.25C63 20.3125 64.125 20.5625 64.125 20.5625L65.9375 19.25L67.1875 18.5625L65.0625 18.125L63.5625 18H62.1875C62.1875 18 60.4375 19.6875 60.5625 19.8125Z" fill="#CF8657"/>
  <path d="M59.1875 24.75L59.125 24.8125L61.25 25.625L62.9375 25.9375C62.9375 25.9375 63.3125 25.1875 63.875 24.75C64.5 24.3125 64.875 24 64.875 24L63.375 24.0625L61.5 24L61.3125 23.875L59.1875 24.75Z" fill="#CF8657"/>
  <path d="M62.2501 31L61.9376 31.125C61.9376 31.125 61.7501 31.625 61.8126 31.6875C61.9376 31.75 63.3126 32.25 63.3126 32.25C63.3126 32.25 64.5001 32.5 64.7501 32.5C65.0001 32.5 65.5001 32.625 65.5001 32.625L66.3751 32.0625C66.3751 32.0625 66.7501 31.75 66.3751 31.5C66.0001 31.25 65.1876 31.125 65.1876 31.125L63.5001 30.625L62.2501 31Z" fill="#CF8657"/>
  <path d="M57.75 31.0625L61.1875 33.125L61.5625 31.8125C61.625 31.8125 58.125 31.3125 57.75 31.0625Z" fill="#B46424"/>
  <path d="M65.25 36.75C65.25 36.75 67.6875 37.5 67.9375 37.625C68.1875 37.8125 68.75 38.3125 68.75 38.3125C68.75 38.3125 70.0625 37.75 70.5625 36.5C71.0625 35.25 70.75 34.25 70.75 34.25L70.4375 33.125C70.4375 33.125 69.375 34.375 69.0625 34.6875C68.6875 35 68.0625 35.375 68.0625 35.375C68.0625 35.375 68.3125 35.5625 68.125 36C67.9375 36.4375 67.4375 36.1875 67.4375 36.1875C67.4375 36.1875 67.3125 37.0625 65.25 36.75Z" fill="#B46424"/>
  <path d="M24.4375 26.9375L23.8125 29.9375L24.875 31.3125C24.875 31.3125 23.3125 32 22.875 30.75C22.375 29.5625 22.1875 28.875 22.1875 28.875C22.1875 28.875 24.0625 27.6875 24.4375 26.9375Z" fill="#B46424"/>
  <path d="M13.5625 36.6875L16.125 38.75L17.25 38.625L22.0625 42.375L25.9375 42.875L27.8125 42.3125L26.9375 39.6875C26.9375 39.6875 28.875 39 29.4375 38.8125C30 38.625 29.8125 37.5625 29.8125 37.5625L29.0625 37.125C29.0625 37.125 27.6875 38.0625 27.1875 38.0625C26.6875 38.0625 26.0625 37.9375 26.0625 37.9375C26.0625 37.9375 24 38.4375 23.25 38.25C22.5 38.0625 20.8125 36.8125 20.8125 36.8125H19.25L18.125 36.5L17.3125 36.8125L16.125 36.625C16.125 36.625 15.9375 37.25 15.4375 37.375C15 37.375 14.0625 37 13.5625 36.6875Z" fill="#B46424"/>
  <path d="M12.1252 29.25L13.6877 31.4375V34.0625L13.0627 34.125L12.8127 36.0625L14.1252 38C14.3127 38.25 13.1252 39.0625 13.5002 39.6875C14.5627 41.5625 16.2502 43.125 18.3127 44.1875C17.8752 44.125 17.5627 43.9375 17.1877 43.75C16.1877 43.1875 15.1877 42.6875 14.3127 42C12.5627 40.6875 11.6877 38.5 9.62524 37.375C8.87524 36.9375 7.31274 35.3125 7.43774 34.625C7.56274 33.875 9.06274 31.125 12.1252 29.25Z" fill="#F0914E"/>
  <path d="M30.25 37.875L33.4375 41.5L33.875 44.6875C33.875 44.6875 35.0625 44.8125 35.625 44.5625C36.1875 44.3125 36.375 42.25 35.8125 41C35.25 39.6875 32.4375 38.1875 30.25 37.875Z" fill="#F0914E"/>
  <path d="M42.625 26.4375L45.0625 27.375L46.3125 27.0625L50.375 28.25L52 28L57.0625 29.6875C57.0625 29.6875 57.375 30.75 57.5625 30.9375C57.8125 31.0625 59.5 32.0625 59.5 32.0625C59.5 32.0625 48.5 33.1875 46.875 31.375C45.1875 29.5 49.75 30.375 42.625 26.4375Z" fill="#F0914E"/>
  <path d="M14.125 23.4375C13.5625 26.9375 13.5625 30.5625 13.625 34.0625C13.625 34.125 13.75 34.125 13.75 34.0625C13.75 30.5 14.0625 27 14.125 23.4375Z" fill="#61461B"/>
  <path d="M13.25 34.0625C13.5 34.125 13.75 34.125 14 34.125C14.0625 34.125 14.0625 34.0625 14 34.0625C13.75 34.0625 13.5 34.0625 13.25 34.0625Z" fill="#61461B"/>
  <path d="M13 34.0625C12.9375 34.6875 12.8125 35.25 12.75 35.875C12.75 35.9375 12.875 35.9375 12.875 35.875C12.9375 35.25 13 34.6875 13.0625 34.0625C13.125 34 13 34 13 34.0625Z" fill="#61461B"/>
  <path d="M12.7499 36.0624C13.3124 36.5624 13.9374 36.9999 14.6874 37.2499C14.7499 37.2499 14.8124 37.1874 14.7499 37.1874C13.9999 36.9374 13.3749 36.4999 12.7499 36.0624C12.7499 35.9999 12.6874 36.0624 12.7499 36.0624Z" fill="#61461B"/>
  <path d="M14.9375 37.25C15.0625 36.75 15.1875 36.3125 15.25 35.8125C15.3125 35.625 15.4375 35.3125 15.3125 35.125C15.25 34.9375 14.9375 34.875 14.75 34.8125C14.25 34.625 13.6875 34.5 13.1875 34.3125C13.125 34.3125 13.0625 34.4375 13.125 34.4375C13.75 34.625 15 34.8125 15.125 35.5625C15.125 35.8125 15 36.125 14.9375 36.375C14.875 36.625 14.8125 36.9375 14.8125 37.1875C14.8125 37.25 14.9375 37.25 14.9375 37.25Z" fill="#61461B"/>
  <path d="M15.3125 35.1875C15.5 35 15.75 34.6875 15.5 34.4375C15.125 34.125 14.5 34 14.0625 33.9375C14 33.9375 13.9375 34.0625 14 34.0625C14.3125 34.125 14.5625 34.1875 14.8125 34.25C14.9375 34.3125 15.125 34.375 15.25 34.4375C15.375 34.5 15.4375 34.75 15.375 34.875C15.375 35 15.3125 35.0625 15.3125 35.1875C15.25 35.25 15.1875 35.1875 15.3125 35.1875Z" fill="#61461B"/>
  <path d="M16.1875 36.5C16.75 36.6875 17.5 36.9375 18.125 36.625C18.875 36.1875 18.5 35.375 18.4375 34.6875C17.875 31.5 17.6875 28.25 17.6875 25C17.6875 24.9375 17.5625 24.9375 17.5625 25C17.5 27 17.625 29 17.8125 31C17.875 31.8125 18 32.6875 18.125 33.5C18.1875 33.9375 18.25 34.3125 18.3125 34.75C18.375 35.125 18.4375 35.4375 18.5 35.8125C17.75 36.5625 17 36.75 16.25 36.4375C16.125 36.375 16.125 36.4375 16.1875 36.5Z" fill="#CF8657"/>
  <path d="M14.0625 23.375C15.1875 23.875 16.375 24.3125 17.5625 24.6875C17.625 24.6875 17.625 24.625 17.625 24.625C16.5 24.125 15.25 23.625 14.0625 23.375Z" fill="#61461B"/>
  <path d="M14.0624 23.1875C15.3124 23 16.4999 22.8125 17.7499 22.6875C17.8124 22.6875 17.8124 22.5625 17.7499 22.5625C16.4999 22.6875 15.2499 22.8125 14.0624 23.1875Z" fill="#AC5D2C"/>
  <path d="M17.625 22.625C18.5625 23 19.5 23.5 20.375 24C20.375 23.9375 20.375 23.9375 20.4375 23.875C19.5625 23.8125 18.6875 23.875 17.8125 24.1875C17.75 24.1875 17.75 24.3125 17.8125 24.3125C18.6875 24.0625 19.5 23.9375 20.375 24C20.4375 24 20.4375 23.9375 20.4375 23.875C19.5625 23.3125 18.6875 22.875 17.6875 22.5C17.625 22.5 17.625 22.5625 17.625 22.625Z" fill="#AC5D2C"/>
  <path d="M20.25 23.9999C21.1875 26.4999 22.125 28.9999 23 31.4999C23 31.5624 23.125 31.4999 23.0625 31.4999C22.1875 28.9999 21.3125 26.4999 20.3125 23.9999C20.3125 23.9374 20.25 23.9999 20.25 23.9999Z" fill="#61461B"/>
  <path d="M23.0625 31.375C22.3125 31.875 21.6875 32.5 21.125 33.125C21.0625 33.1875 21.125 33.25 21.1875 33.1875C21.8125 32.625 22.5 32 23.0625 31.375Z" fill="#61461B"/>
  <path d="M21.125 33.2499C20.875 34.3124 20.8125 35.4374 20.9375 36.5624C20.9375 36.6249 21.0625 36.6249 21.0625 36.5624C21.0625 35.4374 21.0625 34.3749 21.25 33.2499C21.1875 33.2499 21.125 33.1874 21.125 33.2499Z" fill="#432F05"/>
  <path d="M20.9374 36.875C21.6249 37.375 22.3124 37.875 23.1249 38.125C24.1874 38.4375 25.0624 38.125 26.1249 38.0625C26.1874 38.0625 26.1874 37.9375 26.1249 37.9375C25.1874 38 24.3749 38.3125 23.4374 38.125C22.4999 37.875 21.7499 37.3125 20.9374 36.875C20.9374 36.8125 20.8749 36.8125 20.9374 36.875Z" fill="#432F05"/>
  <path d="M21.3125 33.125C22.5 33.75 23.875 34.0625 25.3125 34.0625C25.375 34.0625 25.375 33.9375 25.3125 33.9375C23.875 33.9375 22.625 33.625 21.3125 33.125Z" fill="#61461B"/>
  <path d="M25.4375 33.9374C26.1875 33.6249 26.9375 33.3124 27.6875 32.9999C27.75 32.9374 27.6875 32.8124 27.625 32.8749C26.875 33.2499 26.125 33.5624 25.375 33.8124C25.3125 33.8124 25.375 33.9374 25.4375 33.9374Z" fill="#61461B"/>
  <path d="M27.6875 32.875C28.375 34.125 28.8125 35.4375 29 36.8125C29 36.875 29.125 36.875 29.125 36.8125C28.9375 35.4375 28.4375 34.0625 27.75 32.8125C27.75 32.75 27.6875 32.8125 27.6875 32.875Z" fill="#61461B"/>
  <path d="M25.3125 34C25.4375 35.25 25.6875 36.5 26 37.75C26 37.875 26.1875 37.8125 26.1875 37.6875C25.875 36.4375 25.625 35.25 25.4375 34C25.4375 33.9375 25.3125 33.9375 25.3125 34Z" fill="#432F05"/>
  <path d="M26.125 38.0625C27.3125 38.0625 28.4375 37.75 29.3125 37C29.375 36.9375 29.3125 36.875 29.25 36.875C28.3125 37.5 27.3125 37.875 26.125 37.9375C26.125 38 26.125 38.0625 26.125 38.0625Z" fill="#432F05"/>
  <path d="M18.0625 36.375C19 36.8125 20.125 36.9375 21.1875 36.8125C21.3125 36.8125 21.3125 36.6875 21.1875 36.6875C20.0625 36.6875 19.125 36.5625 18.0625 36.375Z" fill="#432F05"/>
  <path d="M42.125 23.875C42.5625 20.4375 42.5625 16.75 42.4375 13.25C42.4375 13.1875 42.3125 13.1875 42.3125 13.25C42.25 16.75 42.125 20.3125 42.125 23.875Z" fill="#61461B"/>
  <path d="M42.3749 13.1875C42.8749 12.5 43.3749 11.875 43.8749 11.1875C43.8749 11.1875 43.8749 11.125 43.8124 11.125C43.3124 11.75 42.7499 12.5 42.3749 13.1875C42.3749 13.25 42.3124 13.1875 42.3749 13.1875Z" fill="#AC5D2C"/>
  <path d="M43.9375 11.25C45.0625 10.9375 46.1875 10.75 47.3125 10.6875C47.375 10.6875 47.375 10.5625 47.3125 10.5625C46.125 10.625 45 10.875 43.875 11.1875C43.875 11.1875 43.875 11.25 43.9375 11.25Z" fill="#AC5D2C"/>
  <path d="M42.5 13.125C43.9375 13.0625 45.3125 13 46.75 12.875C46.8125 12.875 46.8125 12.75 46.75 12.75C45.375 12.875 43.9375 12.9375 42.5 13.125Z" fill="#61461B"/>
  <path d="M46.375 15.9375C46.5625 14.6875 46.625 13.375 46.75 12.125C46.75 12.0625 46.6875 12.0625 46.6875 12.125C46.5625 13.375 46.375 14.6875 46.3125 15.9375C46.3125 16 46.375 16 46.375 15.9375Z" fill="#61461B"/>
  <path d="M46.75 12.0625C47.125 11.125 47.5625 10.1875 48.125 9.31251C48.1875 9.25001 48.0625 9.18751 48 9.25001C47.4375 10.125 47 11.0625 46.625 12.0625C46.625 12.0625 46.6875 12.125 46.75 12.0625Z" fill="#61461B"/>
  <path d="M48 9.0625C48.9375 8.875 49.875 8.5 50.875 8.3125C50.9375 8.3125 50.9375 8.1875 50.8125 8.1875C49.875 8.375 48.8125 8.625 48 9.0625Z" fill="#AC5D2C"/>
  <path d="M50.5625 8.125C51.5 8.5625 52.5 8.875 53.375 9.375C53.4375 9.4375 53.5 9.3125 53.4375 9.25C52.5625 8.8125 51.5625 8.375 50.5625 8.125Z" fill="#AC5D2C"/>
  <path d="M53.4999 9.625C54.5624 13 55.8749 16.3125 57.2499 19.5625C57.3124 19.625 57.4374 19.625 57.4374 19.5C56.1249 16.1875 54.8749 12.875 53.4999 9.625C53.4999 9.5625 53.4374 9.5625 53.4999 9.625Z" fill="#61461B"/>
  <path d="M57.5 19.75C57.9375 19.9375 58.5 20.0625 59 20C59.0625 20 59.0625 19.9375 59 19.9375C58.4375 19.875 58 19.8125 57.5 19.75Z" fill="#61461B"/>
  <path d="M60.4375 19.8124C61 19.2499 61.5625 18.6874 62.125 18.1249C62.1875 18.0624 62.0625 17.9374 62 17.9999C61.4375 18.5624 60.875 19.1249 60.3125 19.7499C60.3125 19.8124 60.4375 19.8749 60.4375 19.8124Z" fill="#AC5D2C"/>
  <path d="M62.1875 18.1251C63.9375 17.9376 65.625 18.3126 67.3125 18.7501C67.4375 18.7501 67.4375 18.6251 67.375 18.6251C65.8125 18.2501 63.75 17.5626 62.1875 18.1251Z" fill="#AC5D2C"/>
  <path d="M67.1875 18.875C68.5625 23.25 69.9375 27.4375 70.4375 31.9375C70.4375 32 70.625 32 70.5625 31.9375C70.125 27.5625 69.25 22.9375 67.1875 18.875Z" fill="#432F05"/>
  <path d="M70.375 33.375C69.9375 33.75 69.5625 34.25 69.0625 34.625C68.5625 35.0625 68 35.4375 67.4375 35.8125C67.375 35.875 67.4375 35.9375 67.5 35.9375C68.5625 35.375 69.75 34.4375 70.375 33.375Z" fill="#432F05"/>
  <path d="M67.0624 18.6875C65.8749 19.0625 64.8124 19.8125 63.8749 20.5C63.8124 20.5625 63.9374 20.625 63.9999 20.5625C64.9374 19.875 66.0624 19.375 67.0624 18.6875Z" fill="#61461B"/>
  <path d="M61.6875 20.25C62.375 20.4375 63 20.5 63.75 20.5C63.8125 20.5 63.8125 20.4375 63.75 20.4375C63.0625 20.375 62.375 20.3125 61.6875 20.25Z" fill="#61461B"/>
  <path d="M63.8747 20.5625C63.7497 21.6875 63.9372 22.875 64.0622 24C64.0622 24.0625 64.1872 24.0625 64.1872 24C64.0622 22.875 64.0622 21.6875 63.8747 20.5625Z" fill="#61461B"/>
  <path d="M63.125 30.625C63.1875 29.125 63.1875 27.625 63.0625 26.125C63.0625 26.0625 63 26.0625 63 26.125C63 27.625 63.0625 29.125 63.125 30.625Z" fill="#61461B"/>
  <path d="M62.75 26.3125C63.25 25.5 63.875 24.8125 64.75 24.3125C64.8125 24.25 64.75 24.1875 64.6875 24.25C63.8125 24.8125 63.1875 25.5 62.6875 26.3125H62.75Z" fill="#61461B"/>
  <path d="M64.8125 24.0624C64.875 24.3124 65 24.4374 65.25 24.5624C65.3125 24.6249 65.375 24.4999 65.3125 24.4999C65.125 24.3749 64.9375 24.2499 64.875 24.0624C64.875 23.9999 64.8125 24.0624 64.8125 24.0624Z" fill="#61461B"/>
  <path d="M65.375 24.75C66.0625 26.75 66.75 28.8125 67.25 30.875C67.25 30.9375 67.375 30.9375 67.375 30.8125C66.875 28.75 66.25 26.6875 65.4375 24.6875C65.4375 24.625 65.375 24.6875 65.375 24.75Z" fill="#432F05"/>
  <path d="M67.4374 31.0624C68.6874 31.4999 69.6874 32.2499 70.3124 33.3124C70.3749 33.3749 70.4999 33.3124 70.4374 33.2499C69.8124 32.1874 68.7499 31.3749 67.4374 30.9374C67.4374 30.8749 67.3749 30.9999 67.4374 31.0624Z" fill="#432F05"/>
  <path d="M63.6875 30.4375C63 30.5625 62.375 30.8125 61.8125 31.125C61.75 31.125 61.8125 31.25 61.875 31.1875C62.4375 30.9375 63.0625 30.6875 63.6875 30.4375Z" fill="#CF8657"/>
  <path d="M61.8125 31.1874C61.4375 32.1249 61.1875 33.1249 61 34.0624C61 34.1249 61.125 34.1874 61.125 34.1249C61.3125 33.1249 61.5625 32.1874 61.8125 31.1874C61.875 31.1874 61.8125 31.1249 61.8125 31.1874Z" fill="#CF8657"/>
  <path d="M60.8124 34.4374C61.8124 35.6249 63.1874 36.4374 64.8749 36.6874C64.9999 36.6874 64.9999 36.5624 64.9374 36.5624C63.3124 36.3124 61.9374 35.5624 60.9374 34.4374C60.8749 34.3124 60.7499 34.3749 60.8124 34.4374Z" fill="#61461B"/>
  <path d="M65.1874 36.75C65.6249 35.5 65.6874 34.125 65.3749 32.8125C65.3749 32.75 65.2499 32.75 65.2499 32.8125C65.4374 34.1875 65.4374 35.375 65.1249 36.6875C65.0624 36.75 65.1874 36.8125 65.1874 36.75Z" fill="#432F05"/>
  <path d="M61.6875 31.625C62.6875 32.3125 63.875 32.625 65.125 32.625C65.25 32.625 65.25 32.5 65.125 32.5C63.875 32.4375 62.8125 32.125 61.6875 31.625Z" fill="#61461B"/>
  <path d="M65.4375 32.6875C65.6875 32.5 66 32.3125 66.1875 32.125C66.25 32.0625 66.125 32 66.125 32.0625C65.9375 32.25 65.6875 32.4375 65.4375 32.625C65.375 32.625 65.375 32.75 65.4375 32.6875Z" fill="#61461B"/>
  <path d="M63.5626 30.5625C64.0001 30.75 64.3751 30.875 64.8126 31C65.0001 31.0625 65.2501 31.125 65.4376 31.25C65.5626 31.3125 65.6876 31.375 65.8751 31.375C66.2501 31.4375 66.3751 31.625 66.3126 31.9375C66.2501 31.9375 66.1876 32.0625 66.3126 32.0625C66.7501 32.0625 66.6876 31.625 66.4376 31.4375C66.1251 31.25 65.6876 31.125 65.3126 31C64.7501 30.8125 64.1876 30.625 63.6876 30.4375C63.5626 30.5 63.5001 30.5625 63.5626 30.5625Z" fill="#61461B"/>
  <path d="M65.3124 36.7499C65.4374 36.4374 65.5624 36.0624 65.8749 35.8124C66.2499 35.4999 66.9374 35.4374 67.2499 35.8749C67.5624 36.3749 66.9999 36.6249 66.4999 36.8124C66.0624 36.9374 65.5624 36.9999 65.1249 36.7499C65.0624 36.6874 64.9374 36.8124 64.9999 36.8749C65.4999 37.1874 66.1249 37.1249 66.6249 36.9374C67.1249 36.7499 67.5624 36.4999 67.3749 35.9374C67.1874 35.4999 66.5624 35.3749 66.0624 35.5624C65.6249 35.6874 65.3124 36.2499 65.3124 36.7499Z" fill="#432F05"/>
  <path d="M67.5 36.2499C67.8125 36.2499 68.3125 36.1874 68.375 35.8749C68.4375 35.6249 68.1875 35.3749 67.9375 35.4374C67.875 35.4374 67.875 35.5624 68 35.5624C68.3125 35.4999 68.3125 35.8749 68.1875 35.9999C67.9375 36.1249 67.6875 36.1249 67.5 36.2499C67.4375 36.2499 67.4375 36.1874 67.5 36.2499Z" fill="#61461B"/>
  <path d="M60.8747 33.5625C60.4372 33.75 59.4372 34 59.6247 34.5625C59.8122 35.1875 60.7497 35.125 61.2497 34.9375C61.3747 34.9375 61.3122 34.8125 61.1872 34.8125C60.9372 34.875 60.6247 34.9375 60.3122 34.9375C59.9997 34.875 59.6247 34.6875 59.7497 34.375C59.8747 34 60.6247 33.8125 60.9372 33.6875C60.9997 33.625 60.9372 33.5625 60.8747 33.5625Z" fill="#61461B"/>
  <path d="M57.375 30.875C58.5 31.625 60.1875 31.6875 61.5 31.9375C61.625 31.9375 61.6875 31.8125 61.5625 31.75C60.1875 31.5 58.6875 31.375 57.375 30.875C57.375 30.8125 57.375 30.8125 57.375 30.875Z" fill="#61461B"/>
  <path d="M48.8124 10.3125C49.6249 10.625 50.4999 10.9375 51.3124 11.125C51.3749 11.125 51.3749 11.0625 51.3124 11.0625C50.4999 10.8125 49.6249 10.5 48.8124 10.3125Z" fill="#CF8657"/>
  <path d="M52.875 10.125C52.3125 10.375 51.8125 10.75 51.25 11C51.1875 11 51.25 11.125 51.3125 11.0625C51.875 10.875 52.4375 10.5625 52.875 10.125Z" fill="#61461B"/>
  <path d="M51 11C51.5 13.0625 52.125 15.0625 52.5 17.125C52.5 17.1875 52.625 17.1875 52.625 17.125C52.25 15.0625 51.75 12.9375 51 11Z" fill="#CF8657"/>
  <path d="M55.8749 20.3749C56.3749 20.2499 56.9374 20.0624 57.4374 19.8749C57.4999 19.8749 57.4999 19.7499 57.4374 19.8124C56.8749 19.9374 56.3749 20.1249 55.8749 20.3749Z" fill="#61461B"/>
  <path d="M56 20.3125C57.25 20.4375 58.5 20.4375 59.75 20.5625C59.8125 20.5625 59.8125 20.4375 59.75 20.4375C58.5 20.375 57.25 20.3125 56 20.3125Z" fill="#61461B"/>
  <path d="M40.0625 25.875C40.0625 25.5625 40.125 25.3125 40.125 25C40.125 24.9375 40.0625 24.9375 40.0625 25C40.0625 25.25 40.0625 25.5625 40.0625 25.875Z" fill="#61461B"/>
  <path d="M40.25 24.8747C41.25 23.9372 42.5625 23.4997 44 23.5622C44.0625 23.5622 44.0625 23.4372 44 23.4372C42.5625 23.3122 41.125 23.8747 40.1875 24.8122C40.125 24.8747 40.1875 24.9372 40.25 24.8747Z" fill="#CF8657"/>
  <path d="M43.9999 23.5624C44.6249 23.9999 45.2499 24.3749 45.8749 24.7499C45.9374 24.8124 45.9999 24.6874 45.9374 24.6874C45.3124 24.2499 44.6874 23.8749 43.9999 23.5624C43.9999 23.4999 43.9374 23.5624 43.9999 23.5624Z" fill="#61461B"/>
  <path d="M45.625 24.8125C45.6875 25.125 45.625 25.4375 45.4375 25.75C45.4375 25.8125 45.5 25.875 45.5 25.8125C45.75 25.5625 45.8125 25.125 45.6875 24.8125C45.6875 24.75 45.625 24.75 45.625 24.8125Z" fill="#61461B"/>
  <path d="M40.2499 25.75C41.4999 26.25 42.9999 26.5625 44.3749 26.5C44.4374 26.5 44.4374 26.375 44.3749 26.375C42.9374 26.25 41.6249 26.0625 40.2499 25.6875C40.2499 25.6875 40.1874 25.75 40.2499 25.75Z" fill="#61461B"/>
  <path d="M44.4375 26.5C44.8125 26.3125 45.1875 26.1875 45.5625 26C45.625 25.9375 45.5625 25.875 45.5 25.9375C45.125 26.0625 44.8125 26.25 44.4375 26.5Z" fill="#61461B"/>
  <path d="M45.625 25.4375C46 25.4375 46.375 25.4375 46.75 25.4375C46.875 25.4375 46.875 25.3125 46.75 25.3125C46.375 25.3125 46 25.3125 45.625 25.3125C45.5 25.3125 45.5 25.4375 45.625 25.4375Z" fill="#61461B"/>
  <path d="M46.75 25.4375C46.75 25.625 46.8125 25.8125 46.9375 25.9375C47 26 47.125 25.9375 47.0625 25.875C46.9375 25.75 46.875 25.5625 46.875 25.375C46.875 25.375 46.8125 25.375 46.75 25.4375Z" fill="#61461B"/>
  <path d="M45.25 26.0625C45.8125 26.25 46.5 26.3125 47.0625 26.125C47.125 26.125 47.125 26 47 26C46.375 26.125 45.8125 26.1875 45.1875 26C45.25 25.9375 45.1875 26 45.25 26.0625Z" fill="#61461B"/>
  <path d="M50.4375 24.0625C50.125 24.4375 49.8125 24.875 50.1875 25.375C50.5625 25.8125 51.1875 25.875 51.8125 25.9375C51.875 25.9375 51.875 25.875 51.8125 25.8125C51.3125 25.75 50.75 25.6875 50.4375 25.375C49.9375 25 50.1875 24.5 50.4375 24.0625Z" fill="#432F05"/>
  <path d="M50.25 24.125C50.9375 24 51.5625 23.875 52.25 23.875C52.3125 23.875 52.3125 23.75 52.25 23.75C51.625 23.6875 50.8125 23.8125 50.25 24.125Z" fill="#432F05"/>
  <path d="M52.25 23.875C52.875 24.0625 53.375 24.375 53.875 24.6875C53.9375 24.75 54.0625 24.625 54 24.625C53.5 24.25 52.9375 24 52.25 23.8125C52.25 23.75 52.25 23.8125 52.25 23.875Z" fill="#432F05"/>
  <path d="M54 24.7499C54.1875 25.1874 54.125 25.5624 53.875 25.9374C53.875 25.9999 53.9375 26.0624 53.9375 25.9999C54.25 25.6249 54.25 25.1249 54.0625 24.7499C54.0625 24.6249 53.9375 24.6874 54 24.7499Z" fill="#432F05"/>
  <path d="M53.875 25.9375C53.75 25.5625 53.3125 25.25 52.9375 25.1875C52.875 25.1875 52.8125 25.25 52.875 25.3125C53.0625 25.375 53.25 25.5 53.4375 25.625C53.625 25.6875 53.75 25.8125 53.875 25.9375Z" fill="#432F05"/>
  <path d="M52.7499 25.2499C52.3124 25.3749 51.8749 25.5624 51.5624 25.8749C51.4999 25.9374 51.6249 25.9999 51.6874 25.9374C51.9999 25.6249 52.3749 25.4374 52.8124 25.3124C52.8124 25.3124 52.8124 25.1874 52.7499 25.2499Z" fill="#432F05"/>
  <path d="M51.5624 26.0625C51.8749 26.5625 52.7499 26.4375 53.2499 26.375C53.5624 26.3125 54.6249 26.1875 54.1874 25.75C54.1249 25.6875 54.0624 25.75 54.0624 25.8125C54.3124 26.1875 52.8749 26.3125 52.7499 26.3125C52.3749 26.3125 51.8124 26.375 51.6249 26C51.6249 26 51.4999 26 51.5624 26.0625Z" fill="#432F05"/>
  <path d="M54.25 25.625C54.75 25.3125 55.3125 25.1875 55.875 25.1875C55.9375 25.1875 55.9375 25.0625 55.875 25.0625C55.25 25.0625 54.6875 25.25 54.25 25.625Z" fill="#432F05"/>
  <path d="M55.8125 25.2499C56.1875 25.4374 56.5 25.6249 56.75 25.8749C56.8125 25.9374 56.9375 25.8124 56.875 25.8124C56.5625 25.5624 56.25 25.3749 55.875 25.1874C55.8125 25.1249 55.75 25.2499 55.8125 25.2499Z" fill="#432F05"/>
  <path d="M54.125 26.25C54.75 26.3125 55.5 26.375 56.1875 26.25C56.5 26.1875 56.8125 26.125 56.8125 25.8125C56.8125 25.75 56.6875 25.75 56.6875 25.8125C56.625 26.25 55.75 26.1875 55.4375 26.1875C55 26.1875 54.625 26.1875 54.1875 26.1875C54.125 26.1875 54.125 26.25 54.125 26.25Z" fill="#432F05"/>
  <path d="M56.375 25.6875C56.6875 25.5 57.0625 25.3125 57.5 25.25C57.5625 25.25 57.5625 25.125 57.4375 25.125C57 25.1875 56.625 25.3125 56.3125 25.625C56.25 25.625 56.3125 25.6875 56.375 25.6875Z" fill="#432F05"/>
  <path d="M47 25.9999C47.8125 26.3124 48.75 26.3124 49.625 26.1874C49.6875 26.1874 49.6875 26.0624 49.5625 26.0624C48.6875 26.1874 47.875 26.1249 47 25.9999Z" fill="#432F05"/>
  <path d="M50.0624 25.25C49.8749 25.5 49.6874 25.6875 49.5624 26C49.4999 26.125 49.3124 26.3125 49.3749 26.4375C49.4374 26.75 50.1874 26.875 50.4999 26.875C50.5624 26.875 50.5624 26.8125 50.4999 26.8125C50.3124 26.75 50.1874 26.75 49.9999 26.6875C49.8749 26.625 49.7499 26.625 49.6874 26.5625C49.5624 26.375 49.5624 26.1875 49.6874 26.0625C49.8124 25.8125 49.9999 25.5625 50.0624 25.25Z" fill="#432F05"/>
  <path d="M50.4375 26.875C51.0625 27.0625 51.75 26.75 52 26.25C52.0625 26.1875 51.9375 26.125 51.875 26.1875C51.5 26.6875 51 26.875 50.4375 26.875Z" fill="#432F05"/>
  <path d="M42.1249 17.25C40.0624 17.5625 38.1249 18.75 36.5624 20C36.4999 20.0625 36.6249 20.1875 36.6874 20.125C38.3124 18.75 40.1249 18.0625 42.1249 17.25Z" fill="#AC5D2C"/>
  <path d="M36.4375 20.375C37.3125 20.625 38.25 20.4375 39.125 20.4375C40.125 20.375 41.0625 20.3125 42.0625 20.1875C42.1875 20.1875 42.125 20.0625 42 20.0625C41.0625 20.1875 40.0625 20.25 39.125 20.3125C38.25 20.375 37.3125 20.5 36.5 20.3125C36.4375 20.25 36.375 20.375 36.4375 20.375Z" fill="#CF8657"/>
  <path d="M36.5 20.125C35.75 21.25 35.5 22.625 35.3125 23.875C35.3125 24 35.5 24 35.5 23.875C35.625 22.625 36.125 21.4375 36.5 20.125Z" fill="#61461B"/>
  <path d="M35.3124 24.1874C36.8749 24.7499 38.6249 25.1874 40.3124 25.2499C40.3749 25.2499 40.4374 25.1249 40.3124 25.1249C38.6249 24.8749 36.9999 24.6249 35.3124 24.1249C35.3124 24.0624 35.2499 24.1874 35.3124 24.1874Z" fill="#61461B"/>
  <path d="M20.8125 25.5C22 25.9375 23.125 26.25 24.1875 26.875C24.25 26.9375 24.375 26.8125 24.25 26.75C23.25 26.1875 22.0625 25.625 20.8125 25.5Z" fill="#61461B"/>
  <path d="M24.3125 27.0624C23.6875 27.8124 23 28.3749 22.125 28.8749C22 28.9374 22.125 29.0624 22.25 28.9999C23.125 28.4999 23.8125 27.8124 24.4375 27.0624C24.4375 27.0624 24.3125 26.9999 24.3125 27.0624Z" fill="#61461B"/>
  <path d="M22.6875 25.9998C23.375 25.9998 24 25.8748 24.6875 26.0623C24.9375 26.1248 25.8125 26.4373 25.625 26.7498C25.5625 26.9373 24.6875 26.9998 24.5 26.9998C24.375 26.9998 24.375 27.1248 24.5 27.1248C24.9375 27.1248 26.25 27.0623 25.6875 26.4373C25 25.6873 23.625 25.6873 22.6875 25.9998Z" fill="#61461B"/>
  <path d="M45.5 18.4375C45.4375 18.0625 45.3125 17.75 45.0625 17.4375C45 17.375 44.9375 17.4375 45 17.5C45.25 17.75 45.375 18.125 45.5 18.4375Z" fill="#61461B"/>
  <path d="M44.9999 17.3125C45.7499 16.375 46.7499 15.625 47.9999 15.1875C48.0624 15.1875 47.9999 15.0625 47.9374 15.0625C46.6874 15.5 45.6874 16.25 44.9374 17.25C44.8749 17.3125 44.9999 17.375 44.9999 17.3125Z" fill="#CF8657"/>
  <path d="M47.875 15.1875C47.9375 15 47.9375 14.75 47.9375 14.5625C47.9375 14.5 47.8125 14.5 47.8125 14.5625C47.8125 14.75 47.8125 14.9375 47.875 15.1875Z" fill="#61461B"/>
  <path d="M48 14.5626C48.75 14.1876 49.5625 13.9376 50.375 13.6876C50.5 13.6876 50.4375 13.5001 50.3125 13.5626C49.5 13.8126 48.6875 14.1251 47.9375 14.5001C47.875 14.5001 47.9375 14.5626 48 14.5626Z" fill="#61461B"/>
  <path d="M50.3125 13.5C50.5625 14.125 51 14.75 51.375 15.3125C51.4375 15.375 51.5 15.3125 51.5 15.25C51.125 14.6875 50.8125 14.0625 50.3125 13.5Z" fill="#61461B"/>
  <path d="M51.4999 15.375C51.6249 15.3125 51.7499 15.3125 51.8749 15.3125C51.9374 15.3125 51.9999 15.1875 51.9374 15.1875C51.7499 15.1875 51.6249 15.1875 51.4999 15.25C51.3749 15.3125 51.4374 15.375 51.4999 15.375Z" fill="#61461B"/>
  <path d="M51.4375 15.25C51.125 15.5 50.8125 15.6875 50.5 15.8125C50.4375 15.875 50.5 15.9375 50.5625 15.875C50.9375 15.75 51.25 15.5 51.5625 15.3125C51.5625 15.3125 51.5 15.25 51.4375 15.25Z" fill="#61461B"/>
  <path d="M50.4375 16.0624C50.5625 16.4374 50.6875 16.8749 50.8125 17.2499C50.875 17.4999 50.9375 17.9374 51.125 18.1249C51.25 18.2499 51.25 18.2499 51.4375 18.2499C51.8125 18.2499 52.25 18.1249 52.625 18.0624C52.6875 18.0624 52.6875 17.9374 52.5625 17.9374C52.3125 17.9999 52 18.0624 51.75 18.0624C51.5 18.1249 51.4375 18.1874 51.3125 17.9999C51.1875 17.8749 51.125 17.7499 51.0625 17.5624C50.875 17.0624 50.75 16.5624 50.5625 16.0624C50.5625 15.9374 50.4375 15.9999 50.4375 16.0624Z" fill="#61461B"/>
  <path d="M52.7499 18.0625C52.8749 17.8125 52.8749 17.5 52.7499 17.25C52.7499 17.1875 52.6249 17.25 52.6874 17.3125C52.7499 17.5625 52.7499 17.8125 52.6874 18.0625C52.6249 18.0625 52.7499 18.0625 52.7499 18.0625Z" fill="#61461B"/>
  <path d="M52.75 17.3125C53.3125 17.5 53.3125 16.6875 53.25 16.375C53.1875 16.1875 53.0625 16.0625 52.875 16C52.6875 16 52.5 16.0625 52.5 16.1875C52.5 16.25 52.5625 16.25 52.5625 16.25C52.625 16.125 52.8125 16.125 52.9375 16.1875C53.0625 16.25 53.125 16.4375 53.125 16.5625C53.1875 16.8125 53.25 17.375 52.75 17.3125Z" fill="#61461B"/>
  <path d="M51.75 15.2499C51.875 15.3124 51.9375 15.4374 52.0625 15.4999C52.125 15.5624 52.1875 15.4999 52.125 15.4374C52.0625 15.3749 51.9375 15.3124 51.75 15.2499Z" fill="#61461B"/>
  <path d="M45.5626 18.5625C45.4376 19.8125 45.6251 21.0625 45.6876 22.3125C45.6876 22.375 45.8126 22.375 45.8126 22.3125C45.6876 21.125 45.7501 19.8125 45.5626 18.5625Z" fill="#61461B"/>
  <path d="M45.1875 24.125C45.1875 23.75 45.1875 23.3125 45.1875 22.9375C45.1875 22.875 45.0625 22.875 45.0625 22.9375C45.0625 23.3125 45.0625 23.75 45.0625 24.125C45.0625 24.1875 45.1875 24.1875 45.1875 24.125Z" fill="#61461B"/>
  <path d="M45.1874 22.875C45.8749 22.25 46.6249 21.8125 47.5624 21.5C47.6249 21.5 47.6249 21.375 47.4999 21.375C46.6249 21.625 45.7499 22.125 45.1874 22.875Z" fill="#CF8657"/>
  <path d="M47.6251 21.5C48.9376 22.125 50.0626 22.9375 51.0626 23.875C51.1251 23.9375 51.2501 23.875 51.1876 23.75C50.1876 22.75 49.0626 21.9375 47.7501 21.3125C47.6251 21.375 47.5626 21.5 47.6251 21.5Z" fill="#432F05"/>
  <path d="M57.75 23.8749C58.5 23.3124 59.25 22.6874 60 22.0624C60.0625 21.9999 60 21.8749 59.875 21.9374C59.125 22.5624 58.3125 23.1249 57.75 23.8749Z" fill="#61461B"/>
  <path d="M58.9375 24.875C60.1875 25.4375 61.5625 25.8125 62.9375 26.1875C63 26.1875 63.0625 26.125 63 26.0625C61.625 25.6875 60.3125 25.25 58.9375 24.875Z" fill="#61461B"/>
  <path d="M61.0625 24C62.3125 24.1875 63.625 24.25 64.875 24.125C65 24.125 65 24 64.875 24C63.625 24.0625 62.3125 24.0625 61.0625 24Z" fill="#61461B"/>
  <path d="M58.9375 24.8124C59.75 24.6249 60.625 24.3124 61.375 23.9999C61.4375 23.9999 61.375 23.8749 61.3125 23.9374C60.5625 24.1249 59.6875 24.4374 58.9375 24.8124Z" fill="#61461B"/>
  <path d="M59 19.8752C59.625 19.2502 60.3125 19.0002 61.25 18.9377C61.3125 18.9377 61.3125 18.8752 61.25 18.8127C60.4375 18.6877 59.4375 19.1877 59 19.8752Z" fill="#61461B"/>
  <path d="M59 20C59.375 20.1875 59.75 20.375 60.125 20.4375C60.25 20.4375 60.3125 20.3125 60.1875 20.3125C59.8125 20.25 59.4375 20.125 59.0625 19.9375C59 19.875 58.9375 19.9375 59 20Z" fill="#61461B"/>
  <path d="M58.6875 27.8125C58.875 26.8125 59 25.75 59.1875 24.75C59.1875 24.6875 59.0625 24.6875 59.0625 24.75C58.9375 25.8125 58.75 26.8125 58.6875 27.8125Z" fill="#CF8657"/>
  <path d="M45.375 18.4374C45.625 18.3749 46.0625 18.1874 46.1875 18.4999C46.3125 18.8124 45.9375 18.9999 45.6875 19.0624C45.625 19.0624 45.625 19.1874 45.75 19.1874C46.0625 19.0624 46.5 18.8124 46.3125 18.4374C46.125 18.1249 45.625 18.2499 45.375 18.4374Z" fill="#61461B"/>
  <path d="M66.5 31.875C66.75 32.4375 67.1875 33.0625 67.5625 33.5625C67.625 33.625 67.6875 33.5625 67.625 33.5C67.375 32.9375 66.9375 32.375 66.5 31.875Z" fill="#432F05"/>
  <path d="M69.4375 32.1875C69.5625 32.125 69.6875 32 69.8125 31.9375C69.9375 31.875 70.125 31.8125 70.25 31.8125C70.3125 31.8125 70.3125 31.6875 70.1875 31.6875C69.9375 31.75 69.5625 31.9375 69.4375 32.1875Z" fill="#432F05"/>
  <path d="M70.375 31.875C70.5625 32 70.8125 32.1875 70.9375 32.375C71.125 32.6875 71 32.6875 70.8125 32.8125C70.6875 32.875 70.5625 33 70.4375 33.0625C70.375 33.125 70.5 33.25 70.5625 33.1875C70.75 33.0625 71 32.9375 71.125 32.75C71.1875 32.6875 71.25 32.625 71.25 32.5C71.1875 32.1875 70.75 31.9375 70.5 31.75C70.375 31.75 70.25 31.8125 70.375 31.875Z" fill="#432F05"/>
  <path d="M27.75 25.125C27.75 25 27.6875 24.875 27.625 24.75C27.5625 24.6875 27.5 24.75 27.5625 24.8125C27.625 24.875 27.6875 25 27.75 25.125Z" fill="#61461B"/>
  <path d="M27.5625 24.5625C29 23.625 30.625 22.875 32.375 22.4375C32.4375 22.4375 32.4375 22.3125 32.3125 22.3125C30.5625 22.75 28.9375 23.5 27.5 24.4375C27.4375 24.5 27.5 24.625 27.5625 24.5625Z" fill="#AC5D2C"/>
  <path d="M32.1875 22.375C32.375 22.625 32.5 22.875 32.625 23.1875C32.625 23.25 32.75 23.1875 32.75 23.1875C32.625 22.875 32.4375 22.625 32.25 22.375C32.1875 22.3125 32.125 22.3125 32.1875 22.375Z" fill="#AC5D2C"/>
  <path d="M32.375 22.8125C33.4375 22.5625 34.4375 22.4375 35.5625 22.4375C35.6875 22.4375 35.6875 22.3125 35.5625 22.3125C34.4375 22.3125 33.4375 22.4375 32.375 22.75C32.3125 22.75 32.3125 22.8125 32.375 22.8125Z" fill="#AC5D2C"/>
  <path d="M27.9375 25.3126C29.5 25.5001 31.125 25.5001 32.6875 25.1876C32.8125 25.1876 32.75 25.0001 32.625 25.0626C31.0625 25.3751 29.5625 25.1876 27.9375 25.3126Z" fill="#61461B"/>
  <path d="M32.6249 25.25C32.8124 25 32.9999 24.75 33.1874 24.5C33.2499 24.4375 33.1249 24.375 33.0624 24.4375C32.8749 24.6875 32.6874 24.9375 32.4999 25.25C32.4374 25.25 32.5624 25.3125 32.6249 25.25Z" fill="#61461B"/>
  <path d="M32.875 24.9375C33.8125 24.9375 34.875 24.75 35.625 24.25C35.6875 24.1875 35.625 24.125 35.5625 24.125C34.625 24.5 33.8125 24.8125 32.875 24.9375C32.8125 24.9375 32.8125 24.9375 32.875 24.9375Z" fill="#61461B"/>
  <path d="M25.4374 26.9375C26.3124 27.125 27.1874 27.375 28.0624 27.625C28.6249 27.625 28.9374 27.875 28.8749 28.375C29.1249 28.6875 29.0624 28.9375 28.6874 29.0625C28.4374 29.375 27.8124 29.625 27.4374 29.875C26.3749 30.4375 25.1874 30.8125 24.3749 31.75C24.3124 31.8125 24.4374 31.875 24.4374 31.8125C25.2499 31 26.2499 30.625 27.3124 30.0625C27.8124 29.8125 29.3124 29.0625 29.3749 28.5625C29.4374 28.1875 28.9374 27.9375 28.5624 27.8125C27.6249 27.375 26.5624 27.0625 25.4374 26.9375Z" fill="#B46424"/>
  <path d="M32.125 25.375C34.0625 25.8125 36.0625 26.25 38 26.6875C39.125 26.9375 41.4375 27.25 40.5625 29C40.3125 29.5 39.5 29.8125 39.3125 30.375C39.0625 31.0625 39.625 31.375 40.1875 31.6875C41.4375 32.4375 42.9375 33 44.375 33.375C50.6875 35.125 61.9375 34.0625 64.25 41.0625C64.3125 41.1875 64.5 41.125 64.4375 41C62.3125 34.4375 52.4375 34.8125 46.3125 33.625C44.4375 33.25 42.25 32.8125 40.625 31.8125C38.125 30.25 41.1875 29.5625 40.875 28.0625C40.6875 27.125 39.4375 26.875 38.5 26.6875C36.4375 26.1875 34.3125 25.6875 32.125 25.375Z" fill="#127A90"/>
  <path d="M29.1874 37.1875C30.7499 38.1875 32.7499 38.25 34.3749 39.1875C36.4999 40.4375 37.6874 43 35.7499 44.8125C35.6874 44.875 35.8124 45 35.8749 44.9375C37.2499 43.625 37.1874 41.75 36.0624 40.3125C34.3749 38.375 31.4999 38.25 29.1874 37.1875Z" fill="#B46424"/>
  <path d="M28.3125 25.25C27.9375 25.1875 27.5625 24.9375 27.5625 24.5625C27.5625 24.5 27.4375 24.5 27.4375 24.5625C27.4375 24.9375 27.8125 25.375 28.3125 25.25Z" fill="#61461B"/>
  <path d="M27.5001 24.9375C27.0001 24.9375 26.6876 25.5 26.9376 25.875C27.0001 25.9375 27.0626 25.875 27.0626 25.8125C26.8126 25.5 27.0626 25.0625 27.5001 24.9375Z" fill="#61461B"/>
  <path d="M27.125 25.875C27.3125 25.625 27.5 25.4375 27.6875 25.1875C27.75 25.125 27.625 25.0625 27.5625 25.125C27.375 25.375 27.1875 25.625 27 25.8125C27 25.875 27.0625 25.875 27.125 25.875Z" fill="#61461B"/>
  <path d="M25.375 26.25C25.625 26.1875 26 26.125 26.25 26.3125C26.4375 26.5 26.4375 26.75 26.1875 26.875C26.125 26.9375 26.1875 27.0625 26.25 27C26.5625 26.875 26.5625 26.5 26.375 26.25C26.1875 26 25.6875 26 25.375 26.25Z" fill="#61461B"/>
  <path d="M26.4375 26.5C26.5625 26.4375 26.6875 26.3125 26.75 26.1875C26.875 26.0625 26.9375 26 27 25.875C27 25.8125 26.9375 25.8125 26.9375 25.8125C26.8125 25.875 26.75 26 26.625 26.125C26.625 26.25 26.5 26.375 26.4375 26.5Z" fill="#61461B"/>
  <path d="M17.75 24.1875C17.625 24.4375 17.5625 24.625 17.4375 24.875C17.4375 24.9375 17.5625 25 17.5625 24.875C17.625 24.6875 17.6875 24.4375 17.75 24.1875Z" fill="#61461B"/>
  <path d="M16.8125 23.875C17.125 24 17.4375 24.1875 17.75 24.25C17.8125 24.25 17.8125 24.1875 17.75 24.1875C17.5 24.0625 17.1875 23.9375 16.8125 23.875Z" fill="#61461B"/>
  <path d="M57.1875 30.5624C57.25 28.3124 57.25 26.1874 57.8125 23.9374C57.8125 23.8749 57.6875 23.8124 57.6875 23.9374C57.1875 26.0624 56.8125 28.3749 57.1875 30.5624Z" fill="#CF8657"/>
  <path d="M57.8749 23.9374C58.4999 23.6874 59.125 23.4374 59.6875 23.1874C59.8125 23.1249 59.7499 22.9999 59.6249 23.0624C59.0624 23.3124 58.4374 23.5624 57.8749 23.9374Z" fill="#CF8657"/>
  <path d="M59.8125 23C60 21.9375 60.25 20.9375 60.5 19.875C60.5 19.8125 60.375 19.75 60.375 19.8125C60.125 20.875 59.9375 21.875 59.75 22.9375C59.75 23.0625 59.8125 23.0625 59.8125 23Z" fill="#CF8657"/>
  <path d="M22.9375 31.4999C24.6875 31.7499 26.1875 32.0624 27.75 32.8124C27.8125 32.8749 27.875 32.7499 27.8125 32.6874C26.375 31.9374 24.625 31.4374 22.9375 31.4999Z" fill="#61461B"/>
  <path d="M14.875 37.375C15.375 37.4375 16.0625 37.3125 16.3125 36.875C16.4375 36.625 16.3125 36.3125 16.25 36C16.0625 35.5625 15.875 35.0625 15.6875 34.625C15.6875 34.5625 15.5625 34.625 15.5625 34.6875C15.75 35.1875 16.0625 35.6875 16.1875 36.25C16.375 37.125 15.5625 37.25 14.875 37.375C14.8125 37.375 14.8125 37.375 14.875 37.375Z" fill="#432F05"/>
</svg>