<svg xmlns="http://www.w3.org/2000/svg" width="80" height="80" viewBox="0 0 80 80" fill="none">
  <path d="M40 59.0005C59.2264 59.0005 74.8125 56.8459 74.8125 54.188C74.8125 51.5301 59.2264 49.3755 40 49.3755C20.7736 49.3755 5.1875 51.5301 5.1875 54.188C5.1875 56.8459 20.7736 59.0005 40 59.0005Z" fill="#7BCCFF"/>
  <path d="M27.9375 61.813C39.0868 61.813 48.125 60.5538 48.125 59.0005C48.125 57.4472 39.0868 56.188 27.9375 56.188C16.7883 56.188 7.75 57.4472 7.75 59.0005C7.75 60.5538 16.7883 61.813 27.9375 61.813Z" fill="#7BCCFF"/>
  <path d="M57.5625 63.0005C63.8447 63.0005 68.9375 62.3009 68.9375 61.438C68.9375 60.575 63.8447 59.8755 57.5625 59.8755C51.2803 59.8755 46.1875 60.575 46.1875 61.438C46.1875 62.3009 51.2803 63.0005 57.5625 63.0005Z" fill="#7BCCFF"/>
  <path d="M73.6245 37.6885C73.187 36.626 72.2495 34.9385 72.2495 34.9385L70.562 32.8135C69.6245 31.5635 67.6245 30.0635 66.062 29.501C65.187 29.1885 64.2495 29.0635 63.4995 28.626C63.062 28.376 62.687 28.0635 62.2495 27.751C60.812 26.8135 58.8745 26.876 57.187 26.876C55.6245 26.876 53.9995 26.9385 52.6245 26.1885C52.1245 25.9385 51.7495 25.5635 51.187 25.376C50.2495 25.001 49.187 25.1885 48.1245 25.3135C46.9995 25.4385 45.812 25.5635 44.687 25.3135C43.562 25.0635 42.562 24.501 41.4995 24.251C38.3745 23.376 35.437 24.376 32.437 24.9385C31.1245 25.1885 29.937 25.4385 28.812 26.0635C26.4995 27.376 23.6245 27.8135 20.8745 27.751L18.7495 27.6885H17.437C17.437 27.6885 16.7495 27.6885 15.062 28.376C13.3745 29.0635 12.4995 29.6885 12.4995 29.6885L10.3745 31.1885L9.18701 32.3135C9.18701 32.3135 8.31201 33.1885 7.93701 33.8135C7.56201 34.4385 7.31201 35.4385 7.31201 35.4385L7.18701 36.626L8.56201 44.1885L11.687 46.751L12.937 48.3135L14.9995 48.626L16.3745 53.0635C20.562 53.4385 24.7495 54.1885 28.937 54.376C34.1245 54.626 39.062 54.0635 44.2495 53.8135C48.312 53.626 51.8745 54.751 55.6245 55.5635C55.812 55.5635 55.937 55.5635 56.1245 55.5635C58.437 55.501 60.562 55.126 62.687 54.626L62.812 54.001L65.937 52.1885L66.1245 49.0635L67.937 47.8135L71.437 44.501L71.6245 42.001L74.1245 39.9385C74.062 39.9385 74.062 38.751 73.6245 37.6885Z" fill="#677131"/>
  <path d="M20.7495 53.5005L21.437 53.438L21.8745 51.938L19.8745 45.688L17.812 45.2505C17.812 45.2505 17.3745 45.688 16.8745 46.6255C16.3745 47.5005 14.812 48.563 14.812 48.563L16.187 53.0005C17.812 53.1255 19.312 53.313 20.7495 53.5005Z" fill="#4C5621"/>
  <path d="M30.4995 54.3135C33.187 54.376 35.8745 54.1885 38.562 54.0635L37.2495 53.9385L39.3745 51.376L40.3745 49.376L38.1245 47.751L34.937 47.626L34.187 50.0635L31.6245 51.001L29.062 51.501L30.7495 54.001L30.4995 54.3135Z" fill="#AE9F60"/>
  <path d="M68.687 43.876L69.9995 44.876L70.687 45.251L67.9995 48.0635L66.1245 49.0635L65.937 52.1885C65.937 52.1885 62.812 53.9385 62.562 54.001C62.312 54.0635 60.437 54.876 60.437 54.876L62.687 50.126L63.562 47.5635L67.312 46.251L67.812 44.1885L68.687 43.876Z" fill="#4C5621"/>
  <path d="M55.562 55.501C55.7495 55.501 55.8745 55.501 56.062 55.501C57.3745 55.501 58.562 55.376 59.812 55.126C59.937 54.876 60.062 54.6885 60.187 54.4385C60.2495 54.251 60.3745 54.126 60.3745 53.9385C60.3745 53.751 60.2495 53.5635 60.1245 53.376C59.687 52.626 59.312 51.9385 58.937 51.126L57.3745 50.876C56.8745 50.0635 56.3745 49.1885 56.437 48.3135C56.4995 47.8135 56.7495 47.3135 56.937 46.8135C57.2495 46.1885 57.6245 45.501 58.3745 45.126C58.937 44.876 59.562 44.876 60.1245 44.8135C62.437 44.5635 64.2495 43.001 66.3745 42.126C67.1245 41.8135 67.937 41.5635 68.687 41.376L68.812 41.251C68.8745 41.376 68.937 41.5635 68.937 41.6885C68.8745 41.1885 68.687 40.751 68.4995 40.3135C67.7495 40.9385 66.7495 41.4385 65.7495 41.6885C65.3745 41.8135 64.937 41.876 64.687 42.126C64.562 42.251 64.437 42.4385 64.312 42.5635C64.062 42.751 63.687 42.6885 63.437 42.8135C63.187 42.9385 62.9995 43.1885 62.812 43.376C62.2495 43.876 61.3745 43.751 60.6245 43.751C58.7495 43.6885 56.937 44.376 55.2495 45.0635C55.062 45.126 54.812 45.251 54.687 45.376C54.562 45.501 54.4995 45.6885 54.437 45.876C54.187 46.6885 53.8745 47.501 53.6245 48.3135C53.062 48.4385 52.437 48.5635 51.8745 48.6885C52.187 50.626 51.7495 52.5635 51.3745 54.5635C52.7495 54.876 54.1245 55.1885 55.562 55.501Z" fill="#AE9F60"/>
  <path d="M51.2495 54.501C51.687 52.5635 51.8745 50.626 51.812 48.626C50.7495 48.626 49.687 48.8135 48.7495 49.251L48.687 49.3135C48.3745 50.876 47.937 52.376 47.312 53.876C48.687 54.001 49.9995 54.251 51.2495 54.501Z" fill="#4C5621"/>
  <path d="M20.25 46.5635C20.5625 46.5635 20.9375 46.626 21.25 46.626C21.375 46.626 21.4375 46.626 21.5625 46.6885C21.625 46.751 21.6875 46.8135 21.8125 46.876C22.4375 47.4385 23.125 48.001 23.75 48.626C23.4375 48.001 23.1875 47.376 23 46.751C23 46.626 22.9375 46.5635 22.875 46.4385C22.75 46.3135 22.625 46.251 22.4375 46.1885C21.5625 45.8135 20.625 45.626 19.75 45.626C19.875 45.9385 20 46.251 20.25 46.5635Z" fill="#283308"/>
  <path d="M47.937 53.9385C48.312 53.3135 48.687 52.6885 49.062 52.001C49.2495 51.626 49.687 51.1885 50.1245 51.376C50.3745 51.501 50.437 51.751 50.4995 51.9385C50.7495 52.751 50.8745 53.626 50.9995 54.4385C51.1245 54.4385 51.2495 54.501 51.437 54.501C51.7495 52.626 51.8745 50.751 51.7495 48.876C50.937 48.9385 50.062 49.0635 49.2495 49.126C49.187 49.126 49.062 49.126 48.9995 49.1885C48.8745 49.251 48.812 49.4385 48.7495 49.5635C48.3745 51.001 47.8745 52.4385 47.312 53.8135C47.562 53.876 47.7495 53.876 47.937 53.9385Z" fill="#283308"/>
  <path d="M28.6245 52.7505C28.8745 53.063 29.062 53.438 29.187 53.7505C29.2495 53.938 29.312 54.1255 29.3745 54.2505C29.7495 54.2505 30.1245 54.2505 30.4995 54.2505C30.562 54.1255 30.562 54.063 30.6245 53.938C30.687 53.563 30.3745 53.188 30.1245 52.8755C31.437 51.938 32.7495 50.938 33.9995 49.8755C32.3745 50.813 30.437 51.063 28.562 51.313C28.2495 51.3755 27.937 51.3755 27.6245 51.313C27.3745 51.2505 27.1245 51.063 26.8745 50.938C26.1245 50.3755 25.312 49.8755 24.562 49.313L24.3745 49.563C25.437 50.3755 26.562 51.1255 27.6245 51.938C27.9995 52.188 28.3745 52.438 28.6245 52.7505Z" fill="#4C5621"/>
  <path d="M38.312 54.0635C38.312 54.0635 38.3745 54.0635 38.3745 54.126C39.6245 54.0635 40.937 53.9385 42.2495 53.876L40.437 49.5635L40.4995 49.4385C40.4995 49.501 40.562 49.376 40.4995 49.376C40.437 49.376 40.437 49.4385 40.3745 49.4385C39.687 51.1885 38.3745 52.8135 36.687 53.9385C37.187 54.126 37.812 53.9385 38.312 54.0635Z" fill="#283308"/>
  <path d="M33.1245 46.5635L32.062 48.501L34.187 50.0635L34.7495 48.5635L34.937 47.626L33.1245 46.5635Z" fill="#4C5621"/>
  <path d="M33.1245 46.251L28.6245 46.1885L24.437 45.3135L22.812 46.4385L23.687 48.251L27.2495 49.001L29.937 48.6885L32.062 48.501L33.1245 46.251Z" fill="#AE9F60"/>
  <path d="M62.1245 45.0635L63.4995 47.5635C63.4995 47.5635 67.437 46.376 67.2495 46.251C66.9995 46.126 67.7495 44.1885 67.7495 44.1885L66.6245 42.251C66.687 42.3135 62.562 43.8135 62.1245 45.0635Z" fill="#AE9F60"/>
  <path d="M68.4995 39.8135L71.562 42.0635L74.062 40.001C74.062 40.001 73.6245 38.876 72.312 38.3135C70.9995 37.751 70.937 37.5635 70.937 37.5635C70.937 37.5635 70.437 38.8135 68.4995 39.8135Z" fill="#4C5621"/>
  <path d="M44.8745 45.8135L53.6245 45.126L52.937 47.8135L43.9995 48.751L43.062 46.876C43.062 46.876 44.2495 46.751 44.6245 46.4385C44.937 46.1885 44.8745 45.8135 44.8745 45.8135Z" fill="#AE9F60"/>
  <path d="M43.2496 46.0009C42.9371 45.3759 42.5621 45.5634 42.0621 45.1884C41.9371 45.1259 41.8746 45.0009 41.6871 45.0009C41.5621 44.9384 41.4371 45.0009 41.3121 45.0009C40.8121 45.1259 39.8746 45.6884 39.9371 46.1884C39.9371 46.3759 40.1246 46.5634 40.3121 46.6259C41.1246 47.0009 42.1246 46.8134 42.9996 46.5634C43.0621 46.5634 43.1246 46.5009 43.1871 46.5009C43.3746 46.4384 43.3121 46.1884 43.2496 46.0009Z" fill="#AE9F60"/>
  <path d="M56.937 47.376C57.187 46.5635 57.562 45.751 58.3745 45.3135C58.6245 45.1885 58.937 45.126 59.187 45.0635C59.812 44.9385 60.3745 44.751 60.9995 44.626C61.312 44.5635 61.6245 44.501 61.8745 44.6885C61.9995 44.751 62.062 44.876 62.1245 45.001C62.562 45.751 62.937 46.5635 63.3745 47.3135C63.437 47.4385 63.4995 47.501 63.4995 47.626C63.4995 47.6885 63.437 47.8135 63.437 47.876C63.187 48.3135 62.937 48.751 62.687 49.1885C60.7495 48.626 58.812 48.001 56.937 47.376Z" fill="#4C5621"/>
  <path d="M46.312 51.376C46.437 51.501 46.562 51.626 46.6245 51.8135C46.687 52.001 46.687 52.1885 46.687 52.4385C46.687 52.876 46.687 53.376 46.687 53.8135C46.8745 53.8135 47.062 53.876 47.2495 53.876C47.937 52.376 48.437 50.8135 48.7495 49.251C47.2495 49.251 45.812 49.1885 44.312 48.9385C44.1245 48.9385 43.8745 48.876 43.687 48.876L43.937 48.9385L46.312 51.376Z" fill="#4C5621"/>
  <path d="M14.937 48.6885C16.1245 48.376 17.312 48.126 18.4995 47.876C18.6245 47.876 18.687 47.8135 18.812 47.876C18.937 47.876 18.9995 47.9385 19.062 48.001C19.812 48.6885 20.562 49.376 21.2495 50.126C20.687 48.6885 20.2495 47.251 19.9995 45.751C19.1245 45.626 18.2495 45.4385 17.437 45.126C16.8745 46.376 15.9995 47.626 14.937 48.6885Z" fill="#283308"/>
  <path d="M10.8119 45.8135C10.8744 44.4385 10.9369 43.126 10.9994 41.751C10.9994 41.4385 10.9994 41.1885 10.9369 40.876C10.8744 40.6885 10.7494 40.501 10.6244 40.3135C9.62442 38.9385 8.49942 37.626 7.18692 36.376C6.99942 36.751 7.12442 37.1885 7.18692 37.5635C7.62442 39.626 8.06192 41.6885 8.49942 43.751C8.56192 43.9385 8.56192 44.126 8.68692 44.251C8.81192 44.4385 8.99942 44.5635 9.18692 44.6885C9.87442 45.126 10.4369 45.6885 10.8744 46.376L10.8119 45.8135Z" fill="#AE9F60"/>
  <path d="M70.937 37.376C71.7495 37.626 72.562 38.0635 73.187 38.5635C73.062 37.4385 72.937 36.251 72.3745 35.1885C71.9995 34.4385 71.437 33.8135 70.8745 33.1885C70.812 33.626 70.812 34.0635 70.7495 34.501C70.7495 34.5635 70.7495 34.626 70.7495 34.751C70.7495 34.876 70.8745 34.9385 70.937 35.001C71.187 35.376 71.1245 35.9385 70.812 36.251C71.187 36.5635 71.312 37.0635 71.187 37.501C71.1245 37.501 71.062 37.501 70.937 37.501V37.376Z" fill="#C2AE8D"/>
  <path d="M22.562 52.3135L24.9995 51.4385L23.7495 48.1885L21.562 46.6885L20.2495 46.5635C20.2495 46.5635 21.4995 50.751 22.562 52.3135Z" fill="#AE9F60"/>
  <path d="M69.8122 31.751C69.5622 31.626 69.3122 31.501 69.0622 31.3135C68.2497 30.6885 67.8747 30.126 66.8122 29.751C65.9997 29.4385 65.1247 29.251 64.3747 28.751C62.9372 27.876 61.8747 26.876 60.1247 26.5635C58.0622 26.1885 54.1872 26.626 53.6247 26.3135C51.8747 25.3135 50.5622 24.876 48.3747 24.9385C47.7497 24.9385 46.6872 25.3135 46.1247 25.1885C42.8747 24.376 39.1247 23.1885 35.7497 23.751C34.3747 24.001 28.4372 24.4385 28.4997 26.001C25.1247 27.626 20.9372 26.6885 17.1872 27.501C14.1872 28.1885 11.5622 29.9385 9.43719 32.001C8.68719 32.751 7.93719 33.5635 7.81219 34.5635C7.43719 36.4385 9.18719 38.0635 10.6247 39.501C12.0622 40.876 13.3747 42.3135 14.9372 43.501C16.4997 44.6885 18.3747 45.626 20.4372 45.751C21.9372 45.8135 23.3747 45.501 24.8747 45.4385C26.2497 45.376 27.4372 45.751 28.6872 46.126L33.8747 46.3135C38.4372 46.501 43.3747 45.9385 47.9997 45.501C50.6872 45.251 53.3747 45.001 56.0622 44.751C58.0622 44.5635 60.4997 43.376 62.4997 42.751C64.3747 42.126 65.9997 41.376 67.8122 40.6885C68.1872 40.5635 68.3747 40.126 68.5622 39.9385C69.1872 39.3135 70.0622 38.751 70.6247 38.001C71.3747 37.0635 71.3747 35.8135 71.3122 34.626C71.2497 33.6885 71.1247 32.6885 70.4372 32.126C70.1872 32.001 69.9997 31.876 69.8122 31.751Z" fill="#82993F"/>
  <path d="M68.3747 31.9382C68.1247 31.8132 67.8747 31.6882 67.6247 31.5007C66.8122 30.8757 66.4997 30.3757 65.4997 30.0007C64.6872 29.6882 63.8747 29.5007 63.1872 29.0632C61.8122 28.2507 60.8122 27.2507 59.1247 27.0007C57.1872 26.6882 53.4997 27.0632 52.9372 26.7507C51.2497 25.8132 49.9997 25.3757 47.9372 25.5007C47.3747 25.5007 46.3122 25.8757 45.8122 25.7507C42.7497 24.9382 39.1247 23.8132 35.9372 24.3757C34.6247 24.5632 28.9372 25.0007 28.9997 26.5632C25.7497 28.0632 21.8122 27.2507 18.2497 28.0007C15.3747 28.6257 12.8747 30.3132 10.8747 32.3132C10.2497 32.9382 9.37468 33.8132 9.99968 34.5632C10.3747 35.0007 11.4372 35.3132 12.0622 35.0632C11.4372 35.3132 10.8122 35.5632 10.1872 35.8132C10.0622 35.8757 9.87468 35.9382 9.87468 36.0632C9.87468 36.2507 10.1247 36.3132 10.2497 36.3132C10.5622 36.3757 10.8122 36.3757 11.1247 36.4382C10.7497 36.3757 10.4997 36.9382 10.6872 37.2507C10.8747 37.5007 11.1247 37.6882 11.4372 37.8132C11.9997 38.0632 12.6872 38.2507 13.3122 38.2507C12.8747 38.4382 12.4372 38.5632 12.1872 38.9382C11.4372 39.9382 15.1872 42.5632 15.9997 43.1882C17.3122 44.1882 18.2497 44.7507 19.9997 44.5632C20.0622 44.6257 20.1247 44.7507 20.0622 44.8132C20.5622 44.6882 20.9997 44.5007 21.3747 44.2507C21.4997 44.3132 21.4372 44.5007 21.3747 44.5632C21.8747 44.5632 22.2497 44.1882 22.5622 43.8132C23.0622 43.1882 23.5622 42.6257 23.9997 42.0007C23.4997 42.8757 22.9997 43.8132 22.4997 44.6882C22.9372 44.5007 23.3122 44.3132 23.7497 44.1257C23.8122 44.3132 23.9372 44.4382 23.9997 44.6257C24.0622 44.3757 24.3747 44.1882 24.6872 44.3132C24.8122 44.3757 24.8747 44.4382 24.9997 44.5007C26.1872 45.4382 28.4372 45.6257 29.9997 45.6882C31.3747 45.7507 32.6872 45.8132 34.0622 45.8757C38.4372 46.0632 43.1247 45.5007 47.4997 45.0632C50.0622 44.8132 52.6247 44.5632 55.1872 44.3132C55.6872 44.2507 59.7497 43.2507 58.7497 42.7507C59.0622 42.6882 59.3747 42.6257 59.7497 42.5632C59.0622 41.7507 58.2497 40.9382 57.3747 40.3132C58.3747 41.0007 59.6247 41.5007 60.8747 41.7507C61.0622 41.8132 61.2497 41.8132 61.3747 41.7507C61.5622 41.6882 61.6872 41.5007 61.5622 41.3757C61.8747 41.4382 62.1872 41.3757 62.3747 41.1882C62.4372 41.1257 62.5622 41.0007 62.6872 41.0007C62.8747 40.9382 63.0622 41.0632 63.2497 41.1257C63.5622 41.2507 63.9372 41.1257 64.0622 40.8757C64.1872 40.6257 63.9997 40.2507 63.6872 40.2507C66.2497 40.4382 67.6872 39.6882 69.1247 37.8757C69.8747 37.0007 69.8122 35.7507 69.7497 34.6257C69.6872 33.7507 69.6247 32.8132 68.8747 32.2507C68.7497 32.1257 68.5622 32.0007 68.3747 31.9382Z" fill="#617E36"/>
  <path d="M36.2495 33.126C37.2495 34.876 32.812 35.8135 31.8745 36.8135C31.6245 37.0635 31.437 37.376 31.312 37.751C30.9995 38.4385 30.937 39.251 31.2495 39.876C32.062 41.5635 35.7495 42.0635 37.437 42.6885C40.3745 43.751 43.3745 44.876 46.562 45.376C47.4995 45.501 48.6245 45.251 49.562 45.1885C50.812 45.126 52.062 44.9385 53.2495 44.8135C55.3745 44.5635 57.4995 44.626 59.1245 43.4385C57.812 43.001 56.3745 42.6885 55.062 42.251C53.7495 41.876 52.3745 41.1885 51.062 40.876C49.437 40.251 47.1245 39.501 46.1245 38.251C45.937 38.001 45.7495 37.751 45.6245 37.4385C45.187 35.876 48.187 35.0635 46.7495 33.376C45.6245 32.0635 42.937 31.5635 41.312 30.876C39.062 30.001 36.812 29.1885 34.562 28.376C33.187 27.876 31.812 27.251 30.437 26.8135C30.1245 26.6885 27.8745 26.3135 28.6245 25.6885C26.687 27.1885 24.687 26.626 22.4995 27.251C23.3745 27.001 24.3745 27.6885 25.1245 28.001C26.1245 28.376 27.187 28.6885 28.187 29.0635C30.437 29.9385 32.687 31.001 34.8745 32.0635C35.437 32.376 35.9995 32.626 36.2495 33.126Z" fill="#A7A131"/>
  <path d="M53.6875 42.313C52.375 41.938 51 41.2505 49.6875 40.938C48.0625 40.313 45.75 39.563 44.75 38.313C44.5625 38.063 44.375 37.813 44.25 37.5005C43.8125 35.938 46.8125 35.1255 45.375 33.438C44.25 32.1255 41.5625 31.6255 39.9375 30.938C37.6875 30.063 35.4375 29.2505 33.1875 28.438C31.8125 27.938 30.4375 27.313 29.0625 26.8755C28.875 26.813 28.25 26.688 27.75 26.5005C27.625 26.6255 27.4375 26.7505 27.1875 26.813C24.4375 27.563 21.3125 27.063 18.5 27.688C20.25 27.3755 22.125 27.438 23.75 28.0005C24.75 28.3755 25.8125 28.688 26.8125 29.063C29.0625 29.938 31.3125 31.0005 33.5 32.063C34 32.313 34.5625 32.563 34.875 33.063C35.875 34.813 31.4375 35.7505 30.5 36.7505C30.25 37.0005 30.0625 37.313 29.9375 37.688C29.625 38.3755 29.5625 39.188 29.875 39.813C30.6875 41.5005 34.375 42.0005 36.0625 42.6255C39 43.688 42 44.813 45.1875 45.313C46.125 45.438 47.25 45.188 48.1875 45.1255C49.4375 45.063 50.6875 44.8755 51.875 44.7505C54 44.5005 56.125 44.563 57.75 43.3755C56.4375 43.063 55.0625 42.7505 53.6875 42.313Z" fill="#857A2E"/>
  <path d="M35.6247 33.376C36.6247 35.126 32.1872 36.0635 31.2497 37.0635C30.9997 37.3135 30.8122 37.626 30.6872 38.001C30.3747 38.6885 30.3122 39.501 30.6247 40.126C31.4372 41.8135 35.1247 42.3135 36.8122 42.9385C39.7497 44.001 42.7497 45.126 45.9372 45.626C46.8747 45.751 47.9997 45.501 48.9372 45.4385C50.1872 45.376 51.4372 45.1885 52.6247 45.0635C54.7497 44.8135 56.8747 44.876 58.4997 43.6885C57.1872 43.251 55.7497 42.9385 54.4372 42.501C53.1247 42.126 51.7497 41.4385 50.4372 41.126C48.8122 40.501 46.4997 39.751 45.4997 38.501C45.3122 38.251 45.1247 38.001 44.9997 37.6885C44.5622 36.126 47.5622 35.3135 46.1247 33.626C44.9997 32.3135 42.3122 31.8135 40.6872 31.126C38.4372 30.251 36.1872 29.4385 33.9372 28.626C32.7497 28.1885 31.5622 27.5635 30.3747 27.3135C29.3122 27.126 28.0622 27.126 26.9372 27.0635C26.6247 27.0635 26.3122 27.0635 25.9997 27.0635C25.4997 27.126 24.4997 27.0635 24.3122 27.626C23.9997 28.5635 26.8122 29.0635 27.4997 29.3135C29.7497 30.1885 31.9997 31.251 34.1872 32.3135C34.7497 32.626 35.3122 32.9385 35.6247 33.376Z" fill="#E6CC46"/>
  <path d="M35.8123 34.4383C34.1248 35.8758 33.8123 38.4383 35.3123 40.0008C35.9998 40.7508 36.9998 41.1883 37.9998 41.6258C39.7498 42.4383 41.4998 43.3133 43.2498 43.9383C44.1873 44.2508 45.1248 44.5633 46.0623 44.8133C46.6248 44.9383 48.2498 45.5633 48.8123 45.3758C47.6248 45.7508 46.3123 46.0008 44.9998 46.0008C44.8123 45.6258 44.3123 45.4383 43.8123 45.2508C40.6873 44.3133 37.5623 43.4383 34.3748 42.5008C32.5623 42.0008 29.4998 40.4383 30.2498 38.3758C30.5623 37.4383 31.3748 36.6883 32.3123 36.2508C33.4373 35.7508 34.3748 35.3133 35.4373 34.6258C35.5623 34.5633 35.5623 34.4383 35.6873 34.3758C35.8123 34.3133 35.8123 34.5633 35.7498 34.5008L35.8123 34.4383Z" fill="#C7B348"/>
  <path d="M17.4999 28.8134C16.1249 29.2509 15.1249 30.0009 13.9999 30.6884C12.6874 31.5634 11.2499 32.1884 9.99993 33.1259C9.62493 33.4384 9.12493 33.8134 9.62493 34.2509C9.87493 34.4384 10.1874 34.5009 10.4999 34.5634C13.0624 34.9384 15.9374 34.9384 18.4999 34.8759C18.3749 35.1884 18.2499 35.5009 18.1874 35.8134C19.9999 35.7509 21.8124 35.9384 23.5624 36.2509C23.7499 36.2509 23.9374 36.3134 24.0624 36.4384C24.3124 36.6884 24.0624 37.126 23.9999 37.4385C23.9999 37.876 24.3124 38.1884 24.6874 38.4384C25.4999 38.8759 29.7499 39.5635 29.8749 40.251C29.6874 39.5635 29.5624 38.8134 29.6249 38.1259C29.8749 36.1884 32.1874 36.0634 33.7499 35.0634C34.2499 34.7509 34.9999 34.0634 34.9374 33.4384C34.8749 32.8759 34.3749 32.8134 33.8124 32.5634C32.1874 31.8759 30.5624 31.1885 28.9374 30.4385C27.0624 29.5635 25.0624 28.9384 22.9999 28.6259C21.2499 28.3759 19.3124 28.3759 17.6874 28.8134C17.6249 28.7509 17.5624 28.8134 17.4999 28.8134Z" fill="#577231"/>
  <path d="M17.1875 25.8756C15.875 26.5006 15.3125 27.4381 15.4375 28.6256C15.625 30.1881 15.3125 31.8131 15 33.3756C15 33.5006 14.9375 33.6881 15.0625 33.7506C15.125 33.8131 15.1875 33.8756 15.3125 33.8756C15.75 34.0631 16.25 34.1256 16.6875 34.1881C17.4375 34.3131 17.875 34.1256 18.625 34.0631C19.5625 33.9381 20.625 34.1256 21.625 34.1881C23.6875 34.4381 25.6875 34.6256 27.75 34.8756C29 35.0006 30.25 35.1256 31.375 34.6881C35.1875 33.1881 31.25 29.9381 29.5 28.6881C27.5 27.2506 25.125 26.0006 22.625 25.4381C20.9375 25.0631 19 25.063 17.4375 25.688C17.3125 25.813 17.25 25.8756 17.1875 25.8756Z" fill="#3A5220"/>
  <path d="M16.8745 25.4381C15.312 26.1256 14.1245 27.4381 13.062 28.6256C12.437 29.3131 11.687 30.0006 11.2495 30.7506C10.7495 31.5631 10.437 32.4381 10.062 33.3131C9.99951 33.4381 9.99951 33.5006 9.99951 33.6256C9.99951 33.7506 10.1245 33.8756 10.2495 34.0006C10.937 34.5631 12.062 34.5005 12.9995 34.438C15.562 34.188 18.187 34.1255 20.7495 34.1255C22.8745 34.1255 25.1245 34.5006 27.2495 34.1881C28.7495 34.0006 30.2495 33.8131 31.6245 33.2506C34.562 32.1256 30.4995 29.2506 29.187 28.3131C27.187 26.8756 24.812 25.6256 22.312 25.0631C20.6245 24.6881 18.687 24.6881 17.1245 25.3131C16.937 25.3756 16.8745 25.4381 16.8745 25.4381Z" fill="#82993F"/>
  <path d="M16.5623 28.0635C16.3748 28.001 16.1873 27.9385 15.9998 27.8135C14.5623 26.6885 16.6873 25.751 17.6873 25.4385C20.2498 24.5635 24.1873 25.0635 25.6873 27.3135C25.8123 27.501 25.8748 27.6885 25.8748 27.876C25.8123 28.251 25.4373 28.501 25.0623 28.626C24.1873 28.876 23.4998 28.5635 22.6873 28.376C22.1873 28.251 21.6248 28.126 21.1248 28.0635C20.3123 27.9385 19.4998 27.9385 18.6873 28.0635C18.2498 28.126 17.8123 28.1885 17.3123 28.1885C17.0623 28.126 16.8123 28.126 16.5623 28.0635Z" fill="#9EAF60"/>
  <path opacity="0.38" d="M29.1245 28.3136C27.1245 26.8761 24.7495 25.6261 22.2495 25.0636C21.312 24.8136 20.312 24.7511 19.312 24.8136C20.1245 25.3761 20.7495 26.1886 21.187 26.9386C21.812 28.0011 21.937 29.4386 21.1245 30.3761C20.812 30.7511 20.437 31.0636 19.9995 31.3136C18.6245 32.2511 17.2495 33.2511 15.812 34.1261C17.437 34.0636 19.062 34.0011 20.687 34.0011C22.812 34.0011 25.062 34.3761 27.187 34.0636C28.687 33.8761 30.187 33.6886 31.562 33.1261C34.4995 32.1261 30.437 29.2511 29.1245 28.3136Z" fill="#63782D"/>
  <path d="M48.8745 31.2509C51.187 31.9384 53.812 32.1259 56.187 32.2509C58.6245 32.4384 61.2495 31.6884 63.562 31.0009C63.9995 30.8759 63.812 30.3134 63.3745 30.3759C60.8745 30.9384 58.6245 32.0009 55.937 31.8759C53.6245 31.8134 51.2495 31.5009 48.8745 31.2509Z" fill="#577231"/>
  <path d="M66.4995 31.501C63.7495 30.0635 60.562 29.4385 57.3745 29.376C54.3745 29.3135 50.562 29.3135 47.7495 30.3135C47.562 30.376 47.3745 30.501 47.312 30.6885C47.312 30.9385 47.562 31.0635 47.812 31.126C52.1245 32.3135 56.4995 33.251 60.8745 34.3135C62.812 34.8135 64.937 35.1885 66.687 34.376C67.312 34.0635 67.812 33.5635 67.812 32.9385C67.7495 32.3135 67.1245 31.8135 66.4995 31.501Z" fill="#577231"/>
  <path d="M48.6245 31.1258C48.187 30.9383 47.7495 30.7508 47.437 30.5008C48.3745 29.0008 48.4995 27.1258 48.937 25.5008C49.187 24.5633 49.687 23.5008 50.7495 23.4383C51.8745 23.3758 52.6245 24.6258 53.7495 24.6258C54.937 24.6883 55.562 23.4383 55.812 22.4383C56.187 20.8133 56.2495 19.0633 57.187 17.6258C57.312 17.4383 57.4995 17.1883 57.7495 17.1258C58.437 16.8133 59.187 17.5008 59.562 18.1258C61.7495 21.6883 62.7495 25.7508 63.7495 29.6883C63.812 29.8758 63.8745 30.1258 63.687 30.3133C63.562 30.4383 63.3745 30.5008 63.187 30.5633C60.3745 31.3133 57.562 32.1258 54.562 32.0633C52.7495 32.1258 50.3745 31.8758 48.6245 31.1258Z" fill="#82993F"/>
  <path d="M51.937 23.9383C52.9995 24.6883 54.8745 25.1258 55.562 23.7508C55.9995 22.8758 55.937 21.8133 56.1245 20.9383C56.2495 20.3133 56.3745 19.7508 56.6245 19.1883C56.8745 18.4383 57.3745 16.8758 58.6245 17.6883C58.937 17.8758 59.187 18.1883 59.3745 18.4383C59.687 18.8133 59.937 19.1883 60.2495 19.6258C59.562 18.7508 58.3745 15.5008 56.7495 17.8758C56.062 18.8758 55.8745 20.2508 55.687 21.3758C55.6245 21.8758 55.562 22.4383 55.4995 22.9383C55.437 23.2508 55.437 23.6883 55.187 24.0008C54.437 24.9383 52.812 24.4383 51.937 23.9383Z" fill="#577231"/>
  <path d="M59.3745 18.126C59.8745 20.1885 60.9995 22.1885 61.687 24.1885C62.3745 26.251 62.687 28.376 63.187 30.501C63.312 31.001 64.187 30.8135 64.062 30.3135C63.687 28.126 62.8745 26.001 62.062 23.876C61.3745 21.9385 60.7495 19.8135 59.3745 18.126Z" fill="#577231"/>
  <path opacity="0.38" d="M56.562 19.001C56.6245 18.8135 56.9995 18.751 57.187 18.876C57.3745 19.001 57.4995 19.251 57.562 19.4385C58.6245 22.0635 59.312 24.8135 59.6245 27.5635C59.687 28.1885 59.7495 28.8135 59.562 29.376C59.1245 30.876 57.437 31.751 55.8745 32.3135C58.1245 31.876 60.3745 31.501 62.6245 31.0635C62.812 31.001 62.9995 31.001 63.187 30.876C63.437 30.6885 63.437 30.376 63.437 30.126C63.437 28.1885 62.687 26.3135 61.937 24.4385C61.187 22.5635 60.687 19.0635 58.7495 17.8135C57.2495 16.751 56.437 18.1885 56.3745 19.3135L56.562 19.001Z" fill="#63782D"/>
  <path d="M48.5618 26.6261C47.3118 26.4386 45.9368 27.2511 45.6243 28.3761C45.5618 28.6261 45.5618 28.9386 45.7493 29.0636C45.8743 29.1261 45.9993 29.1886 46.1243 29.2511C46.6868 29.3761 47.1868 29.5011 47.7493 29.5636C48.2493 28.7511 48.4993 27.8136 48.5618 26.8761V26.6261Z" fill="#577231"/>
  <path d="M41.8119 39.6885C41.8119 39.751 41.7494 39.751 41.6869 39.8135C41.3744 39.9385 40.9369 39.8135 40.6244 39.751C40.2494 39.6885 39.8744 39.5635 39.4994 39.376C39.2494 39.3135 38.9994 39.1885 38.8744 39.0635C38.5619 38.8135 38.6869 38.501 39.0619 38.376C39.3119 38.3135 39.6869 38.251 39.9369 38.3135C40.1869 38.376 40.4994 38.5635 40.7494 38.6885C40.9994 38.876 41.2494 39.001 41.4994 39.1885C41.6244 39.3135 41.8744 39.501 41.8119 39.6885Z" fill="#A2933A"/>
  <path d="M41.5621 39.626C41.5621 39.6885 41.4996 39.6885 41.4371 39.751C41.1871 39.876 40.7496 39.751 40.4996 39.6885C40.1871 39.626 39.8121 39.501 39.4996 39.376C39.3121 39.3135 39.0621 39.1885 38.9371 39.0635C38.6871 38.8135 38.7496 38.5635 39.1246 38.4385C39.3746 38.376 39.6871 38.3135 39.9371 38.376C40.1871 38.4385 40.4371 38.626 40.6246 38.751C40.8746 38.876 41.0621 39.0635 41.3121 39.1885C41.3746 39.3135 41.6246 39.501 41.5621 39.626Z" fill="#C7B348"/>
  <path d="M39.1245 32.001C39.1245 32.001 39.1245 32.0635 39.062 32.0635C38.8745 32.1885 38.6245 32.1885 38.3745 32.1885C38.1245 32.1885 37.8745 32.126 37.6245 32.126C37.4995 32.126 37.312 32.0635 37.187 32.001C36.937 31.876 36.937 31.6885 37.187 31.5635C37.312 31.501 37.562 31.4385 37.7495 31.4385C37.937 31.4385 38.1245 31.501 38.312 31.5635C38.4995 31.626 38.687 31.6885 38.8745 31.751C38.937 31.8135 39.187 31.9385 39.1245 32.001Z" fill="#A2933A"/>
  <path d="M38.9995 32.0635C38.9995 32.0635 38.9995 32.126 38.937 32.126C38.812 32.251 38.4995 32.1885 38.3745 32.1885C38.1245 32.1885 37.937 32.126 37.7495 32.126C37.6245 32.126 37.4995 32.0635 37.3745 32.001C37.187 31.876 37.187 31.6885 37.3745 31.626C37.4995 31.5635 37.687 31.501 37.8745 31.501C37.9995 31.501 38.187 31.5635 38.3745 31.626C38.562 31.6885 38.687 31.751 38.8745 31.8135C38.812 31.876 38.9995 31.9385 38.9995 32.0635Z" fill="#C7B348"/>
  <path d="M42.8126 39.438C42.8126 39.438 42.7501 39.438 42.7501 39.5005C42.5626 39.5005 42.3751 39.3755 42.1876 39.313C42.0001 39.188 41.8751 39.063 41.6876 38.938C41.5626 38.8755 41.5001 38.7505 41.4376 38.688C41.3751 38.5005 41.4376 38.3755 41.6876 38.3755C41.8126 38.3755 42.0001 38.438 42.1251 38.5005C42.2501 38.563 42.3751 38.7505 42.4376 38.813C42.5626 38.938 42.6251 39.063 42.7501 39.188C42.7501 39.188 42.8751 39.3755 42.8126 39.438Z" fill="#A2933A"/>
  <path d="M42.625 39.3755C42.625 39.3755 42.5625 39.3755 42.5625 39.438C42.375 39.438 42.1875 39.313 42.0625 39.2505C41.9375 39.188 41.75 39.063 41.625 38.938C41.5625 38.8755 41.4375 38.813 41.375 38.688C41.3125 38.5005 41.375 38.3755 41.5625 38.3755C41.6875 38.3755 41.875 38.438 42 38.5005C42.125 38.563 42.1875 38.688 42.3125 38.813C42.375 38.938 42.5 39.0005 42.5625 39.1255C42.625 39.188 42.6875 39.313 42.625 39.3755Z" fill="#C7B348"/>
  <path d="M44.1873 42.3129C44.0623 42.4379 43.8748 42.3754 43.7498 42.3129C43.6248 42.2504 43.4998 42.2504 43.3123 42.1879C43.2498 42.1879 43.1248 42.1254 43.0623 42.0629C42.9373 41.9379 42.9998 41.8754 43.1248 41.8129C43.2498 41.8129 43.3748 41.7504 43.4373 41.8129C43.5623 41.8129 43.6248 41.9379 43.7498 41.9379C43.8748 42.0004 43.9373 42.0629 43.9998 42.1254C44.1248 42.1879 44.2498 42.2504 44.1873 42.3129Z" fill="#A2933A"/>
  <path d="M44.1248 42.3129C43.9998 42.3754 43.8123 42.3754 43.7498 42.3129C43.6248 42.3129 43.4998 42.2504 43.3748 42.1879C43.3123 42.1879 43.2498 42.1254 43.1873 42.0629C43.0623 42.0004 43.1248 41.8754 43.2498 41.8129C43.3123 41.8129 43.4373 41.7504 43.5623 41.8129C43.6248 41.8129 43.7498 41.8754 43.8123 41.9379C43.8748 42.0004 43.9998 42.0629 44.0623 42.1254C44.0623 42.1879 44.1248 42.2504 44.1248 42.3129Z" fill="#C7B348"/>
  <path d="M55.4373 43.9384C55.3123 44.0634 55.1248 44.0009 54.9998 43.9384C54.8748 43.8759 54.7498 43.8759 54.5623 43.8134C54.4998 43.8134 54.3748 43.7509 54.3123 43.6884C54.1873 43.5634 54.2498 43.5009 54.3748 43.4384C54.4998 43.4384 54.6248 43.3759 54.6873 43.4384C54.8123 43.4384 54.8748 43.5634 54.9998 43.5634C55.1248 43.6259 55.1873 43.6884 55.2498 43.7509C55.3123 43.8134 55.4373 43.8759 55.4373 43.9384Z" fill="#A2933A"/>
  <path d="M55.3123 43.9384C55.1873 44.0009 54.9998 44.0009 54.9373 43.9384C54.8123 43.9384 54.6873 43.8759 54.5623 43.8134C54.4998 43.8134 54.4373 43.7509 54.3748 43.6884C54.2498 43.6259 54.3123 43.5009 54.4373 43.4384C54.4998 43.4384 54.6248 43.3759 54.7498 43.4384C54.8123 43.4384 54.9373 43.5009 54.9998 43.5634C55.0623 43.6259 55.1873 43.6884 55.2498 43.7509C55.2498 43.8134 55.3123 43.8759 55.3123 43.9384Z" fill="#C7B348"/>
  <path d="M39.4995 30.938C39.187 31.063 36.812 29.7505 36.437 29.6255C35.312 29.1255 34.1245 28.688 32.937 28.2505C31.187 27.563 28.3745 26.063 26.3745 26.563C27.687 27.688 29.312 28.438 30.562 29.5005C31.2495 30.063 31.7495 30.8755 32.4995 31.3755C33.2495 31.8755 34.2495 32.188 35.062 32.563C34.2495 32.188 36.3745 31.5005 36.562 31.438C37.562 31.3755 38.562 31.3755 39.4995 30.938Z" fill="#EFDD90"/>
  <path d="M52.8746 24.8133C52.2496 23.6883 50.4996 23.2508 49.6871 24.4383C49.1246 25.2508 49.1871 26.4383 49.3121 27.3133C49.3746 27.5008 49.4371 27.7508 49.6871 27.8133C49.8746 27.8133 50.0621 27.6883 50.1871 27.5008C50.8121 26.6883 51.4371 25.7508 52.4371 25.3758C52.6246 25.3133 52.9371 25.1883 52.9371 25.0008C52.9371 25.0008 52.8746 24.8758 52.8746 24.8133Z" fill="#9EAF60"/>
  <path d="M54.437 31.063C54.3745 31.313 54.687 31.5005 54.937 31.5005C55.187 31.5005 55.437 31.313 55.562 31.063C55.687 30.813 55.687 30.563 55.687 30.3755C55.7495 29.313 55.812 28.2505 55.8745 27.1255C55.8745 27.688 56.1245 31.1255 57.1245 30.813C57.3745 30.7505 57.562 30.5005 57.812 30.563C57.937 30.563 57.9995 30.688 58.1245 30.7505C58.312 30.938 58.4995 31.063 58.6245 31.2505L58.812 31.3755C58.937 31.3755 59.062 31.438 59.187 31.438L59.3745 31.3755C59.4995 31.3755 59.562 31.3755 59.687 31.438C59.812 31.438 59.937 31.5005 59.8745 31.563C59.8745 31.6255 59.812 31.6255 59.812 31.6255C58.812 32.188 57.2495 32.1255 56.062 32.188C54.7495 32.2505 53.437 32.2505 52.1245 32.0005C52.562 32.1255 53.062 32.1255 53.4995 31.8755C53.937 31.7505 54.187 31.063 54.437 31.063Z" fill="#577231"/>
  <path d="M19.4995 44.0005C19.687 44.188 19.8745 44.3755 20.1245 44.5005C20.187 44.5005 20.2495 44.438 20.187 44.438C19.937 44.313 19.687 44.188 19.4995 44.0005Z" fill="#577231"/>
  <path d="M19.312 42.1255C19.9995 42.813 20.3745 43.563 20.812 44.3755C20.8745 44.5005 21.1245 44.438 21.062 44.313C20.7495 43.5005 20.062 42.7505 19.312 42.1255Z" fill="#577231"/>
  <path d="M21.2495 43.313C21.312 43.688 21.3745 44.063 21.437 44.3755C21.437 44.5005 21.687 44.438 21.687 44.3755C21.6245 44.0005 21.562 43.688 21.437 43.313C21.437 43.188 21.2495 43.188 21.2495 43.313Z" fill="#577231"/>
  <path d="M21.687 41.5005C21.8745 42.438 22.062 43.313 22.062 44.2505C22.062 44.438 22.3745 44.438 22.3745 44.2505C22.4995 43.3755 22.312 42.2505 21.687 41.5005Z" fill="#577231"/>
  <path d="M60.7495 41.001C60.937 41.1885 61.1245 41.376 61.312 41.5635C61.437 41.626 61.562 41.501 61.437 41.4385C61.187 41.251 60.9995 41.126 60.7495 41.001Z" fill="#577231"/>
  <path d="M59.7495 37.4384C60.562 38.5634 61.2495 39.7509 61.6245 41.0634C61.687 41.2509 62.062 41.1884 61.9995 41.0009C61.562 39.6884 60.8745 38.4384 59.8745 37.4384C59.812 37.3134 59.687 37.3759 59.7495 37.4384Z" fill="#577231"/>
  <path d="M62.1245 40.188C62.1245 40.438 62.1245 40.7505 62.2495 41.0005C62.312 41.1255 62.562 41.063 62.4995 40.938C62.3745 40.688 62.3745 40.438 62.3745 40.188C62.3745 40.063 62.1245 40.063 62.1245 40.188Z" fill="#577231"/>
  <path d="M62.812 40.4385C62.812 40.5635 62.812 40.626 62.812 40.751C62.812 40.876 63.062 40.876 63.062 40.751C63.062 40.626 63.062 40.5635 63.062 40.4385C62.9995 40.3135 62.812 40.3135 62.812 40.4385Z" fill="#577231"/>
  <path d="M13.437 33.688C13.562 33.938 13.687 34.2505 13.812 34.5005C13.8745 34.563 13.9995 34.5005 13.937 34.438C13.7495 34.1255 13.6245 33.938 13.437 33.688Z" fill="#577231"/>
  <path d="M14.2496 33.813C14.1246 33.938 14.0621 34.1255 14.1246 34.2505C14.1871 34.313 14.3121 34.313 14.3121 34.188C14.2496 34.063 14.2496 33.938 14.3746 33.8755C14.3746 33.813 14.3121 33.7505 14.2496 33.813Z" fill="#577231"/>
  <path d="M14.125 32.376C14.4375 33.001 14.5625 33.626 14.625 34.251C14.625 34.376 14.875 34.376 14.875 34.251C14.8125 33.5635 14.625 32.9385 14.25 32.3135C14.1875 32.251 14.125 32.3135 14.125 32.376Z" fill="#577231"/>
  <path d="M15.1246 33.8135C15.0621 33.8135 15.0621 33.876 14.9996 33.876C14.8746 33.9385 15.0621 34.0635 15.1246 34.001C15.1246 33.9385 15.1871 33.9385 15.1871 33.876C15.2496 33.876 15.1871 33.8135 15.1246 33.8135Z" fill="#577231"/>
  <path d="M15.437 33.9384C15.3745 33.9384 15.3745 34.0009 15.312 34.0009C15.2495 34.0634 15.3745 34.1259 15.437 34.0634C15.4995 34.0009 15.4995 34.0009 15.562 33.9384C15.562 33.9384 15.4995 33.8759 15.437 33.9384Z" fill="#577231"/>
  <path d="M12.7495 33.3755C12.937 33.813 13.187 34.313 13.4995 34.688C13.6245 34.813 13.812 34.688 13.7495 34.563C13.4995 34.1255 13.187 33.7505 12.7495 33.3755Z" fill="#577231"/>
  <path d="M13.7494 33.9383C13.8119 34.0633 13.8744 34.1258 13.9994 34.2508C14.0619 34.3133 14.2494 34.2508 14.1869 34.1883C14.1244 34.0633 14.0619 34.0008 13.9369 33.8758C13.8744 33.7508 13.6869 33.8133 13.7494 33.9383Z" fill="#577231"/>
  <path d="M15.0625 33.751C15.0625 33.8135 15.0625 33.8135 15.0625 33.876C15.0625 34.001 15.25 34.001 15.25 33.876C15.25 33.8135 15.25 33.8135 15.25 33.751C15.25 33.6885 15.0625 33.6885 15.0625 33.751Z" fill="#577231"/>
  <path d="M15.6245 33.9385C15.6245 34.001 15.6245 34.0635 15.6245 34.126C15.6245 34.1885 15.812 34.1885 15.812 34.126C15.812 34.0635 15.812 34.001 15.812 33.9385C15.812 33.876 15.6245 33.876 15.6245 33.9385Z" fill="#577231"/>
  <path d="M54.7495 32.1882C55.3745 32.3132 55.9995 32.1882 56.4995 31.8757C56.812 31.6882 56.437 31.3132 56.187 31.5632C55.812 31.8757 55.2495 32.0632 54.7495 32.1882C54.687 32.1882 54.687 32.1257 54.7495 32.1882Z" fill="#364D1D"/>
  <path d="M57.437 31.376C57.1245 31.4385 56.812 31.4385 56.562 31.626C56.3745 31.751 56.4995 32.001 56.7495 31.9385C57.062 31.876 57.312 31.6885 57.562 31.5635C57.6245 31.501 57.562 31.376 57.437 31.376Z" fill="#364D1D"/>
  <path d="M61.2495 31.6261C62.187 31.6261 62.8745 31.3136 63.562 30.8136C63.8745 30.5636 63.312 30.1886 63.1245 30.5011C62.687 31.0636 61.9995 31.5011 61.2495 31.6261Z" fill="#364D1D"/>
  <path d="M64.1868 30.876C63.9368 30.6885 63.6868 30.626 63.3743 30.6885C62.9993 30.751 63.1868 31.3135 63.5618 31.1885C63.6868 31.1885 63.8118 31.126 63.9368 31.1885C64.1243 31.251 64.3743 31.001 64.1868 30.876Z" fill="#364D1D"/>
  <path d="M47.562 29.3133C47.937 29.2508 48.1245 28.8758 48.312 28.6258C48.562 28.3133 48.687 27.9383 48.6245 27.5633C48.562 27.3758 48.2495 27.2508 48.187 27.5008C48.062 27.8133 48.062 28.1258 47.937 28.4383C47.812 28.7508 47.6245 29.0008 47.562 29.3133Z" fill="#364D1D"/>
  <path d="M61.1245 43.3131C61.6245 43.3131 62.1245 43.0631 62.562 42.8756C62.8745 42.7506 62.562 42.3131 62.312 42.5006C61.937 42.6256 61.3745 42.8756 61.1245 43.3131Z" fill="#364D1D"/>
  <path d="M66.6246 41.251C65.3746 41.376 64.1246 41.876 62.9371 42.1885C62.4996 42.3135 62.7496 42.8135 63.1871 42.6885C64.3121 42.251 65.5621 41.876 66.6246 41.251Z" fill="#364D1D"/>
  <path d="M63.562 40.9385C63.562 41.001 63.562 41.001 63.562 41.0635C63.562 41.1885 63.687 41.1885 63.7495 41.126C63.812 41.0635 63.7495 40.9385 63.687 40.9385C63.6245 40.9385 63.562 40.9385 63.562 40.9385Z" fill="#364D1D"/>
  <path d="M19.312 44.3756C19.7495 44.3756 20.187 44.5006 20.562 44.6256C20.812 44.6881 20.937 44.3131 20.687 44.2506C20.187 44.1881 19.7495 44.2506 19.312 44.3756Z" fill="#364D1D"/>
  <path d="M23.312 44.1885C23.2495 44.1885 23.2495 44.1885 23.187 44.1885C23.062 44.1885 22.937 44.376 23.062 44.4385C23.187 44.5635 23.3745 44.4385 23.3745 44.3135C23.3745 44.251 23.3745 44.251 23.3745 44.1885C23.437 44.251 23.3745 44.1885 23.312 44.1885Z" fill="#364D1D"/>
  <path d="M24.3122 44.0007C24.2497 44.0007 24.2497 44.0632 24.1872 44.0632C23.8122 44.2507 24.3122 44.6882 24.4997 44.3757C24.4997 44.3132 24.5622 44.3132 24.5622 44.2507C24.6872 44.1257 24.4997 43.9382 24.3122 44.0007Z" fill="#364D1D"/>
  <path d="M25.1245 44.5011C26.062 45.8761 28.1245 45.5636 29.6245 46.0011C29.937 46.0636 30.062 45.6886 29.812 45.5636C29.2495 45.2511 28.6245 45.2511 27.937 45.2511C26.8745 45.1886 26.1245 44.8136 25.2495 44.3761C25.187 44.3136 25.1245 44.3761 25.1245 44.5011Z" fill="#364D1D"/>
  <path d="M29.5625 33.3135C29.4375 33.4385 29.4375 33.5635 29.4375 33.6885C29.4375 33.8135 29.6875 33.8135 29.6875 33.6885C29.6875 33.501 29.6875 33.4385 29.5625 33.3135C29.5625 33.251 29.5625 33.251 29.5625 33.3135Z" fill="#364D1D"/>
  <path d="M29.5624 32.0633C29.6874 32.5633 29.7499 33.0633 29.6249 33.5633C29.5624 33.9383 30.3749 33.9383 30.3124 33.5633C30.2499 33.0008 30.1249 32.4383 29.7499 32.0008C29.6874 31.8758 29.4999 31.9383 29.5624 32.0633Z" fill="#364D1D"/>
  <path d="M30.187 33.313C30.187 33.438 30.187 33.563 30.2495 33.688C30.312 34.0005 30.812 34.0005 30.8745 33.688C30.937 33.563 30.937 33.438 30.937 33.313C30.8745 32.8755 30.187 32.8755 30.187 33.313Z" fill="#364D1D"/>
  <path d="M30.937 33.251C30.8745 33.376 30.8745 33.501 30.937 33.626C30.9995 33.8135 31.3745 33.8135 31.437 33.626C31.437 33.501 31.437 33.376 31.437 33.251C31.3745 33.0635 30.9995 33.0635 30.937 33.251Z" fill="#364D1D"/>
  <path d="M11.812 34.8135C11.937 34.876 11.9995 34.876 12.1245 34.876C12.312 34.9385 12.312 34.626 12.1245 34.6885C11.9995 34.751 11.8745 34.751 11.812 34.8135C11.7495 34.8135 11.7495 34.8135 11.812 34.8135Z" fill="#364D1D"/>
  <path d="M7.12461 35.4385C6.81211 38.1885 7.81211 41.3135 8.37461 44.001C8.43711 44.1885 8.81211 44.126 8.74961 43.9385C8.43711 42.501 8.18711 41.126 7.93711 39.6885C7.68711 38.251 7.62461 36.8135 7.12461 35.4385Z" fill="#C6BA8E"/>
  <path d="M8.43707 44.1879C9.87457 45.4379 11.1871 46.8129 12.5621 48.1254C12.6871 48.2504 12.9371 48.0629 12.8121 47.9379C11.6871 46.5004 10.1246 45.1254 8.56207 44.0629C8.49957 44.0004 8.31207 44.1254 8.43707 44.1879Z" fill="#C6BA8E"/>
  <path d="M12.7495 48.1883C14.312 47.5008 15.312 45.6883 15.812 44.3133C15.8745 44.1258 15.4995 44.0008 15.437 44.2508C15.187 45.0633 14.812 45.7508 14.312 46.4383C13.812 47.0633 13.1245 47.5633 12.7495 48.1883Z" fill="#283308"/>
  <path d="M16.4369 53.0009C15.9369 51.5009 15.4369 50.0009 14.9994 48.5009C14.9369 48.3134 14.6244 48.3759 14.6869 48.5634C15.1869 50.0009 15.6244 51.5009 16.1244 52.9384C16.1869 53.0009 16.3119 53.0009 16.4369 53.0009Z" fill="#AE9F60"/>
  <path d="M47.7495 53.876C48.437 52.3135 48.8745 50.8135 49.1245 49.1885C49.187 48.876 48.6245 48.876 48.562 49.1885C48.312 50.751 47.8745 52.1885 47.312 53.6885C47.312 53.751 47.2495 53.751 47.2495 53.8135C47.3745 53.876 47.562 53.876 47.7495 53.876Z" fill="#283308"/>
  <path d="M42.687 46.876C42.7495 47.1885 42.9995 47.501 43.1245 47.751C43.312 48.0635 43.4995 48.376 43.687 48.751C43.812 48.9385 44.187 48.751 44.062 48.5635C43.7495 48.001 43.3745 47.251 42.687 46.876Z" fill="#283308"/>
  <path d="M43.812 49.1255C47.062 49.563 50.3745 49.5005 53.6245 48.7505C53.9995 48.688 53.812 48.188 53.4995 48.2505C50.312 48.8755 47.187 49.1255 43.937 48.7505C43.6245 48.688 43.562 49.1255 43.812 49.1255Z" fill="#283308"/>
  <path d="M53.6245 48.4385C54.437 47.6885 54.6245 46.376 54.8745 45.4385C54.937 45.1885 54.4995 45.0635 54.437 45.3135C54.2495 45.876 54.1245 46.376 53.937 46.9385C53.7495 47.501 53.562 47.9385 53.6245 48.4385C53.6245 48.501 53.562 48.4385 53.6245 48.4385Z" fill="#283308"/>
  <path d="M51.6245 54.6259C52.062 52.8134 52.187 50.9384 51.8745 49.1259C51.8745 49.0009 51.6245 49.0634 51.6245 49.1259C51.562 50.9384 51.437 52.7509 51.1245 54.5009C51.3745 54.5634 51.4995 54.5634 51.6245 54.6259Z" fill="#283308"/>
  <path d="M60.312 55.0635C61.812 52.751 62.8745 50.0635 63.7495 47.5635C63.812 47.3135 63.3745 47.1885 63.312 47.4385C62.3745 50.126 60.9995 52.5635 59.7495 55.126C59.937 55.126 60.1245 55.126 60.312 55.0635Z" fill="#251805"/>
  <path d="M63.3745 47.6884C63.9995 47.6884 64.562 47.4383 65.187 47.2508C65.812 47.0633 66.437 46.8758 66.9995 46.6883C67.2495 46.5633 67.062 46.2508 66.812 46.3133C66.187 46.4383 65.562 46.6883 64.9995 46.8758C64.3745 47.0633 63.7495 47.2509 63.3745 47.6884Z" fill="#283308"/>
  <path d="M67.1245 46.5633C67.562 45.8758 67.687 45.1258 67.937 44.3758C67.9995 44.1883 67.6245 44.0633 67.562 44.3133C67.312 45.0008 67.062 45.7508 67.1245 46.5633Z" fill="#283308"/>
  <path d="M60.562 54.8132C62.437 54.4382 64.4995 53.3757 65.9995 52.3132C66.187 52.1882 65.937 52.0007 65.812 52.0632C64.937 52.5007 64.1245 53.0007 63.187 53.4382C62.2495 53.9382 61.3745 54.3132 60.562 54.8132C60.4995 54.8132 60.4995 54.8132 60.562 54.8132Z" fill="#283308"/>
  <path d="M66.062 49.1885C68.187 48.001 69.937 46.3135 71.437 44.626C71.562 44.501 71.3745 44.376 71.2495 44.501C69.7495 46.1885 67.937 47.626 66.062 49.1885Z" fill="#283308"/>
  <path d="M71.4995 44.626C71.562 43.8135 71.6245 43.0635 71.6245 42.251C71.6245 42.126 71.437 42.126 71.437 42.251C71.3745 43.0635 71.3745 43.8135 71.312 44.626C71.312 44.751 71.4995 44.751 71.4995 44.626Z" fill="#283308"/>
  <path d="M71.3745 42.1887C72.3745 41.6262 73.2495 40.8137 74.1245 40.0637C74.2495 39.9387 74.062 39.7512 73.937 39.8762C72.9995 40.6262 71.9995 41.3137 71.3745 42.1887C71.312 42.1887 71.312 42.1887 71.3745 42.1887Z" fill="#283308"/>
  <path d="M19.8745 45.7509C20.062 48.0009 21.062 50.3134 22.062 52.3759C22.187 52.6259 22.562 52.4384 22.437 52.1884C21.437 50.0634 20.9995 47.7509 19.8745 45.7509Z" fill="#283308"/>
  <path d="M24.4375 53.9385C24.875 54.001 25.375 54.001 25.8125 54.0635C25.3125 53.8135 24.8125 53.5635 24.3125 53.251C23.6875 52.876 23 52.4385 22.25 52.1885C22.75 52.9385 23.5625 53.4385 24.4375 53.9385Z" fill="#283308"/>
  <path d="M39.6245 46.501C40.312 47.376 41.687 47.376 42.687 46.9385C42.937 46.8135 42.687 46.5635 42.4995 46.626C41.562 47.0635 40.562 46.876 39.6245 46.501C39.6245 46.4385 39.6245 46.4385 39.6245 46.501Z" fill="#283308"/>
  <path d="M33.6875 46.5635C33.125 46.5635 32.625 46.501 32.0625 46.501C30.4375 46.4385 28.75 46.376 27.25 45.751C29.0625 45.4385 31.4375 46.001 33.125 46.501C35.125 47.0635 37.4375 46.876 39.5 46.6885C41.75 46.4385 44.0625 46.4385 46.375 46.1885C47.625 46.0635 48.8125 45.751 50 45.3135C47.875 45.501 45.8125 45.751 43.6875 45.9385C40.125 46.251 36.6875 46.126 33.1875 46.251C33.125 46.251 33.125 46.251 33.125 46.251L33.6875 46.5635Z" fill="#C6BA8E"/>
  <path d="M33.1242 46.4385C32.4367 46.751 32.1242 47.6885 31.9992 48.3135C31.9367 48.5635 32.3742 48.6885 32.4992 48.4385C32.6242 48.0635 32.7492 47.751 32.8742 47.376C32.9367 47.0635 33.1242 46.751 33.1242 46.4385Z" fill="#C6BA8E"/>
  <path d="M31.9371 48.4381C30.8746 48.1881 29.9996 48.5006 28.9371 48.6881C27.1246 49.0006 25.4371 48.6881 23.8746 47.9381C23.5621 47.8131 23.2496 48.1881 23.5621 48.3756C24.7496 48.9381 25.9371 49.2506 27.2496 49.2506C28.8746 49.2506 30.3121 48.6881 31.8746 48.5631C31.9996 48.5006 32.0621 48.4381 31.9371 48.4381Z" fill="#C6BA8E"/>
  <path d="M23.4996 48.1259C23.6246 47.5009 23.3121 46.7509 23.0621 46.2509C22.9371 46.0009 22.5621 46.1884 22.6246 46.3759C22.7496 46.9384 23.0621 47.6884 23.4996 48.1259Z" fill="#C6BA8E"/>
  <path d="M19.8121 45.8134C20.7496 45.9384 21.6246 46.1884 22.4371 46.5009C22.6871 46.6259 22.9371 46.2509 22.6871 46.1884C21.8121 45.8759 20.8746 45.6259 19.9371 45.5009C19.6871 45.4384 19.5621 45.7509 19.8121 45.8134Z" fill="#283308"/>
  <path d="M22.6248 46.313C23.4373 46.188 24.0623 45.813 24.6873 45.313C24.8748 45.1255 24.5623 44.8755 24.3748 45.063C23.8748 45.563 23.2498 45.8755 22.5623 46.188C22.4373 46.188 22.5623 46.313 22.6248 46.313Z" fill="#C6BA8E"/>
  <path d="M29.1249 46.126C28.0624 45.751 26.8124 45.501 25.6874 45.376C25.4999 45.376 25.4374 45.626 25.6249 45.6885C26.6874 46.0635 27.9999 46.1885 29.1249 46.126Z" fill="#C6BA8E"/>
  <path d="M54.7495 45.0635C58.3745 44.9385 62.8745 43.6885 65.7495 41.626C63.812 42.251 61.937 43.001 59.937 43.626C58.2495 44.126 56.437 44.3135 54.7495 45.0635Z" fill="#C6BA8E"/>
  <path d="M64.8746 42.3131C65.6246 42.1881 70.2496 40.5006 68.3746 39.5006C68.1246 39.3756 67.9371 39.6881 68.1246 39.8131C68.8121 40.1881 67.3121 40.9381 66.9996 41.1256C66.3121 41.5006 65.4996 41.8131 64.7496 42.0006C64.4996 42.0006 64.6246 42.3131 64.8746 42.3131Z" fill="#C6BA8E"/>
  <path d="M67.4995 44.1255C69.6245 44.8755 68.937 40.813 68.937 40.1255C68.937 39.8755 68.4995 39.8755 68.562 40.1255C68.562 41.2505 69.2495 43.8755 67.4995 44.1255C67.437 44.1255 67.437 44.1255 67.4995 44.1255Z" fill="#283308"/>
  <path d="M70.562 37.563C71.8745 38.063 73.062 38.7505 73.937 39.7505C73.9995 39.813 74.187 39.7505 74.062 39.688C73.187 38.688 71.9995 37.813 70.562 37.563C70.562 37.5005 70.562 37.5005 70.562 37.563Z" fill="#283308"/>
  <path d="M66.8745 46.3135C65.687 48.0635 65.7495 50.1885 65.562 52.1885C65.562 52.4385 65.937 52.4385 65.937 52.1885C66.1245 50.1885 66.2495 48.251 66.8745 46.3135Z" fill="#283308"/>
  <path d="M68.687 43.813C69.2495 44.313 69.8745 44.813 70.437 45.313C70.4995 45.3755 70.6245 45.2505 70.562 45.188C69.937 44.688 69.3745 44.2505 68.7495 43.7505C68.7495 43.688 68.687 43.7505 68.687 43.813Z" fill="#283308"/>
  <path d="M23.437 48.5005C24.187 49.7505 25.6245 50.688 26.937 51.438C27.1245 51.563 27.312 51.2505 27.1245 51.1255C25.7495 50.3755 24.687 49.3755 23.437 48.5005C23.437 48.438 23.437 48.438 23.437 48.5005Z" fill="#283308"/>
  <path d="M27.0625 51.5009C29.4375 51.8759 32 51.1259 34.125 50.1884C34.3125 50.0634 34.125 49.8134 33.9375 49.9384C31.6875 50.9384 29.5625 51.1884 27.0625 51.4384C27 51.4384 27 51.5009 27.0625 51.5009Z" fill="#283308"/>
  <path d="M31.937 48.5632C32.562 49.1882 33.312 49.7508 34.1245 50.1883C34.312 50.2508 34.437 50.0633 34.2495 50.0008C33.4995 49.5633 32.7495 49.0008 32.062 48.5008C31.9995 48.3758 31.8745 48.5007 31.937 48.5632Z" fill="#283308"/>
  <path d="M34.312 49.9385C34.6245 49.3135 34.812 48.6885 34.8745 48.001C34.8745 47.8135 34.562 47.8135 34.562 48.001C34.4995 48.626 34.312 49.251 34.187 49.876C34.1245 50.001 34.2495 50.0635 34.312 49.9385Z" fill="#283308"/>
  <path d="M33.062 46.5635C33.6245 46.876 34.187 47.376 34.6245 47.8135C34.7495 47.9385 34.9995 47.8135 34.8745 47.626C34.3745 47.1885 33.812 46.8135 33.062 46.5635Z" fill="#283308"/>
  <path d="M38.1245 47.6885C36.9995 47.501 35.812 47.376 34.687 47.3135C34.437 47.3135 34.437 47.6885 34.687 47.6885C35.812 47.751 36.937 47.8135 38.1245 47.6885Z" fill="#283308"/>
  <path d="M12.687 48.1885C12.937 48.4385 13.3745 48.501 13.7495 48.5635C14.187 48.626 14.6245 48.6885 15.062 48.6885C15.312 48.6885 15.312 48.376 15.062 48.376C14.687 48.376 14.2495 48.3135 13.8745 48.251C13.4995 48.251 13.1245 48.1885 12.687 48.1885Z" fill="#283308"/>
  <path d="M14.8745 48.5636C16.187 47.8761 17.2495 46.4386 17.937 45.2511C17.9995 45.1261 17.812 45.0636 17.7495 45.1261C17.312 45.7511 16.8745 46.4386 16.3745 47.0011C15.8745 47.5636 15.312 48.0011 14.8745 48.5636Z" fill="#283308"/>
  <path d="M56.562 49.0005C56.812 49.563 57.1245 50.188 57.312 50.813C57.312 50.8755 57.437 50.8755 57.437 50.813C57.187 50.188 56.937 49.563 56.562 49.0005Z" fill="#283308"/>
  <path d="M57.312 51.0009C57.7495 51.1259 58.187 51.3134 58.6245 51.4384C58.687 51.4384 58.7495 51.3759 58.687 51.3134C58.2495 51.1259 57.812 51.0009 57.3745 50.8759C57.312 50.8134 57.2495 50.9384 57.312 51.0009Z" fill="#283308"/>
  <path d="M58.6249 51.4383C59.1249 52.3133 59.6874 53.1883 60.4374 53.9383C60.5624 54.0633 60.8124 53.8758 60.6874 53.7508C59.9374 53.0008 59.3124 52.2507 58.8124 51.3757C58.7499 51.2507 58.5624 51.3758 58.6249 51.4383Z" fill="#283308"/>
  <path d="M38.1245 47.7504C38.812 48.3754 39.562 49.0004 40.3745 49.4379C40.437 49.5004 40.4995 49.3754 40.437 49.3129C39.687 48.8129 38.9995 48.0629 38.1245 47.7504C38.1245 47.6879 38.062 47.7504 38.1245 47.7504Z" fill="#283308"/>
  <path d="M37.562 54.126C37.8745 54.126 38.2495 54.0635 38.562 54.0635C38.562 54.001 38.562 53.9385 38.4995 53.9385C38.2495 53.9385 37.812 54.0635 37.6245 53.876C37.3745 53.626 37.687 53.5635 37.8745 53.3135C38.187 53.001 38.437 52.626 38.7495 52.3135C39.437 51.4385 39.9995 50.5635 40.437 49.626C40.4995 49.5635 40.3745 49.501 40.312 49.5635C39.3745 51.126 38.312 52.626 37.062 53.9385C36.9995 54.001 36.9996 54.0635 37.1246 54.126C37.2496 54.126 37.3745 54.126 37.562 54.126Z" fill="#283308"/>
  <path d="M13.312 43.2509C14.187 43.8759 15.187 44.2509 16.2495 44.6259C17.437 45.0634 18.562 45.6259 19.8745 45.8759C20.1245 45.9384 20.187 45.6259 19.9995 45.5634C18.937 45.3134 17.9995 44.8759 16.9995 44.5634C15.687 44.1259 14.437 43.8134 13.312 43.2509Z" fill="#283308"/>
  <path d="M70.187 41.126C70.3745 41.3135 70.562 41.501 70.812 41.6885C70.9995 41.8135 71.187 42.001 71.437 42.1885C71.562 42.251 71.6245 42.126 71.562 42.0635C71.3745 41.876 71.1245 41.751 70.8745 41.5635C70.687 41.376 70.437 41.251 70.187 41.126Z" fill="#283308"/>
</svg>