<svg width="152" height="32" viewBox="0 0 152 32" fill="none" xmlns="http://www.w3.org/2000/svg">
<g id="Frame" clip-path="url(#clip0_1981_20669)">
<path id="Vector" d="M25.7532 19.933C24.9738 19.9347 24.2104 19.7104 23.5553 19.2871C22.9002 18.8638 22.3812 18.2597 22.061 17.5475C21.7408 16.8353 21.633 16.0455 21.7507 15.2733C21.8683 14.5011 22.2063 13.7795 22.724 13.1955C23.2416 12.6115 23.9168 12.1901 24.6681 11.9819C25.4194 11.7738 26.2148 11.7879 26.9583 12.0226C27.7018 12.2572 28.3616 12.7024 28.8583 13.3044C29.355 13.9064 29.6674 14.6396 29.7576 15.4154H33.8147C33.693 13.3086 32.7565 11.3324 31.2043 9.90626C29.652 8.48015 27.6061 7.71654 25.5011 7.77757C23.3961 7.83859 21.3977 8.71945 19.9303 10.2331C18.4629 11.7468 17.6421 13.774 17.6421 15.8843C17.6421 17.9946 18.4629 20.0219 19.9303 21.5355C21.3977 23.0492 23.3961 23.93 25.5011 23.991C27.6061 24.0521 29.652 23.2885 31.2043 21.8623C32.7565 20.4362 33.693 18.46 33.8147 16.3532H29.7724C29.6576 17.3401 29.1845 18.2503 28.4434 18.9105C27.7023 19.5706 26.7448 19.9345 25.7532 19.933Z" fill="#2A2A86"/>
<path id="Vector_2" d="M12.4584 8.24585V16.1976C12.4584 18.2779 10.6143 19.9633 8.53831 19.9633C6.46235 19.9633 4.60136 18.2716 4.60136 16.1976V8.24585H0.672852V16.1976C0.672852 17.2326 0.876313 18.2574 1.27161 19.2136C1.66692 20.1698 2.24632 21.0385 2.97672 21.7703C3.70712 22.502 4.57422 23.0824 5.52849 23.4783C6.48276 23.8742 7.5055 24.0778 8.53831 24.0775C10.0368 24.0775 11.1896 23.6952 12.4584 22.5315V24.1007C12.4584 26.1811 10.8229 27.8665 8.53831 27.8665C6.2537 27.8665 4.43908 26.1769 4.43908 24.1007H0.672852C0.706632 26.1686 1.55006 28.1402 3.02124 29.5906C4.49243 31.0409 6.4735 31.8538 8.53725 31.8538C10.601 31.8538 12.5821 31.0409 14.0533 29.5906C15.5244 28.1402 16.3679 26.1686 16.4017 24.1007V8.26063L12.4584 8.24585Z" fill="#2A2A86"/>
<path id="Vector_3" d="M64.4253 8.24585V16.1976C64.4253 18.2779 62.5812 19.9633 60.5051 19.9633C58.4291 19.9633 56.5682 18.2737 56.5682 16.1976V8.24585H52.6396V16.1976C52.6396 17.2326 52.8431 18.2574 53.2384 19.2136C53.6337 20.1698 54.2132 21.0385 54.9436 21.7703C55.674 22.502 56.541 23.0824 57.4953 23.4783C58.4495 23.8742 59.4724 24.0778 60.5051 24.0775C62.0036 24.0775 63.1565 23.6952 64.4253 22.5315V24.1007C64.4253 26.1811 62.7898 27.8665 60.5051 27.8665C58.2205 27.8665 56.4059 26.1769 56.4059 24.1007H52.6396C52.6734 26.1686 53.5169 28.1402 54.988 29.5906C56.4592 31.0409 58.4404 31.8538 60.5041 31.8538C62.5679 31.8538 64.549 31.0409 66.0202 29.5906C67.4913 28.1402 68.3348 26.1686 68.3685 24.1007V8.26063L64.4253 8.24585Z" fill="#FCAF17"/>
<path id="Vector_4" d="M47.0891 0.146118V9.16653C45.8873 8.27963 44.4361 7.79684 42.9435 7.78738C38.7284 7.78738 35.3015 11.1666 35.0654 15.4181H39.1035C39.2227 14.3873 39.7307 13.4411 40.5234 12.7735C41.3162 12.1058 42.3337 11.7672 43.3675 11.827C44.4013 11.8868 45.3731 12.3405 46.084 13.0951C46.7948 13.8498 47.1907 14.8482 47.1907 15.8859C47.1907 16.9236 46.7948 17.922 46.084 18.6767C45.3731 19.4313 44.4013 19.885 43.3675 19.9448C42.3337 20.0046 41.3162 19.666 40.5234 18.9983C39.7307 18.3307 39.2227 17.3845 39.1035 16.3537H35.0654C35.3036 20.6073 38.7389 23.9823 42.9435 23.9823C44.4479 23.9553 45.9067 23.4608 47.1186 22.5673L47.6919 23.7964H51.045V0.146118H47.0891Z" fill="#FCAF17"/>
<path id="Vector_5" d="M147.369 7H75.3687C73.1595 7 71.3687 8.79086 71.3687 11V21C71.3687 23.2091 73.1595 25 75.3687 25H147.369C149.578 25 151.369 23.2091 151.369 21V11C151.369 8.79086 149.578 7 147.369 7Z" fill="#1F2A37"/>
<path id="Vector_6" d="M80.9408 10.0321C81.8461 10.0321 82.6348 10.2094 83.3068 10.5641C83.9788 10.9188 84.5014 11.4414 84.8748 12.1321C85.2481 12.8228 85.4348 13.6581 85.4348 14.6381V20.0001H83.1668V17.6481H78.6868V20.0001H76.4468V14.6381C76.4468 13.6581 76.6334 12.8228 77.0068 12.1321C77.3801 11.4414 77.9028 10.9188 78.5748 10.5641C79.2468 10.2094 80.0354 10.0321 80.9408 10.0321ZM83.1668 15.8281V14.4281C83.1668 13.6161 82.9661 13.0048 82.5648 12.5941C82.1634 12.1741 81.6174 11.9641 80.9268 11.9641C80.2268 11.9641 79.6761 12.1741 79.2748 12.5941C78.8828 13.0048 78.6868 13.6161 78.6868 14.4281V15.8281H83.1668ZM91.1593 20.1121C90.3567 20.1121 89.6333 19.9488 88.9893 19.6221C88.3547 19.2861 87.8553 18.8241 87.4913 18.2361C87.1367 17.6481 86.9593 16.9808 86.9593 16.2341C86.9593 15.4874 87.1367 14.8201 87.4913 14.2321C87.8553 13.6441 88.3547 13.1868 88.9893 12.8601C89.6333 12.5241 90.3567 12.3561 91.1593 12.3561C91.9527 12.3561 92.6433 12.5241 93.2313 12.8601C93.8287 13.1868 94.2627 13.6581 94.5333 14.2741L92.8393 15.1841C92.4473 14.4934 91.8827 14.1481 91.1453 14.1481C90.576 14.1481 90.1047 14.3348 89.7313 14.7081C89.358 15.0814 89.1713 15.5901 89.1713 16.2341C89.1713 16.8781 89.358 17.3868 89.7313 17.7601C90.1047 18.1334 90.576 18.3201 91.1453 18.3201C91.892 18.3201 92.4567 17.9748 92.8393 17.2841L94.5333 18.2081C94.2627 18.8054 93.8287 19.2721 93.2313 19.6081C92.6433 19.9441 91.9527 20.1121 91.1593 20.1121ZM103.339 12.4681V20.0001H101.253V19.1321C100.712 19.7854 99.9278 20.1121 98.9011 20.1121C98.1918 20.1121 97.5478 19.9534 96.9691 19.6361C96.3998 19.3188 95.9518 18.8661 95.6251 18.2781C95.2984 17.6901 95.1351 17.0088 95.1351 16.2341C95.1351 15.4594 95.2984 14.7781 95.6251 14.1901C95.9518 13.6021 96.3998 13.1494 96.9691 12.8321C97.5478 12.5148 98.1918 12.3561 98.9011 12.3561C99.8624 12.3561 100.614 12.6594 101.155 13.2661V12.4681H103.339ZM99.2791 18.3201C99.8298 18.3201 100.287 18.1334 100.651 17.7601C101.015 17.3774 101.197 16.8688 101.197 16.2341C101.197 15.5994 101.015 15.0954 100.651 14.7221C100.287 14.3394 99.8298 14.1481 99.2791 14.1481C98.7191 14.1481 98.2571 14.3394 97.8931 14.7221C97.5291 15.0954 97.3471 15.5994 97.3471 16.2341C97.3471 16.8688 97.5291 17.3774 97.8931 17.7601C98.2571 18.1334 98.7191 18.3201 99.2791 18.3201ZM113.033 9.61206V20.0001H110.947V19.1321C110.406 19.7854 109.622 20.1121 108.595 20.1121C107.886 20.1121 107.242 19.9534 106.663 19.6361C106.094 19.3188 105.646 18.8661 105.319 18.2781C104.992 17.6901 104.829 17.0088 104.829 16.2341C104.829 15.4594 104.992 14.7781 105.319 14.1901C105.646 13.6021 106.094 13.1494 106.663 12.8321C107.242 12.5148 107.886 12.3561 108.595 12.3561C109.556 12.3561 110.308 12.6594 110.849 13.2661V9.61206H113.033ZM108.973 18.3201C109.524 18.3201 109.981 18.1334 110.345 17.7601C110.709 17.3774 110.891 16.8688 110.891 16.2341C110.891 15.5994 110.709 15.0954 110.345 14.7221C109.981 14.3394 109.524 14.1481 108.973 14.1481C108.413 14.1481 107.951 14.3394 107.587 14.7221C107.223 15.0954 107.041 15.5994 107.041 16.2341C107.041 16.8688 107.223 17.3774 107.587 17.7601C107.951 18.1334 108.413 18.3201 108.973 18.3201ZM118.848 18.3621C119.24 18.3621 119.586 18.3061 119.884 18.1941C120.192 18.0728 120.477 17.8861 120.738 17.6341L121.9 18.8941C121.191 19.7061 120.155 20.1121 118.792 20.1121C117.943 20.1121 117.192 19.9488 116.538 19.6221C115.885 19.2861 115.381 18.8241 115.026 18.2361C114.672 17.6481 114.494 16.9808 114.494 16.2341C114.494 15.4968 114.667 14.8341 115.012 14.2461C115.367 13.6488 115.848 13.1868 116.454 12.8601C117.07 12.5241 117.761 12.3561 118.526 12.3561C119.245 12.3561 119.898 12.5101 120.486 12.8181C121.074 13.1168 121.541 13.5554 121.886 14.1341C122.241 14.7034 122.418 15.3801 122.418 16.1641L116.846 17.2421C117.005 17.6154 117.252 17.8954 117.588 18.0821C117.934 18.2688 118.354 18.3621 118.848 18.3621ZM118.526 14.0081C117.976 14.0081 117.528 14.1854 117.182 14.5401C116.837 14.8948 116.655 15.3848 116.636 16.0101L120.304 15.2961C120.202 14.9041 119.992 14.5914 119.674 14.3581C119.357 14.1248 118.974 14.0081 118.526 14.0081ZM133.532 12.3561C134.475 12.3561 135.222 12.6361 135.772 13.1961C136.332 13.7468 136.612 14.5774 136.612 15.6881V20.0001H134.428V16.0241C134.428 15.4268 134.302 14.9834 134.05 14.6941C133.808 14.3954 133.458 14.2461 133 14.2461C132.487 14.2461 132.081 14.4141 131.782 14.7501C131.484 15.0768 131.334 15.5668 131.334 16.2201V20.0001H129.15V16.0241C129.15 14.8388 128.674 14.2461 127.722 14.2461C127.218 14.2461 126.817 14.4141 126.518 14.7501C126.22 15.0768 126.07 15.5668 126.07 16.2201V20.0001H123.886V12.4681H125.972V13.3361C126.252 13.0188 126.593 12.7761 126.994 12.6081C127.405 12.4401 127.853 12.3561 128.338 12.3561C128.87 12.3561 129.351 12.4634 129.78 12.6781C130.21 12.8834 130.555 13.1868 130.816 13.5881C131.124 13.1961 131.512 12.8928 131.978 12.6781C132.454 12.4634 132.972 12.3561 133.532 12.3561ZM146.158 12.4681V18.7401C146.158 20.1214 145.808 21.1481 145.108 21.8201C144.408 22.4921 143.391 22.8281 142.056 22.8281C141.347 22.8281 140.675 22.7394 140.04 22.5621C139.415 22.3848 138.887 22.1281 138.458 21.7921L139.326 20.2241C139.643 20.4854 140.031 20.6908 140.488 20.8401C140.945 20.9894 141.407 21.0641 141.874 21.0641C142.602 21.0641 143.134 20.8961 143.47 20.5601C143.806 20.2241 143.974 19.7108 143.974 19.0201V18.7681C143.694 19.0481 143.363 19.2628 142.98 19.4121C142.597 19.5614 142.187 19.6361 141.748 19.6361C140.759 19.6361 139.975 19.3561 139.396 18.7961C138.817 18.2268 138.528 17.3774 138.528 16.2481V12.4681H140.712V15.9261C140.712 17.1488 141.221 17.7601 142.238 17.7601C142.761 17.7601 143.181 17.5921 143.498 17.2561C143.815 16.9108 143.974 16.4021 143.974 15.7301V12.4681H146.158Z" fill="white"/>
</g>
<defs>
<clipPath id="clip0_1981_20669">
<rect width="152" height="32" fill="white"/>
</clipPath>
</defs>
</svg>
